<?xml version="1.0" encoding="UTF-8" standalone="no"?>
<!-- Created with Inkscape (http://www.inkscape.org/) -->

<svg
   xmlns:dc="http://purl.org/dc/elements/1.1/"
   xmlns:cc="http://creativecommons.org/ns#"
   xmlns:rdf="http://www.w3.org/1999/02/22-rdf-syntax-ns#"
   xmlns:svg="http://www.w3.org/2000/svg"
   xmlns="http://www.w3.org/2000/svg"
   xmlns:sodipodi="http://sodipodi.sourceforge.net/DTD/sodipodi-0.dtd"
   xmlns:inkscape="http://www.inkscape.org/namespaces/inkscape"
   version="1.1"
   id="svg2337"
   width="293.14575"
   height="87.906509"
   viewBox="0 0 293.14575 87.906509"
   sodipodi:docname="amazon_logo.svg"
   inkscape:version="0.92.4 (5da689c313, 2019-01-14)">
  <metadata
     id="metadata2343">
    <rdf:RDF>
      <cc:Work
         rdf:about="">
        <dc:format>image/svg+xml</dc:format>
        <dc:type
           rdf:resource="http://purl.org/dc/dcmitype/StillImage" />
        <dc:title></dc:title>
      </cc:Work>
    </rdf:RDF>
  </metadata>
  <defs
     id="defs2341" />
  <sodipodi:namedview
     pagecolor="#ffffff"
     bordercolor="#666666"
     borderopacity="1"
     objecttolerance="10"
     gridtolerance="10"
     guidetolerance="10"
     inkscape:pageopacity="0"
     inkscape:pageshadow="2"
     inkscape:window-width="1920"
     inkscape:window-height="1017"
     id="namedview2339"
     showgrid="false"
     inkscape:zoom="1.3321282"
     inkscape:cx="168.05825"
     inkscape:cy="-84.302753"
     inkscape:window-x="-8"
     inkscape:window-y="-8"
     inkscape:window-maximized="1"
     inkscape:current-layer="svg2337" />
  <path
     style="fill:#fffaf3;stroke-width:0.48660916;fill-opacity:1"
     d="M 107.11808,87.656307 C 82.961116,84.671378 64.246507,76.923354 46.168168,62.422464 c -4.424457,-3.548918 -5.325301,-4.695257 -4.335366,-5.516829 0.470882,-0.390796 2.77185,0.555435 9.118584,3.749849 16.18864,8.147998 31.591708,12.834502 50.813994,15.460537 9.49782,1.297538 29.19897,1.193448 38.55038,-0.20368 12.31756,-1.840273 24.16399,-4.879659 33.83207,-8.680144 5.11299,-2.009896 7.51635,-2.305647 8.33305,-1.025446 0.78009,1.222814 0.0453,2.174082 -3.6649,4.744439 -11.63855,8.063021 -30.74364,14.677324 -47.71322,16.518605 -4.37192,0.474375 -20.63172,0.600816 -23.98468,0.186512 z m 77.12756,-6.155844 c 0,-0.08587 0.90263,-2.549331 2.00586,-5.474353 1.10322,-2.925022 2.35466,-7.001581 2.78098,-9.059023 1.46191,-7.055253 0.0845,-8.000117 -10.86946,-7.45619 -3.74689,0.186055 -7.5581,0.372777 -8.46934,0.414936 -4.16097,0.192503 -0.76177,-2.798747 5.54969,-4.883643 3.39534,-1.121605 4.73245,-1.291047 10.46209,-1.325791 5.64703,-0.03426 6.84247,0.09679 8.51566,0.933384 1.92263,0.961311 1.9482,1.009826 2.09004,3.965699 0.19708,4.106714 -0.99347,8.840662 -3.53066,14.03884 -2.24312,4.595697 -5.98053,9.002269 -7.63522,9.002269 -0.49481,0 -0.89964,-0.07026 -0.89964,-0.156128 z M 9.4602801,51.324545 C 4.3774436,49.88643 1.2635535,46.337672 0.29580469,40.880195 -1.0270082,33.420384 2.1483452,26.765829 8.5878241,23.502696 11.801143,21.874385 15.389886,20.983437 21.50883,20.294905 l 5.075441,-0.571114 -0.0019,-2.974588 c -0.0034,-5.222255 -2.653849,-7.6257151 -7.593122,-6.8850281 -2.3813,0.3570981 -5.543524,2.9703551 -5.543524,4.5811531 0,1.838959 -1.435386,2.390808 -5.1093969,1.964368 C 6.4628363,16.192245 4.4529702,16.003085 3.8699053,15.989343 2.2567423,15.951339 1.2261235,14.661932 1.5853238,13.131157 2.1776148,10.607062 4.8667193,6.1713855 6.6709639,4.7423945 11.360095,1.0285349 18.495766,-0.69063093 25.178676,0.28341467 c 4.548606,0.6629611 7.33367,1.79579213 9.852849,4.00765953 3.934109,3.4541947 4.653102,6.9550078 4.676024,22.7678048 0.01583,10.924118 0.127542,11.573872 2.516874,14.639734 1.593364,2.044518 1.169559,3.016558 -2.787701,6.393873 -2.030664,1.733069 -4.184881,3.216896 -4.78715,3.297391 -1.068812,0.142849 -3.167492,-1.741287 -5.242696,-4.706751 l -0.807649,-1.15413 -2.838012,2.229667 c -1.560906,1.226318 -3.82084,2.582459 -5.022074,3.013653 -2.998787,1.076433 -8.478099,1.344706 -11.2790069,0.552229 z M 22.400707,41.497639 c 0.717087,-0.469856 1.888803,-1.852517 2.603807,-3.072582 1.099118,-1.875509 1.331075,-2.928628 1.501053,-6.815029 l 0.201047,-4.596725 -3.213158,0.257918 c -3.993246,0.320544 -7.456453,1.962641 -8.994153,4.264628 -0.971233,1.453964 -1.111688,2.178437 -0.960036,4.952002 0.184732,3.37864 0.98934,4.900262 3.069516,5.804892 1.384097,0.601912 4.262964,0.206707 5.791924,-0.795104 z M 128.2558,51.341386 c -6.32685,-1.797777 -9.53714,-6.951751 -9.11358,-14.631466 0.25965,-4.707934 1.68004,-7.926128 4.70415,-10.658224 3.66026,-3.306826 7.60408,-4.688348 16.36114,-5.731307 2.67635,-0.318754 5.05414,-0.752361 5.28397,-0.963574 0.22984,-0.211213 0.25805,-1.761224 0.0627,-3.444468 -0.27883,-2.402399 -0.64067,-3.345905 -1.68285,-4.388085 -3.39277,-3.3927711 -10.45882,-1.5305271 -11.45824,3.019799 -0.4564,2.077957 -1.38466,2.322809 -6.5101,1.717224 -5.60292,-0.661998 -5.96354,-1.029422 -4.75945,-4.849236 2.47998,-7.8674041 12.57415,-12.7270578 23.0522,-11.09807043 6.61955,1.02911513 10.52499,3.43154843 12.66612,7.79156633 l 1.3502,2.7494151 0.2433,13.381752 c 0.25965,14.28063 0.29489,14.492262 2.98846,17.94851 0.49743,0.638271 0.90441,1.447925 0.90441,1.799233 0,0.883672 -7.7352,7.502369 -8.76793,7.502369 -0.79005,0 -3.16857,-2.190982 -5.24622,-4.832554 l -0.93043,-1.182991 -2.38154,2.008124 c -1.30985,1.104466 -3.41239,2.464101 -4.6723,3.02141 -2.91048,1.287421 -9.02564,1.712445 -12.094,0.840573 z m 11.90319,-9.291811 c 1.7109,-0.714858 3.78493,-3.072976 4.60891,-5.240226 0.27005,-0.710279 0.64645,-3.207285 0.83645,-5.548906 l 0.34545,-4.257495 -3.56627,0.298983 c -4.84657,0.406318 -7.66395,1.864501 -9.1102,4.71514 -1.88769,3.720721 -1.20265,8.119278 1.5234,9.781565 1.80746,1.10215 3.17218,1.166012 5.36226,0.250939 z m 80.98213,8.764263 c -5.45452,-2.243443 -9.1072,-6.38364 -11.45117,-12.979515 -1.73635,-4.886037 -2.16294,-14.737114 -0.86954,-20.079815 2.31707,-9.5712031 8.02998,-15.5574153 16.18109,-16.95517573 4.13122,-0.7084251 8.66726,-0.049741 12.28614,1.78408433 5.17057,2.6201277 9.45283,8.9653264 11.001,16.3005944 1.12572,5.333708 0.7201,13.710354 -0.88601,18.297497 -2.37738,6.789944 -6.77351,11.706818 -12.32358,13.783364 -3.89785,1.458373 -10.19076,1.390184 -13.93793,-0.151034 z m 10.61494,-9.325041 c 2.91069,-1.839879 4.44886,-10.221761 3.59565,-19.5936 -0.84486,-9.280216 -1.96364,-11.285785 -6.50572,-11.66245 -2.66062,-0.220638 -2.82742,-0.163831 -4.39298,1.496143 -2.0644,2.188909 -2.72001,4.601737 -3.0704,11.300077 -0.33884,6.477332 0.42951,12.804799 1.91896,15.803007 1.77815,3.579332 5.26274,4.674363 8.45449,2.656823 z m -180.962982,9.47244 c -0.792774,-0.461748 -0.851566,-2.150569 -0.851566,-24.461642 0,-17.9911381 0.145569,-24.1112259 0.583931,-24.5495829 0.652864,-0.6528641 9.483282,-0.8200484 10.461727,-0.1980694 0.3363,0.2137771 0.645574,1.8085218 0.729913,3.7637711 l 0.146353,3.3928091 1.050307,-1.9464364 C 64.894466,3.2913843 68.196912,1.0344326 72.297986,0.54872367 77.327481,-0.04694923 81.736977,2.14777 84.300989,6.5229217 l 1.269086,2.1655372 1.355606,-2.137562 c 4.498809,-7.09389063 14.519109,-8.2492127 20.383749,-2.3502103 3.58998,3.6110143 3.59114,3.6187953 3.81939,25.7154354 0.24176,23.403394 0.77128,21.570702 -6.23247,21.570702 -6.914627,0 -6.293467,1.717798 -6.296637,-17.413401 -0.003,-16.735754 -0.23009,-19.234599 -1.886098,-20.733272 -2.567082,-2.323175 -7.318295,-1.067285 -8.86763,2.343986 -0.817172,1.799208 -0.901798,3.462945 -0.911492,17.919801 -0.0129,19.221348 0.472629,17.882886 -6.486904,17.882886 -2.868789,0 -4.825853,-0.223038 -5.337211,-0.608262 -0.72043,-0.54272 -0.822209,-2.443381 -0.944572,-17.639581 -0.151759,-18.846538 -0.241952,-19.414163 -3.285191,-20.674714 -1.900622,-0.787266 -4.702348,-0.343658 -6.095476,0.965116 -1.975589,1.855976 -2.191789,3.886971 -2.191789,20.590025 0,18.812051 0.542345,17.37653 -6.555847,17.352618 -2.416073,-0.0081 -4.776064,-0.237991 -5.244425,-0.510789 z m 205.835672,0 c -0.79278,-0.461748 -0.85157,-2.150569 -0.85157,-24.461642 0,-17.9911381 0.14557,-24.1112259 0.58393,-24.5495829 0.61125,-0.6112444 8.88173,-0.8423935 10.32498,-0.2885641 0.61396,0.2356015 0.7709,1.0971479 0.77557,4.2578302 l 0.006,3.9624637 1.24313,-2.189742 c 0.68372,-1.2043573 2.04865,-3.0203924 3.03317,-4.0356344 4.57936,-4.7222693 14.29991,-4.04714783 18.14453,1.2601864 2.88071,3.976716 3.0179,5.081908 3.21355,25.8893831 0.1139,12.112768 0.003,19.241796 -0.30691,19.70767 -0.62124,0.934261 -9.61869,1.34763 -11.17725,0.513519 -1.00863,-0.539805 -1.02353,-0.782497 -1.02621,-16.710396 -0.001,-10.041204 -0.20114,-16.877289 -0.52664,-18.04957 -0.75103,-2.704841 -2.41498,-4.196089 -4.67957,-4.193855 -2.89892,0.0029 -4.7508,1.439093 -5.93436,4.602437 -0.95849,2.561851 -1.02192,3.679967 -1.02192,18.01373 0,18.154254 0.52651,16.806414 -6.55585,16.782556 -2.41607,-0.0081 -4.77606,-0.237991 -5.24442,-0.510789 z m -88.4252,-1.644855 c -0.40621,-0.489456 -0.53834,-2.344639 -0.42454,-5.960962 l 0.16522,-5.250347 9.12392,-13.037841 c 5.01816,-7.170814 9.12392,-13.123119 9.12392,-13.227351 0,-0.104232 -3.59541,-0.258993 -7.98981,-0.343911 -4.3944,-0.08492 -8.16819,-0.333371 -8.38621,-0.552107 -0.65137,-0.653526 -0.81073,-7.4049017 -0.20165,-8.5429832 0.54723,-1.0225021 0.7404,-1.0347987 16.25416,-1.0347987 11.56258,0 15.85426,0.1538901 16.28429,0.583931 0.34575,0.3457455 0.58393,2.0092433 0.58393,4.0781936 v 3.4942622 l -8.78685,12.5881701 -8.78686,12.58817 3.93215,0.333736 c 6.797,0.576885 13.71516,3.169748 14.30188,5.360219 0.55954,2.088974 0.337,7.955441 -0.33674,8.876826 -0.62253,0.851367 -0.78711,0.83343 -3.945,-0.429929 -8.90368,-3.562032 -18.79877,-3.591112 -26.73055,-0.07856 -3.33598,1.477326 -3.40808,1.486903 -4.18126,0.555285 z"
     id="path2347"
     inkscape:connector-curvature="0" />
</svg>
