<?xml version="1.0" encoding="UTF-8" standalone="no"?>
<!-- Created with Inkscape (http://www.inkscape.org/) -->

<svg
   xmlns:dc="http://purl.org/dc/elements/1.1/"
   xmlns:cc="http://creativecommons.org/ns#"
   xmlns:rdf="http://www.w3.org/1999/02/22-rdf-syntax-ns#"
   xmlns:svg="http://www.w3.org/2000/svg"
   xmlns="http://www.w3.org/2000/svg"
   xmlns:sodipodi="http://sodipodi.sourceforge.net/DTD/sodipodi-0.dtd"
   xmlns:inkscape="http://www.inkscape.org/namespaces/inkscape"
   version="1.1"
   id="svg1079"
   width="296.42786"
   height="160.03336"
   viewBox="0 0 296.42785 160.03336"
   sodipodi:docname="crate_and_barrel_logo.svg"
   inkscape:version="0.92.4 (5da689c313, 2019-01-14)">
  <metadata
     id="metadata1085">
    <rdf:RDF>
      <cc:Work
         rdf:about="">
        <dc:format>image/svg+xml</dc:format>
        <dc:type
           rdf:resource="http://purl.org/dc/dcmitype/StillImage" />
        <dc:title></dc:title>
      </cc:Work>
    </rdf:RDF>
  </metadata>
  <defs
     id="defs1083" />
  <sodipodi:namedview
     pagecolor="#ffffff"
     bordercolor="#666666"
     borderopacity="1"
     objecttolerance="10"
     gridtolerance="10"
     guidetolerance="10"
     inkscape:pageopacity="0"
     inkscape:pageshadow="2"
     inkscape:window-width="1920"
     inkscape:window-height="1017"
     id="namedview1081"
     showgrid="false"
     inkscape:zoom="1.6044074"
     inkscape:cx="390.58988"
     inkscape:cy="-47.640139"
     inkscape:window-x="-8"
     inkscape:window-y="-8"
     inkscape:window-maximized="1"
     inkscape:current-layer="svg1079" />
  <path
     style="fill:#fffaf3;fill-opacity:1;stroke-width:0.63122338"
     d="m 82.265177,159.43816 c -2.730474,-0.68883 -5.646831,-2.11226 -8.247081,-4.02526 -4.083175,-3.00398 -6.446802,-10.31129 -4.875416,-15.07264 2.566956,-7.77796 9.8017,-11.62941 25.532106,-13.59218 5.898234,-0.73594 8.188054,-2.11636 8.484604,-5.11492 0.64457,-6.51764 -10.479055,-10.13746 -16.661434,-5.42193 -1.291867,0.98535 -2.652852,2.59697 -3.024428,3.58138 -0.667022,1.76713 -0.741855,1.78983 -5.902599,1.78983 h -5.227008 l 0.0106,-1.73587 c 0.0057,-0.95472 0.795825,-3.29814 1.755575,-5.20759 3.181924,-6.33057 10.630113,-9.30442 21.746005,-8.68254 9.584919,0.53623 15.000319,3.23535 17.812089,8.87784 1.58378,3.17822 1.59895,3.35953 1.59895,19.09479 0,13.9483 0.40384,19.88771 1.61387,23.73611 0.29384,0.93454 -0.34861,1.03853 -5.84948,0.94684 l -6.1796,-0.10301 -0.1978,-2.05148 c -0.20787,-2.15593 -1.33792,-2.67681 -2.57458,-1.18673 -0.39472,0.47561 -2.433873,1.63493 -4.531445,2.57626 -4.248227,1.90649 -11.174473,2.62758 -15.282932,1.5911 z m 15.826236,-10.90012 c 3.859267,-2.02125 5.202657,-4.67828 5.647617,-11.17014 0.23726,-3.4615 0.1279,-5.05466 -0.34697,-5.05466 -2.25335,0 -16.555166,4.18586 -18.502985,5.41546 -3.888562,2.45474 -4.669929,7.43833 -1.603144,10.22492 3.318714,3.0155 9.683979,3.26676 14.805482,0.58442 z M 205.73207,159.4268 c -6.0887,-1.20354 -12.87301,-5.89603 -16.21498,-11.2154 -5.64057,-8.97799 -5.72911,-22.1007 -0.20812,-30.84651 4.74213,-7.51202 12.19492,-11.56304 21.27288,-11.56304 14.21887,0 23.60906,9.7831 25.5981,26.66919 l 0.42752,3.62954 h -19.02924 c -16.14991,0 -19.08306,0.14023 -19.38489,0.92682 -0.67587,1.76127 1.79209,6.65885 4.60178,9.13204 5.42029,4.77112 12.54196,4.75383 17.33791,-0.0421 l 2.44206,-2.44208 h 6.66487 6.66486 l -2.0425,3.83211 c -5.12108,9.60814 -16.15999,14.28558 -28.13025,11.91943 z m 16.4665,-32.69601 c 0.59386,-0.96089 -0.90112,-5.06956 -2.56343,-7.04509 -2.35455,-2.79823 -4.92961,-3.91052 -9.05329,-3.91052 -4.27131,0 -6.75548,1.13759 -9.34534,4.27954 -1.85028,2.24471 -2.98246,5.52551 -2.29222,6.64234 0.44405,0.71848 22.81102,0.75092 23.25428,0.0337 z M 8.1116358,123.75523 8.2747424,88.685841 26.996774,88.739432 c 14.99021,0.04294 19.381764,0.249543 22.031842,1.036534 8.439237,2.506215 12.584509,7.689243 12.584509,15.735034 0,6.52615 -2.662652,10.99563 -8.281579,13.90128 -0.9999,0.51707 -1.817999,1.18821 -1.817999,1.49141 0,0.30321 1.207215,1.17286 2.682701,1.93255 6.818922,3.51095 9.926033,8.80064 9.935601,16.91485 0.0071,5.97319 -1.436103,9.66911 -5.145065,13.17655 -5.606656,5.30205 -8.888329,5.89698 -32.527793,5.89698 H 7.948534 Z m 37.5937402,22.28981 c 3.226246,-2.13678 4.764494,-4.94776 4.778104,-8.73147 0.01378,-3.81974 -1.795639,-6.81089 -5.314434,-8.78544 -2.62539,-1.47323 -3.496658,-1.5904 -13.381229,-1.79952 l -10.572991,-0.22368 v 10.84659 10.84658 l 10.93685,-0.20995 c 10.707513,-0.20554 10.991725,-0.24629 13.5537,-1.94311 z M 43.930902,115.09667 C 50.663157,111.53656 50.49204,103.25517 43.614925,99.805227 41.422362,98.705322 39.83869,98.542783 31.3144,98.542783 h -9.783965 l -0.175136,8.994937 -0.175137,8.99493 h 10.017625 c 9.204573,0 10.23802,-0.11655 12.733115,-1.43598 z m 78.567998,42.93765 c -0.16679,-0.43468 -0.22889,-11.95529 -0.13799,-25.60139 l 0.16527,-24.81107 5.83943,-0.12097 c 5.16065,-0.10692 5.84852,0.007 5.91772,0.98366 0.043,0.60755 0.14931,1.38869 0.2361,1.73586 0.0868,0.34718 0.19331,0.91528 0.23671,1.26245 0.1447,1.15762 1.43171,0.65225 4.05297,-1.59144 3.01973,-2.58478 6.04936,-3.64246 9.59723,-3.35051 l 2.5249,0.20778 v 5.04979 5.04978 l -3.47173,0.33922 c -3.93169,0.38416 -6.4879,1.57671 -8.96145,4.1808 -3.40722,3.58703 -3.66302,5.12132 -3.66302,21.97109 v 15.48525 h -6.01643 c -4.23604,0 -6.10618,-0.23387 -6.31971,-0.7903 z m 33.79774,-24.93206 v -25.72235 h 5.99662 5.99662 v 2.32983 c 0,3.19033 0.94229,3.50561 3.33752,1.11671 2.75332,-2.74606 6.47309,-4.36286 10.07598,-4.37952 l 2.99831,-0.0139 v 5.36542 5.36539 h -2.79941 c -3.64303,0 -5.8653,0.8784 -8.48188,3.35264 -4.22165,3.99198 -4.46996,5.24783 -4.48543,22.68533 l -0.0139,15.62278 h -6.31224 -6.31223 z m 85.18389,25.48093 c -0.15639,-0.15625 -0.20931,-16.00167 -0.11759,-35.21204 l 0.16675,-34.927945 6.14548,0.196336 6.14548,0.196331 -0.1457,34.836568 -0.14569,34.83657 -5.8822,0.17913 c -3.23521,0.0985 -6.01015,0.0513 -6.16653,-0.10495 z M 30.998786,72.967426 C 17.696903,71.160812 6.4872833,61.768846 1.6296449,48.36052 -0.49216062,42.503786 -0.55191066,30.990795 1.5084406,25.005255 5.306007,13.972907 13.159493,5.825783 24.055332,1.6153395 29.191458,-0.36939748 41.747841,-0.56647649 47.094984,1.2537195 60.176833,5.7068416 69.640119,16.171822 72.014895,28.811413 l 0.411561,2.19046 -6.119921,-0.122013 -6.119921,-0.122019 -1.421185,-3.496757 c -2.419983,-5.954243 -7.905752,-11.26346 -14.061208,-13.608681 -2.420509,-0.922208 -4.848743,-1.271486 -8.83713,-1.271122 -4.772031,4.31e-4 -6.017341,0.245463 -9.413918,1.852323 -5.313923,2.513913 -9.058571,6.137352 -11.622203,11.246014 -2.04167,4.068532 -2.13766,4.57159 -2.13766,11.203266 0,6.692615 0.07713,7.085684 2.135047,10.8804 2.626833,4.843768 7.155261,9.176537 11.929829,11.414373 3.120968,1.462799 4.420821,1.69172 9.605998,1.69172 5.133906,0 6.496094,-0.234853 9.468352,-1.632448 4.390205,-2.064319 10.065516,-7.22813 12.044927,-10.959357 l 1.524215,-2.873171 h 6.223936 6.223945 l -0.401406,1.599318 C 70.63778,50.032498 68.02604,55.087963 65.201105,58.895936 57.344859,69.486031 44.444362,74.793544 30.998786,72.967426 Z m 88.312394,-0.0019 c -5.87927,-1.180078 -10.66189,-4.473924 -12.91838,-8.897017 -1.75823,-3.446414 -1.65903,-9.539795 0.20899,-12.83783 3.09839,-5.470269 10.05307,-8.869777 20.7426,-10.139142 7.55922,-0.897642 9.86246,-1.760356 11.23446,-4.208001 0.85569,-1.526582 0.84185,-1.91834 -0.14061,-3.978573 -2.99892,-6.288817 -15.40451,-6.224873 -18.64737,0.09612 l -1.23753,2.412181 -5.11475,0.0038 c -5.76111,0.0043 -5.8166,-0.05808 -4.18139,-4.692784 1.48772,-4.216641 3.25743,-6.161174 7.45299,-8.189234 5.2971,-2.560535 11.31693,-3.321606 17.84747,-2.256417 5.66794,0.924495 7.84213,1.659585 10.4943,3.548099 1.95263,1.390389 4.37789,4.858381 5.23875,7.491123 0.2838,0.86793 0.69516,9.957548 0.91414,20.199147 0.21897,10.241598 0.60592,19.047165 0.85989,19.567925 0.39706,0.814193 -0.3738,0.918799 -5.50261,0.746674 l -5.96438,-0.200161 -0.40661,-1.851314 c -0.49576,-2.257165 -1.06352,-2.300928 -3.7057,-0.285641 -3.9144,2.98566 -11.72651,4.564574 -17.17426,3.471112 z m 11.42091,-9.521161 c 3.38291,-0.924059 6.56675,-3.421436 7.64166,-5.994044 0.49209,-1.177764 0.87985,-4.233566 0.87985,-6.933873 0,-4.298916 -0.12106,-4.793093 -1.10464,-4.508952 -0.60755,0.17551 -2.52489,0.678502 -4.26075,1.117758 -10.4678,2.648837 -11.97863,3.253841 -14.36034,5.750518 -2.73774,2.869904 -2.99724,4.820068 -1.01231,7.60764 2.3858,3.350556 6.83893,4.429882 12.21653,2.960953 z m 73.30891,9.457207 c -11.15848,-1.588751 -19.16258,-10.153041 -21.22277,-22.70809 -0.67827,-4.133532 -0.64309,-5.426691 0.25508,-9.375656 2.62935,-11.560351 9.33214,-18.484939 19.82887,-20.485005 7.77952,-1.482318 15.25731,0.564569 20.99295,5.746384 4.57628,4.134398 7.68695,11.177796 8.5177,19.286436 l 0.43419,4.237977 -18.54945,0.167476 -18.54947,0.167477 -0.1951,1.687899 c -0.23181,2.005435 1.68805,5.995815 3.76321,7.82172 3.29159,2.896246 5.20513,3.666837 9.10596,3.667007 4.21314,1.8e-4 7.68779,-1.609122 9.52359,-4.410902 0.93563,-1.427965 1.32957,-1.506656 7.54244,-1.506656 3.60538,0 6.55525,0.15147 6.55525,0.336595 0,1.487066 -3.64224,6.883487 -6.41731,9.508029 -5.36106,5.070274 -12.84969,7.103072 -21.58514,5.859309 z m 14.74676,-33.725146 c 0,-4.743725 -5.94207,-9.775941 -11.49956,-9.738754 -3.00598,0.02012 -7.02332,2.052706 -8.88737,4.496601 -1.88969,2.477522 -3.1302,5.447772 -2.61999,6.273308 0.19656,0.318033 5.45353,0.578251 11.68215,0.578251 h 11.32477 z m 34.90997,33.808477 C 241.26069,71.120656 234.03624,59.04321 238.40161,47.413678 c 1.70045,-4.530085 7.44434,-10.639946 12.10512,-12.876413 1.64908,-0.791304 2.99832,-1.714099 2.99832,-2.050661 0,-0.336562 -0.8297,-1.66046 -1.84377,-2.942001 -4.40421,-5.565889 -6.16352,-12.343411 -4.50699,-17.362712 2.85317,-8.6451923 12.90267,-13.17965217 22.53466,-10.1679352 4.89568,1.5307721 9.70364,6.1704492 10.92213,10.5398282 1.06842,3.831255 0.57756,9.547663 -1.10265,12.841143 -1.28956,2.527738 -5.73343,7.058268 -8.23805,8.398703 -0.74444,0.398414 -1.35353,1.012441 -1.35353,1.364508 0,0.352066 1.84633,2.926923 4.10296,5.721895 2.25662,2.794977 4.10294,5.337433 4.10294,5.649907 0,0.312465 0.56811,0.568125 1.26245,0.568125 0.77753,0 1.26647,-0.42431 1.27293,-1.104639 0.006,-0.607556 0.68352,-2.950973 1.50613,-5.207594 l 1.49565,-4.102954 5.12172,-0.183331 c 5.87548,-0.210315 5.82254,-0.281437 4.22444,5.675738 -1.5782,5.883037 -3.2392,9.608256 -6.15594,13.806314 -0.5581,0.803276 0.29179,2.252005 4.44364,7.574682 2.82355,3.619788 5.1339,6.936505 5.1341,7.370468 2.7e-4,0.580329 -1.72442,0.78903 -6.52047,0.78903 h -6.52085 l -2.0399,-2.840505 c -1.12194,-1.562278 -2.27775,-2.840506 -2.56846,-2.840506 -0.29071,0 -1.99878,0.989382 -3.7957,2.198613 -5.65683,3.80677 -14.46689,5.773489 -21.28476,4.751522 z m 9.672,-11.112654 c 3.55883,-1.465369 7.80713,-4.242408 7.80844,-5.104251 0.002,-1.278436 -10.36221,-14.653273 -11.36089,-14.661118 -1.76727,-0.01387 -7.86387,5.29813 -9.40531,8.19493 -2.07531,3.900075 -1.50243,6.953747 1.91434,10.204033 2.17805,2.071936 2.88139,2.372807 5.54679,2.372807 1.67885,0 4.15233,-0.452876 5.49663,-1.006401 z m 3.56517,-37.70913 c 1.54822,-1.504686 3.16008,-3.781598 3.58192,-5.059801 0.664,-2.011931 0.60928,-2.598135 -0.40748,-4.365469 -0.64595,-1.122805 -2.2494,-2.570378 -3.56321,-3.21683 -2.1397,-1.052829 -2.62874,-1.084017 -4.69081,-0.299191 -2.90502,1.105658 -4.83265,4.17498 -4.25986,6.782872 0.43564,1.983449 5.08671,8.894218 5.98597,8.894218 0.2962,0 1.80527,-1.231108 3.35347,-2.735799 z m -94.85768,47.850554 c -0.52076,-0.117602 -2.01809,-0.388776 -3.32741,-0.602604 -3.35882,-0.54854 -6.46219,-3.478052 -7.32832,-6.917748 -0.42931,-1.704952 -0.70629,-9.131331 -0.70629,-18.937219 V 29.423816 h -3.47173 -3.47173 v -4.102954 -4.102953 h 3.47173 3.47173 V 12.696393 4.1748764 h 6.34404 6.34402 l -0.0657,7.7324856 c -0.0362,4.252871 -0.0504,8.075107 -0.0318,8.493864 0.0224,0.503243 1.58549,0.824253 4.6103,0.946835 l 4.57637,0.185462 0.18793,3.945148 0.18792,3.945145 h -4.76429 -4.7643 V 44.50325 c 0,17.86358 -0.0161,17.814538 5.99771,18.36251 l 3.60526,0.328509 0.0905,4.261104 0.0905,4.261099 -3.78734,0.0083 c -2.08304,0.0043 -4.35544,0.119533 -5.04978,0.255513 -0.69435,0.135984 -1.68853,0.15102 -2.20929,0.03338 z M 77.219795,46.624658 77.361484,21.533523 83.05861,21.352029 c 5.678,-0.180884 5.697122,-0.176292 5.697122,1.368626 0,2.095422 0.613464,3.550759 1.487785,3.529507 0.396819,-0.0097 1.531132,-0.842953 2.520698,-1.8518 2.552365,-2.602111 5.466989,-3.811674 9.184795,-3.811674 h 3.21853 v 4.962878 4.962879 l -3.49788,0.411111 c -4.346793,0.510879 -7.92085,2.690882 -10.226375,6.237599 l -1.740718,2.677848 -0.197198,15.938389 -0.197197,15.938393 -6.115035,5e-6 -6.115041,1e-5 z"
     id="path1089"
     inkscape:connector-curvature="0" />
</svg>
