<?xml version="1.0" encoding="UTF-8" standalone="no"?>
<!-- Created with Inkscape (http://www.inkscape.org/) -->

<svg
   xmlns:dc="http://purl.org/dc/elements/1.1/"
   xmlns:cc="http://creativecommons.org/ns#"
   xmlns:rdf="http://www.w3.org/1999/02/22-rdf-syntax-ns#"
   xmlns:svg="http://www.w3.org/2000/svg"
   xmlns="http://www.w3.org/2000/svg"
   xmlns:sodipodi="http://sodipodi.sourceforge.net/DTD/sodipodi-0.dtd"
   xmlns:inkscape="http://www.inkscape.org/namespaces/inkscape"
   version="1.1"
   id="svg7929"
   width="127.98742"
   height="183.68982"
   viewBox="0 0 127.98742 183.68982"
   sodipodi:docname="dress.svg"
   inkscape:version="0.92.4 (5da689c313, 2019-01-14)">
  <metadata
     id="metadata7935">
    <rdf:RDF>
      <cc:Work
         rdf:about="">
        <dc:format>image/svg+xml</dc:format>
        <dc:type
           rdf:resource="http://purl.org/dc/dcmitype/StillImage" />
        <dc:title></dc:title>
      </cc:Work>
    </rdf:RDF>
  </metadata>
  <defs
     id="defs7933" />
  <sodipodi:namedview
     pagecolor="#ffffff"
     bordercolor="#666666"
     borderopacity="1"
     objecttolerance="10"
     gridtolerance="10"
     guidetolerance="10"
     inkscape:pageopacity="0"
     inkscape:pageshadow="2"
     inkscape:window-width="1920"
     inkscape:window-height="1017"
     id="namedview7931"
     showgrid="false"
     showguides="false"
     inkscape:zoom="2.9316544"
     inkscape:cx="-45.889303"
     inkscape:cy="72.023786"
     inkscape:window-x="-8"
     inkscape:window-y="-8"
     inkscape:window-maximized="1"
     inkscape:current-layer="svg7929" />
  <path
     style="fill:#fffaf3;fill-opacity:1"
     d="m 56,182.18064 c -6.81522,-3.04115 -8.86936,-3.28449 -14.76437,-1.74904 -7.01618,1.82749 -8.33876,1.51071 -15.15755,-3.6304 l -5.42191,-4.08792 -7.8721,0.68669 C 5.44706,174.03998 4.74503,173.92983 2.45599,171.77938 0.3817,169.83069 0,168.54737 0,163.52206 0,140.81278 17.57625,90.006485 37.75678,54.38148 c 4.21294,-7.43716 4.4999,-8.417413 4.53755,-15.5 0.028,-5.267314 -0.74857,-10.290751 -2.5601,-16.560745 C 36.67486,11.731751 35.68474,5.7469424 36.73939,4.2181908 c 0.41833,-0.6063992 3.1833,-1.9000576 6.14438,-2.8747966 4.21209,-1.38655502 6.93248,-1.61852416 12.5,-1.06588132 8.4508,0.83884362 10.07063,0.83699322 18.77495,-0.0214473 4.96418,-0.48957803 7.9348,-0.23285552 11.67304,1.00878962 7.94758,2.6397608 7.99039,2.8110198 4.34229,17.3706948 -1.74814,6.976852 -3.45623,15.398938 -3.79576,18.715748 l -0.61733,6.030562 8.02261,15.469438 c 19.85219,38.279597 32.6294,75.806882 33.90404,99.577802 0.56691,10.57248 0.48772,11.2163 -1.6416,13.34562 -2.06842,2.06842 -2.81757,2.18587 -9.92788,1.55647 l -7.69063,-0.68078 -5.46375,4.11936 c -6.93011,5.22491 -8.84699,5.676 -15.38323,3.62011 -5.67874,-1.78619 -8.25279,-1.51732 -15.08052,1.57519 -4.89209,2.21579 -11.81482,2.30624 -16.5,0.21557 z"
     id="path8490"
     inkscape:connector-curvature="0"
     sodipodi:nodetypes="ccscscsssscsssssscsssccscsc" />
</svg>
