<?xml version="1.0" encoding="UTF-8" standalone="no"?>
<!-- Created with Inkscape (http://www.inkscape.org/) -->

<svg
   xmlns:dc="http://purl.org/dc/elements/1.1/"
   xmlns:cc="http://creativecommons.org/ns#"
   xmlns:rdf="http://www.w3.org/1999/02/22-rdf-syntax-ns#"
   xmlns:svg="http://www.w3.org/2000/svg"
   xmlns="http://www.w3.org/2000/svg"
   xmlns:sodipodi="http://sodipodi.sourceforge.net/DTD/sodipodi-0.dtd"
   xmlns:inkscape="http://www.inkscape.org/namespaces/inkscape"
   version="1.1"
   id="svg8492"
   width="52.858315"
   height="55.498119"
   viewBox="0 0 52.858314 55.498121"
   sodipodi:docname="flowers.svg"
   inkscape:version="0.92.4 (5da689c313, 2019-01-14)">
  <metadata
     id="metadata8498">
    <rdf:RDF>
      <cc:Work
         rdf:about="">
        <dc:format>image/svg+xml</dc:format>
        <dc:type
           rdf:resource="http://purl.org/dc/dcmitype/StillImage" />
        <dc:title />
      </cc:Work>
    </rdf:RDF>
  </metadata>
  <defs
     id="defs8496" />
  <sodipodi:namedview
     pagecolor="#ffffff"
     bordercolor="#666666"
     borderopacity="1"
     objecttolerance="10"
     gridtolerance="10"
     guidetolerance="10"
     inkscape:pageopacity="0"
     inkscape:pageshadow="2"
     inkscape:window-width="958"
     inkscape:window-height="1008"
     id="namedview8494"
     showgrid="false"
     inkscape:zoom="2.7300974"
     inkscape:cx="49.729694"
     inkscape:cy="-16.189309"
     inkscape:window-x="-7"
     inkscape:window-y="0"
     inkscape:window-maximized="0"
     inkscape:current-layer="svg8492" />
  <path
     style="fill:#fffaf3;fill-opacity:0;stroke:#fffaf3;stroke-width:1.74968469;stroke-miterlimit:4;stroke-dasharray:none;stroke-opacity:1"
     d="m 49.375371,26.219006 c -1.459816,1.247352 -3.120255,1.884759 -4.93404,1.894086 -0.3086,0.0014 -0.747134,-0.02229 -0.974537,-0.05319 l -0.413438,-0.05606 0.04494,0.412198 c 0.152537,1.398655 -0.128866,2.978155 -0.762904,4.282116 -1.135719,2.335703 -3.387436,3.954801 -5.907431,4.247738 -2.245114,0.260979 -4.396209,-0.46556 -6.03669,-2.038916 -1.289266,-1.236507 -2.107596,-2.831469 -2.344741,-4.569964 -0.02875,-0.210852 -0.05807,-0.382506 -0.06509,-0.381466 -0.0071,7.17e-4 -0.146028,0.07441 -0.30888,0.163037 -1.023016,0.556756 -2.228878,0.857757 -3.457471,0.863033 -1.645105,0.0071 -3.129487,-0.481029 -4.470788,-1.470089 -2.180184,-1.607636 -3.382555,-4.361392 -3.103839,-7.108639 0.110572,-1.089876 0.480927,-2.246764 1.01083,-3.157523 0.393732,-0.676726 0.542025,-0.868065 1.187746,-1.532547 0.669616,-0.688798 0.989341,-0.944508 1.655672,-1.322937 l 0.326829,-0.18561 -0.430233,-0.474685 c -0.447122,-0.49329 -0.731062,-0.87804 -1.01939,-1.381298 -0.953512,-1.664295 -1.268792,-3.627864 -0.887476,-5.5271316 0.217675,-1.0841928 0.693693,-2.1722002 1.352053,-3.0903317 0.330335,-0.4606738 1.063677,-1.2146872 1.521837,-1.5646572 1.383473,-1.0569758 3.086062,-1.6098022 4.783088,-1.5530558 1.898035,0.063477 3.729878,0.8615487 5.020613,2.1873246 l 0.344671,0.3540245 0.04086,-0.075309 c 0.482534,-0.889057 0.708948,-1.1981836 1.389057,-1.896538 0.635909,-0.6529926 0.869599,-0.8445897 1.501544,-1.2311494 2.47188,-1.51208915 5.63693,-1.424735 8.045305,0.222042 1.811011,1.2383243 3.013682,3.1938062 3.314426,5.389092 0.221776,1.6188825 -0.06495,3.3313156 -0.790482,4.7212546 -0.07061,0.135318 -0.123648,0.250937 -0.117819,0.25693 0.0057,0.0057 0.160572,0.02659 0.343847,0.04573 0.682467,0.07139 1.546496,0.306127 2.21148,0.600783 1.334613,0.591379 2.657965,1.778058 3.423522,3.069948 1.613298,2.722459 1.465579,6.155184 -0.374901,8.712253 -0.226765,0.315059 -0.883699,1.049146 -1.118156,1.249482 z M 36.884538,21.356758 c -0.01584,-0.108508 -6.96e-4,-0.155511 0.07408,-0.232485 0.14468,-0.148609 0.420333,-0.580083 0.601579,-0.941642 0.748374,-1.492884 0.753765,-3.263179 0.01455,-4.775747 -0.29326,-0.60006 -0.577093,-0.983484 -1.095296,-1.479644 -0.984086,-0.9422 -2.11511,-1.401487 -3.457071,-1.40386 -1.046142,-0.0021 -1.986277,0.277696 -2.853834,0.848574 -0.320606,0.210966 -1.010414,0.87643 -1.264384,1.219768 -0.92116,1.245281 -1.254369,2.940923 -0.880287,4.479714 0.151899,0.62484 0.378413,1.13931 0.757435,1.720323 0.27298,0.418462 0.942903,1.092995 1.365466,1.374878 0.629666,0.420032 1.42396,0.729277 2.137904,0.832352 0.71869,0.103762 1.648504,0.01211 2.372046,-0.233755 0.576591,-0.195948 1.234235,-0.58864 1.751428,-1.045819 0.226184,-0.199956 0.264986,-0.222271 0.353459,-0.203339 0.129211,0.02767 0.146866,0.005 0.122917,-0.159333 z"
     id="path8502-2"
     inkscape:connector-curvature="0" />
  <path
     style="fill:#fffaf3;fill-opacity:1;stroke-width:0.03637125"
     d="m 25.576434,22.196582 c 1.082536,1.602454 1.556017,3.357034 1.406978,5.21378 -0.02552,0.315897 -0.08677,0.762553 -0.136508,0.992551 l -0.0904,0.418161 0.403703,-0.01001 c 1.369795,-0.03419 2.877174,0.391423 4.086584,1.153841 2.166327,1.365674 3.540387,3.810837 3.604861,6.414917 0.05741,2.320038 -0.834682,4.457793 -2.503601,5.999278 -1.31161,1.211453 -2.929826,1.909792 -4.636609,2.000923 -0.207001,0.01104 -0.376032,0.02602 -0.375638,0.03333 3.44e-4,0.0074 0.05943,0.155906 0.131195,0.33027 0.450822,1.09531 0.637659,2.35543 0.535696,3.61304 -0.136544,1.683943 -0.739292,3.160284 -1.815441,4.446545 -1.749212,2.090736 -4.524782,3.081045 -7.164946,2.556417 C 17.974912,55.151496 16.885166,54.671707 16.048031,54.050107 15.426018,53.588253 15.253369,53.419832 14.665189,52.7012 14.05551,51.955988 13.835372,51.606549 13.52642,50.891744 l -0.151531,-0.350591 -0.497877,0.398849 c -0.5174,0.414528 -0.915305,0.671536 -1.428527,0.922695 C 9.7512393,52.693322 7.8193621,52.84479 6.0105661,52.289081 4.9780162,51.971823 3.9642808,51.389921 3.1311971,50.636243 2.713194,50.25808 2.0458193,49.441979 1.7463242,48.942671 0.84177863,47.434927 0.45400247,45.64459 0.6569428,43.913077 0.88393028,41.976461 1.8176097,40.171608 3.2159312,38.966421 l 0.3733956,-0.321818 -0.069476,-0.04839 C 2.6996399,38.02498 2.419559,37.766373 1.8015266,37.009591 1.2236337,36.30199 1.0581762,36.046171 0.73834433,35.365847 -0.51274106,32.704743 -0.15216463,29.47375 1.6548891,27.15293 c 1.3588473,-1.745162 3.3602221,-2.805361 5.5155688,-2.921754 1.589427,-0.08584 3.2252681,0.356785 4.5100891,1.220334 0.125082,0.08407 0.232594,0.148393 0.238919,0.142952 0.0063,-0.0057 0.03977,-0.161984 0.07435,-0.347847 0.128731,-0.692102 0.431688,-1.555758 0.775425,-2.210506 0.689874,-1.314097 1.956132,-2.564768 3.275811,-3.235522 2.781031,-1.413501 6.097439,-0.963175 8.417041,1.142937 0.285796,0.259489 0.940508,0.99567 1.11437,1.253043 z m -5.804376,12.357329 c -0.106624,0.0064 -0.150881,-0.01284 -0.219025,-0.09607 -0.131518,-0.160988 -0.525966,-0.480655 -0.860832,-0.697622 -1.382673,-0.895878 -3.099145,-1.05569 -4.630568,-0.4311 -0.607531,0.247776 -1.004143,0.504784 -1.530513,0.991791 -0.999578,0.924839 -1.543604,2.042113 -1.662863,3.415048 -0.09289,1.070307 0.09622,2.056644 0.574276,2.994113 0.176667,0.346441 0.761961,1.110286 1.072811,1.400075 1.127473,1.051103 2.742975,1.539837 4.267999,1.29118 0.619252,-0.100969 1.137956,-0.287919 1.734502,-0.625099 0.429639,-0.242852 1.142235,-0.869556 1.452454,-1.277374 0.462247,-0.607687 0.831406,-1.393487 0.993599,-2.115037 0.163274,-0.726352 0.15546,-1.68575 -0.02,-2.447536 -0.139777,-0.607078 -0.463337,-1.314219 -0.861657,-1.883283 -0.174221,-0.248865 -0.192478,-0.29052 -0.166407,-0.379394 0.03806,-0.129805 0.01742,-0.149871 -0.14382,-0.139662 z"
     id="path8502-2-7"
     inkscape:connector-curvature="0" />
</svg>
