<?xml version="1.0" encoding="UTF-8" standalone="no"?>
<svg
   xmlns:dc="http://purl.org/dc/elements/1.1/"
   xmlns:cc="http://creativecommons.org/ns#"
   xmlns:rdf="http://www.w3.org/1999/02/22-rdf-syntax-ns#"
   xmlns:svg="http://www.w3.org/2000/svg"
   xmlns="http://www.w3.org/2000/svg"
   xmlns:sodipodi="http://sodipodi.sourceforge.net/DTD/sodipodi-0.dtd"
   xmlns:inkscape="http://www.inkscape.org/namespaces/inkscape"
   viewBox="0 0 44.696998 48.120123"
   version="1.1"
   id="svg242"
   sodipodi:docname="Hofbräuhaus.svg"
   width="44.696999"
   height="48.120125"
   inkscape:version="0.92.4 (5da689c313, 2019-01-14)">
  <metadata
     id="metadata248">
    <rdf:RDF>
      <cc:Work
         rdf:about="">
        <dc:format>image/svg+xml</dc:format>
        <dc:type
           rdf:resource="http://purl.org/dc/dcmitype/StillImage" />
      </cc:Work>
    </rdf:RDF>
  </metadata>
  <defs
     id="defs246" />
  <sodipodi:namedview
     pagecolor="#ffffff"
     bordercolor="#666666"
     borderopacity="1"
     objecttolerance="10"
     gridtolerance="10"
     guidetolerance="10"
     inkscape:pageopacity="0"
     inkscape:pageshadow="2"
     inkscape:window-width="1920"
     inkscape:window-height="1017"
     id="namedview244"
     showgrid="false"
     inkscape:zoom="4.4125"
     inkscape:cx="6.7352652"
     inkscape:cy="11.873329"
     inkscape:window-x="-8"
     inkscape:window-y="-8"
     inkscape:window-maximized="1"
     inkscape:current-layer="g240" />
  <title
     id="title130">HofbräuhausColumbus_logo_white</title>
  <g
     id="g240"
     transform="translate(-201.2237,0.00164417)">
    <g
       id="g168" />
    <g
       id="g210" />
    <g
       id="g238">
      <path
         d="m 223.4737,48.1162 c -13.7429,0 -22.25,-12.5651 -22.25,-24.2065 0,-11.5466 8.9405,-23.91 22.25,-23.91 a 21.033,21.033 0 0 1 16.5678,7.7758 25.56,25.56 0 0 1 5.8792,16.1345 26.1126,26.1126 0 0 1 -5.8433,16.3925 20.9374,20.9374 0 0 1 -16.6037,7.814 z"
         id="path212"
         inkscape:connector-curvature="0"
         style="fill:#d0ac67" />
      <path
         d="m 205.1892,23.8623 c 0,-10.7759 5.149,-22.7268 18.3678,-22.7268 12.6348,0 18.4667,11.4622 18.4667,22.7268 0,13.8114 -6.5141,23.1184 -18.4667,23.1184 -10.8826,0 -18.3678,-8.7201 -18.3678,-23.1184 z"
         id="path214"
         inkscape:connector-curvature="0"
         style="fill:#ffffff" />
      <path
         d="m 206.2848,23.8737 c 0,-10.1345 4.8424,-21.374 17.2745,-21.374 11.8829,0 17.3682,10.78 17.3682,21.374 0,12.99 -6.127,21.7431 -17.3682,21.7431 -10.2346,0 -17.2745,-8.2011 -17.2745,-21.7431 z"
         id="path216"
         inkscape:connector-curvature="0"
         style="fill:#034ea2" />
      <path
         d="m 230.8875,31.0264 c 0.2438,-0.2453 2.9562,-0.2707 2.7244,-4.1055 -0.2,-3.3027 -4.3292,-3.0507 -4.3292,-3.0507 h -7.6845 v 0.98 h 1.022 v 5.7351 h -3.8919 V 24.85 h 1.02 v -0.98 h -5.6885 v 0.98 h 0.8758 v 13.333 h -0.8758 v 1.0775 H 219.75 V 38.183 h -1.0219 v -6.4213 h 3.8919 v 6.421 h -1.022 v 1.0784 h 7.733 c 0,0 4.5953,0.3377 4.8157,-4.0683 0.2056,-4.1302 -2.9667,-3.9213 -3.2592,-4.1664 z m -4.5718,-6.078 c 1.751,-0.1961 2.8985,0.19 3.33,1.036 a 3.9388,3.9388 0 0 1 0.35,1.6964 A 4.419,4.419 0 0 1 229.7,29.36 c -0.6274,1.4886 -3.1491,1.2537 -3.3843,1.2248 z m 3.8422,12.0091 c -0.7936,1.6648 -3.8422,1.2743 -3.8422,1.2743 v -6.47 c 2.2374,0 3.4049,0.0488 3.9883,1.2248 a 5.3037,5.3037 0 0 1 -0.1461,3.9709 z"
         id="path218"
         inkscape:connector-curvature="0"
         style="fill:#ffffff" />
      <g
         id="g236">
        <path
           d="m 228.7672,17.8232 a 8.0847,8.0847 0 0 1 1.7189,0.7528 c -0.1135,0.4878 -0.2089,0.9648 -0.2923,1.5494 -1.0567,-0.5044 -2.8813,-1.07 -6.4935,-1.07 -3.4825,0 -5.4259,0.5658 -6.4027,1.1067 a 6.208,6.208 0 0 0 -0.4442,-1.5748 11.7474,11.7474 0 0 1 1.8424,-0.751 16.9836,16.9836 0 0 1 10.0714,-0.0131 z"
           id="path220"
           inkscape:connector-curvature="0"
           style="fill:#d0ac67" />
        <path
           d="m 223.6278,17.3928 a 7.5465,7.5465 0 0 1 -1.4107,0.588 8.8735,8.8735 0 0 0 1.4632,0.6268 8.8865,8.8865 0 0 0 1.5032,-0.5932 c -0.4486,-0.1378 -1.059,-0.4136 -1.5557,-0.6216 z"
           id="path222"
           inkscape:connector-curvature="0"
           style="fill:#ed1c24" />
        <path
           d="m 226.294,18.1732 c -0.1062,0.3817 0.403,0.6962 0.9431,0.7892 0.4847,0.084 1.1081,-0.0422 1.1081,-0.3933 0,-0.31 -0.5,-0.6414 -0.9265,-0.7139 -0.6354,-0.1071 -1.0562,0.0708 -1.1247,0.318 z"
           id="path224"
           inkscape:connector-curvature="0"
           style="fill:#ed1c24" />
        <path
           d="m 221.2409,18.1732 c 0.1056,0.3817 -0.4031,0.6962 -0.9438,0.7892 -0.4847,0.084 -1.1081,-0.0422 -1.1081,-0.3933 0,-0.31 0.5,-0.6414 0.9266,-0.7139 0.6354,-0.1071 1.0568,0.0708 1.1253,0.318 z"
           id="path226"
           inkscape:connector-curvature="0"
           style="fill:#ed1c24" />
        <path
           d="m 217.257,18.7655 a 7.2786,7.2786 0 0 1 0.2535,1.0291 9.7055,9.7055 0 0 0 0.8644,-1.0291 z"
           id="path228"
           inkscape:connector-curvature="0"
           style="fill:#ed1c24" />
        <path
           d="m 229.0446,18.7652 c 0.13,0.1778 0.825,0.8906 0.8975,1.0294 a 5.9235,5.9235 0 0 1 0.2221,-1.0294 z"
           id="path230"
           inkscape:connector-curvature="0"
           style="fill:#ed1c24" />
        <path
           d="m 223.8,19.5408 c -3.4877,0 -6.3154,0.5763 -6.3154,1.2871 0,0.7108 2.8274,1.2871 6.3154,1.2871 3.488,0 6.3154,-0.5763 6.3154,-1.2871 0,-0.7108 -2.8275,-1.2871 -6.3154,-1.2871 z m 0.0805,2.0113 c -2.7769,0 -5.028,-0.3243 -5.028,-0.7242 0,-0.3999 2.2511,-0.7236 5.028,-0.7236 2.7769,0 5.0285,0.324 5.0285,0.7236 0,0.3996 -2.2519,0.7242 -5.029,0.7242 z"
           id="path232"
           inkscape:connector-curvature="0"
           style="fill:#d0ac67;fill-rule:evenodd" />
        <path
           d="m 232.2834,9.9957 a 3.68,3.68 0 0 0 -2.1871,0.5838 1.8931,1.8931 0 0 0 -1.9452,-1.2177 2.9464,2.9464 0 0 0 -2.5291,1.0216 C 225.61,9.766 224.6943,9.4303 224.2113,9.3141 v -0.058 a 0.0246,0.0246 0 0 0 0.0131,-0.0108 1.8108,1.8108 0 0 0 1.2326,-1.7159 1.7451,1.7451 0 0 0 -1.6351,-1.8129 v -0.823 h 0.9729 V 4.5019 h -0.9729 V 3.6193 h -0.34 v 0.8826 h -0.9454 v 0.3939 l 0.9454,-0.002 v 0.8227 a 1.7261,1.7261 0 0 0 -1.6448,1.8129 1.8109,1.8109 0 0 0 1.2468,1.721 l 0.009,0.0057 c -0.006,0.02 -0.0137,0.048 -0.0194,0.068 -0.48,0.12 -1.4547,0.4013 -1.4947,1.0453 0,0 -0.5366,-1.071 -2.4268,-1.0108 a 3.46,3.46 0 0 0 -2.2283,0.9655 3.8385,3.8385 0 0 0 -1.66,-0.5279 2.393,2.393 0 0 0 -2.0028,0.9748 2.3482,2.3482 0 0 0 -0.3779,1.2789 c -0.0308,1.9559 1.9525,3.1351 2.9721,4.6167 a 6.2689,6.2689 0 0 1 0.7953,1.3478 15.9711,15.9711 0 0 1 3.2034,-1.0952 17.6074,17.6074 0 0 1 7.9031,0.01 9.8336,9.8336 0 0 1 2.8962,1.0627 c 0,0 0.27,-0.6083 0.3934,-0.8107 0.9608,-1.6005 2.9749,-2.7509 3.26,-4.6948 a 2.1681,2.1681 0 0 0 -2.0227,-2.4907 z m -12.9591,6.0554 a 0.3946,0.3946 0 0 1 -0.3631,0.13 c -1.2839,-0.15 -0.09,-2.0624 -1.4558,-1.884 a 0.67,0.67 0 0 0 -0.5424,0.3982 c -0.4224,0.9251 1.477,1.3076 1.1681,1.717 a 0.57,0.57 0 0 1 -0.612,0.1425 c -0.6628,-0.23 -2.1078,-2.4216 -2.287,-3.04 a 1.9531,1.9531 0 0 1 -0.0355,-1.2578 1.1653,1.1653 0 0 1 0.92,-0.7048 0.9186,0.9186 0 0 1 0.9255,0.3058 4.475,4.475 0 0 1 0.4813,0.7636 q 0.5558,0.91 1.1127,1.8183 a 6.42,6.42 0 0 1 0.7227,1.1045 0.5644,0.5644 0 0 1 -0.0345,0.5067 z m 1.0642,-5.4 a 1.3856,1.3856 0 0 1 1.1961,0.5657 12.1954,12.1954 0 0 1 -2.14,0.0486 c 2e-4,-0.2777 0.4754,-0.6145 0.9439,-0.6145 z m 2.3573,4.9635 c -0.3386,0.1652 -0.712,-0.0283 -0.6429,-0.4074 a 3.1335,3.1335 0 0 1 0.1382,-0.421 0.827,0.827 0 0 0 -0.3163,-1.0722 0.7,0.7 0 0 0 -0.6228,0.0211 0.7262,0.7262 0 0 0 -0.34,0.426 c -0.1873,0.6154 0.4259,0.7487 0.5424,1.2314 0.0719,0.2971 -0.09,0.3879 -0.2935,0.3648 -0.7056,-0.0811 -1.5546,-2.8951 -1.6688,-3.609 a 6.49,6.49 0 0 0 2.3619,-0.1653 c 0.5015,0.2416 1.5103,3.3057 0.8418,3.6314 z m 3.3421,0.1427 c -0.2032,0.0231 -0.3654,-0.0677 -0.294,-0.3648 0.117,-0.4827 0.7307,-0.616 0.5429,-1.2314 a 0.7309,0.7309 0 0 0 -0.34,-0.426 0.7015,0.7015 0 0 0 -0.6235,-0.0211 0.8276,0.8276 0 0 0 -0.3163,1.0722 3.1219,3.1219 0 0 1 0.1387,0.421 c 0.0691,0.3791 -0.3048,0.5726 -0.6428,0.4074 -0.6685,-0.3257 0.34,-3.39 0.8415,-3.6316 a 6.4913,6.4913 0 0 0 2.3619,0.1653 c -0.1144,0.7137 -0.9628,3.5277 -1.6684,3.6088 z m -0.3739,-4.54 a 1.3847,1.3847 0 0 1 1.1954,-0.5657 c 0.4682,0 0.9443,0.3368 0.9443,0.6143 a 12.1937,12.1937 0 0 1 -2.1397,-0.0493 z m 6.353,2.298 c -0.18,0.6185 -1.6253,2.81 -2.2876,3.04 a 0.5708,0.5708 0 0 1 -0.6126,-0.1425 c -0.3083,-0.4094 1.5917,-0.7919 1.1686,-1.717 a 0.6708,0.6708 0 0 0 -0.5423,-0.3982 c -1.3656,-0.1784 -0.1718,1.7339 -1.4564,1.884 a 0.3935,0.3935 0 0 1 -0.3625,-0.13 0.5626,0.5626 0 0 1 -0.0349,-0.5069 6.4265,6.4265 0 0 1 0.7228,-1.1045 q 0.5566,-0.91 1.1127,-1.8183 a 4.4429,4.4429 0 0 1 0.4819,-0.7636 0.9171,0.9171 0 0 1 0.9248,-0.3058 1.1643,1.1643 0 0 1 0.92,0.7048 1.9486,1.9486 0 0 1 -0.0345,1.2573 z"
           id="path234"
           inkscape:connector-curvature="0"
           style="fill:#d0ac67" />
      </g>
    </g>
  </g>
</svg>
