<?xml version="1.0" encoding="UTF-8" standalone="no"?>
<!-- Created with Inkscape (http://www.inkscape.org/) -->

<svg
   xmlns:dc="http://purl.org/dc/elements/1.1/"
   xmlns:cc="http://creativecommons.org/ns#"
   xmlns:rdf="http://www.w3.org/1999/02/22-rdf-syntax-ns#"
   xmlns:svg="http://www.w3.org/2000/svg"
   xmlns="http://www.w3.org/2000/svg"
   xmlns:sodipodi="http://sodipodi.sourceforge.net/DTD/sodipodi-0.dtd"
   xmlns:inkscape="http://www.inkscape.org/namespaces/inkscape"
   version="1.1"
   id="svg5123"
   width="840"
   height="298.66666"
   viewBox="0 0 840 298.66666"
   sodipodi:docname="How_We_Became_Us.svg"
   inkscape:version="0.92.4 (5da689c313, 2019-01-14)">
  <metadata
     id="metadata5129">
    <rdf:RDF>
      <cc:Work
         rdf:about="">
        <dc:format>image/svg+xml</dc:format>
        <dc:type
           rdf:resource="http://purl.org/dc/dcmitype/StillImage" />
        <dc:title></dc:title>
      </cc:Work>
    </rdf:RDF>
  </metadata>
  <defs
     id="defs5127" />
  <sodipodi:namedview
     pagecolor="#ffffff"
     bordercolor="#666666"
     borderopacity="1"
     objecttolerance="10"
     gridtolerance="10"
     guidetolerance="10"
     inkscape:pageopacity="0"
     inkscape:pageshadow="2"
     inkscape:window-width="1920"
     inkscape:window-height="1017"
     id="namedview5125"
     showgrid="false"
     inkscape:zoom="2.1011905"
     inkscape:cx="420"
     inkscape:cy="149.33333"
     inkscape:window-x="-8"
     inkscape:window-y="-8"
     inkscape:window-maximized="1"
     inkscape:current-layer="svg5123" />
  <path
     style="fill:#fffaf3;stroke-width:0.66666669;fill-opacity:1"
     d="m 185.66667,274.09265 c -8.02011,-2.12545 -11.9125,-7.39463 -10.40822,-14.08972 1.39618,-6.21394 6.08114,-10.28077 11.39262,-9.88947 3.58532,0.26413 4.91565,2.08157 3.96077,5.41103 -0.65095,2.26975 -3.72555,5.80884 -5.04645,5.80884 -1.36268,0 -2.32292,2.49312 -2.10248,5.45882 0.28994,3.90062 2.52976,5.42184 8.47798,5.75794 9.86258,0.55729 20.27994,-4.71376 33.2629,-16.8306 2.3884,-2.22906 10.84784,-11.10283 18.79876,-19.7195 7.95092,-8.61666 16.53036,-17.61666 19.06543,-19.99999 10.88075,-10.22949 21.96453,-18.54895 28.79013,-21.6098 1.56556,-0.70206 2.73981,-1.60206 2.60945,-2 -0.44075,-1.34544 -4.66139,-3.72965 -9.07619,-5.12706 -5.5276,-1.74964 -16.15705,-1.90191 -23.28312,-0.33353 -19.7163,4.33937 -38.76353,16.2773 -48.82118,30.59888 -11.43923,16.28886 -9.94462,31.76154 2.92086,30.23782 11.94792,-1.41506 23.48862,-13.65859 27.94152,-29.64318 0.92393,-3.31663 1.8638,-5.44834 2.40352,-5.45141 1.07219,-0.006 0.68947,2.18948 -1.57914,9.05919 -3.5798,10.84018 -12.0553,20.98227 -21.13954,25.29636 -8.87432,4.2144 -18.72772,4.60892 -23.85877,0.9553 -4.41229,-3.14184 -5.78949,-9.8118 -3.58477,-17.36158 5.70686,-19.54234 34.06418,-39.36248 64.80478,-45.2948 12.78659,-2.46756 26.82137,-1.56677 37.35331,2.39744 l 4.29867,1.61802 7.40958,-2.39928 c 6.48604,-2.10023 15.35588,-3.79943 14.40958,-2.76047 -0.18334,0.20129 -2.28334,0.86792 -4.66667,1.4814 -4.33276,1.11528 -14,4.86257 -14,5.42678 0,0.16445 0.62546,0.96146 1.38991,1.77112 5.3244,5.63937 4.74696,14.73587 -1.42281,22.41332 -4.38716,5.45924 -14.28919,10.80756 -23.63377,12.76517 -5.36308,1.12352 -5.7667,1.68682 -1.6043,2.23898 8.93134,1.18479 12.28114,5.56286 10.24312,13.38737 -1.3954,5.35732 -3.97004,9.87361 -8.30442,14.56719 -9.35086,10.1258 -21.96044,15.90376 -35.00106,16.03823 -7.07294,0.0729 -9.93293,-1.15213 -11.86956,-5.08426 -2.14016,-4.34535 0.36988,-9.88487 5.71445,-12.61147 3.03925,-1.5505 7.27709,-1.40614 8.98946,0.30624 0.86788,0.86787 0.65428,1.28234 -1.80667,3.50566 -2.95412,2.66887 -5.36102,6.66632 -5.36102,8.90377 0,3.75301 6.96531,4.35766 13.45008,1.16759 10.76992,-5.29806 21.7877,-20.04916 22.42262,-30.02039 0.23604,-3.70687 0.0766,-4.39661 -1.4307,-6.18789 -1.77718,-2.11206 -5.48148,-3.58405 -9.01934,-3.58405 -2.57655,0 -2.75912,-1.18087 -0.25599,-1.65573 6.25935,-1.18745 11.02469,-2.61876 14.7184,-4.42077 9.14991,-4.46387 16.47455,-14.61204 16.42489,-22.75639 -0.0155,-2.54186 -0.37027,-4.1798 -1.05328,-4.86281 -0.92878,-0.92878 -1.44688,-0.72297 -5.27589,2.09579 -5.54875,4.08475 -12.64271,11.22179 -29.75259,29.93324 -15.89644,17.38442 -22.98587,24.3039 -31.38184,30.62954 -7.17233,5.40374 -18.70896,11.23579 -25.84636,13.06598 -5.73938,1.47172 -17.40856,2.26059 -20.66666,1.39714 z m 111.62773,-0.0581 c -5.26248,-1.59685 -6.94841,-4.31368 -6.45916,-10.40876 0.43643,-5.43703 3.39985,-10.97585 8.74191,-16.33921 11.84374,-11.89095 27.7668,-19.95516 39.39625,-19.95218 5.55863,0.001 8.62085,1.57516 8.90807,4.57802 0.69714,7.28852 -8.29322,13.74185 -25.59477,18.37206 -4.74102,1.26878 -10.3717,2.65064 -12.51263,3.07079 -3.66156,0.71857 -3.96735,0.92853 -5.15202,3.53767 -0.69269,1.52557 -1.26602,4.18204 -1.27408,5.90326 -0.0499,10.67662 14.01736,9.30877 32.78946,-3.18832 4.3367,-2.88707 7.7043,-5.75873 9.9513,-8.48582 11.73626,-14.24383 30.94412,-24.44051 44.5552,-23.65258 8.13784,0.4711 10.60274,3.07386 8.39232,8.86174 -1.9679,5.15288 -8.54924,9.35164 -13.92288,8.88252 l -2.44795,-0.2137 2.66974,-4 c 3.10858,-4.65752 4.99351,-9.18192 4.4334,-10.64153 -0.70355,-1.83344 -5.24096,-1.24965 -10.14184,1.30487 -9.61503,5.0117 -19.10564,14.61177 -23.69476,23.96806 -2.77963,5.66708 -3.01569,6.97323 -1.85968,10.28937 1.30093,3.73187 5.77325,4.92715 12.57295,3.36027 7.85174,-1.8093 25.67652,-12.45434 29.08136,-17.36752 2.59528,-3.74498 11.03016,-11.48382 16.65001,-15.27605 8.38893,-5.66081 17.80038,-9.30415 24.03433,-9.30415 4.97354,0 6.78404,0.87868 8.16474,3.96258 l 1.18158,2.63914 2.02515,-2.02515 c 1.93149,-1.93149 2.34562,-2.04218 8.95471,-2.3935 l 6.92956,-0.36835 -15.0138,15.2593 c -8.25758,8.39262 -16.29628,17.18901 -17.86376,19.54753 -6.51288,9.79959 -0.36429,9.66944 14.62535,-0.30957 5.52359,-3.6772 8.46967,-6.47088 20.68004,-19.6102 l 14.23883,-15.32211 4.40696,-0.0232 c 2.42382,-0.0127 5.87382,-0.19769 7.66666,-0.41099 l 3.25972,-0.38779 -7.66667,7.4244 c -7.62535,7.38442 -7.63869,7.40276 -2.47484,3.40254 9.71978,-7.52953 17.66622,-11.38466 23.46677,-11.38466 8.17916,0 9.16786,5.10825 2.69146,13.90581 l -2.96712,4.03055 6.14186,-4.92792 c 6.78223,-5.4417 14.82593,-10.48569 19.16048,-12.01501 1.54863,-0.54639 4.29161,-0.99343 6.09551,-0.99343 4.09234,0 6.56059,2.06497 6.53791,5.4697 -0.0315,4.72577 -2.30278,7.77966 -15.26905,20.5303 -12.27032,12.06625 -15.17599,15.80699 -13.54511,17.43786 0.38741,0.38742 1.57305,0.50461 2.66923,0.26385 5.26115,-1.15554 23.26242,-13.60637 26.29305,-18.18595 2.10647,-3.18311 7.69309,-8.74122 12.53318,-12.46924 13.35399,-10.28575 30.47524,-15.63786 38,-11.87882 1.8725,0.93542 2.37576,1.60916 2.54814,3.41135 0.69714,7.28852 -8.29322,13.74185 -25.59477,18.37206 -4.74102,1.26878 -10.3717,2.65063 -12.51263,3.07079 -3.66156,0.71856 -3.96735,0.92853 -5.15202,3.53766 -3.032,6.67766 -0.9365,12.2682 4.84264,12.9196 9.88076,1.1137 24.67426,-7.01181 46.73622,-25.67045 6.6864,-5.65494 8.85576,-5.89665 2.79909,-0.31187 -10.26499,9.4652 -24.81627,20.04519 -33.66667,24.47844 -8.41952,4.21743 -19.33482,6.85942 -25.38096,6.14334 -7.21379,-0.85436 -9.69072,-3.92756 -9.07593,-11.26078 l 0.38095,-4.544 -3.79536,2.91777 c -10.92253,8.39695 -17.90927,11.89261 -24.01678,12.01626 -3.88797,0.0787 -4.35402,-0.0684 -5.90017,-1.86275 -1.42321,-1.65164 -1.61259,-2.36202 -1.24414,-4.66667 0.7411,-4.63551 3.17491,-7.69797 16.02762,-20.16749 11.09189,-10.7612 12.41727,-12.27681 12.22285,-13.97716 -0.84843,-7.41994 -20.17292,6.0039 -45.12746,31.34798 l -7.57605,7.69432 -6.59061,0.45392 c -3.80909,0.26234 -6.59062,0.20004 -6.59062,-0.14764 0,-0.33085 6.01618,-6.59874 13.36928,-13.92864 17.98785,-17.93106 22.66659,-23.72057 21.54069,-26.65462 -0.2255,-0.58764 -1.21828,-1.00579 -2.38798,-1.00579 -5.85329,0 -23.15112,13.32289 -42.60657,32.8158 l -8.46617,8.48247 -6.55796,0.43944 -6.55796,0.43943 1.70001,-1.9219 c 3.52919,-3.98985 3.37318,-4.21129 -1.11113,-1.57721 -8.69007,5.10454 -17.04707,6.55893 -20.37619,3.54612 -1.08605,-0.98286 -1.29312,-1.81921 -1.05752,-4.27122 l 0.29298,-3.04905 -3.39074,2.30679 c -6.68056,4.5449 -11.50913,6.37654 -16.91968,6.41818 -4.57842,0.0353 -5.02342,-0.0897 -6.52561,-1.83269 -1.92533,-2.23392 -2.19819,-7.30075 -0.63219,-11.73929 1.0567,-2.99498 0.95911,-3.00739 -2.6466,-0.33658 -5.65346,4.18762 -17.3835,10.1876 -23.77838,12.16278 -16.47286,5.08795 -25.73284,0.65247 -23.03328,-11.0328 l 0.89308,-3.86582 -6.30272,4.21408 c -3.4665,2.31774 -8.28482,5.20406 -10.70738,6.41405 -9.9818,4.98559 -22.32112,7.51193 -28.11025,5.75527 z m 113.03893,-5.60221 c 9.29513,-4.33521 25.16172,-20.81173 29.94776,-31.09898 2.81789,-6.05684 2.14508,-8 -2.76992,-8 -5.39963,0 -13.9817,5.66179 -22.54994,14.87672 C 406.63072,253.16931 402,261.05571 402,266.28381 c 0,4.05107 2.73961,4.7574 8.33333,2.1485 z m -93.13272,-19.3391 c 11.50837,-4.85866 21.46606,-13.39102 21.46606,-18.39344 0,-1.94039 -3.79805,-1.82966 -7.8555,0.22903 -6.49323,3.29456 -17.94814,13.21449 -22.32492,19.33332 l -1.37966,1.9288 2.48064,-0.46537 c 1.36436,-0.25596 4.79037,-1.44051 7.61338,-2.63234 z m 252,0 c 11.50837,-4.85866 21.46606,-13.39102 21.46606,-18.39344 0,-1.94039 -3.79805,-1.82966 -7.8555,0.22903 -6.49323,3.29456 -17.94814,13.21449 -22.32492,19.33332 l -1.37966,1.9288 2.48064,-0.46537 c 1.36436,-0.25596 4.79037,-1.44051 7.61338,-2.63234 z m 156.84986,24.28146 c -3.9602,-1.36724 -5.74354,-3.19628 -6.36947,-6.5328 -0.22447,-1.19636 -0.51607,-2.17521 -0.648,-2.17521 -0.132,0 -2.43513,1.35342 -5.11813,3.0076 -5.85147,3.60765 -10.69674,5.50425 -15.50574,6.06945 -12.017,1.41237 -13.79593,-7.39758 -3.94806,-19.55214 1.71926,-2.12204 2.69393,-3.52842 2.1658,-3.12529 -0.52814,0.40313 -2.9102,2.24093 -5.29354,4.08402 -15.6994,12.14067 -32.61967,19.80791 -40.95443,18.55804 -3.69275,-0.55376 -4.71463,-1.78012 -4.70306,-5.64414 0.0204,-6.80455 5.2583,-13.39609 33.51056,-42.17069 24.64887,-25.10453 30.14693,-31.76309 30.14693,-36.50995 0,-7.01502 -16.29946,-4.32168 -31,5.12245 -7.0178,4.50849 -16.32916,14.15842 -18.90198,19.5893 -3.9085,8.25033 -2.50582,12.33068 4.04762,11.7744 4.3051,-0.36544 7.56643,-1.87011 13.05636,-6.02381 3.98494,-3.01503 5.8472,-3.91219 5.35354,-2.57911 -0.4688,1.26616 -6.6758,5.85091 -11.3092,8.35353 -4.13416,2.23294 -5.58825,2.65855 -9.94436,2.91073 -4.89156,0.28316 -5.19242,0.2147 -7.28914,-1.65872 -1.93829,-1.73186 -2.17948,-2.328 -2.12098,-5.24237 0.15058,-7.50182 7.67558,-17.68488 18.44674,-24.96274 15.73054,-10.62876 36.9512,-16.56391 45.44094,-12.70926 3.60773,1.63803 4.4792,3.34228 4.01406,7.8495 -0.70793,6.85866 -5.29926,12.43006 -32.84766,39.8592 -20.33682,20.24876 -26.01143,26.53349 -28.63834,31.71745 -1.92995,3.80858 -1.7046,5.74051 0.74122,6.35437 2.49426,0.62602 5.55719,-0.18051 11.38105,-2.99688 10.08333,-4.87617 23.63367,-14.56726 35.63573,-25.48633 3.15274,-2.86828 16.3308,-16.3241 29.28447,-29.90182 l 23.5522,-24.68679 h 6.92413 6.92414 l -31.66867,32.35098 c -32.09527,32.78675 -38.45233,39.80207 -41.47813,45.77326 -2.09534,4.13485 -1.93107,6.13283 0.5274,6.41661 4.2116,0.48615 19.8506,-7.9378 21.3108,-11.47905 1.18673,-2.87823 5.80553,-7.74912 8.37,-8.82688 1.17986,-0.49587 3.1342,-0.90159 4.343,-0.90159 2.9728,0 10.15393,-5.71104 10.7162,-8.52246 0.51886,-2.59426 4.2096,-7.33785 7.4816,-9.61595 8.31133,-5.78659 23.14453,-6.01263 26.04846,-0.39696 1.78527,3.45227 -0.38826,8.86663 -4.73773,11.80185 -2.48807,1.67907 -8.52053,2.71018 -9.22133,1.57618 -0.2188,-0.35401 0.3718,-1.66344 1.3124,-2.90982 2.131,-2.82364 4.24546,-7.56582 4.24546,-9.52144 0,-2.21454 -1.27506,-3.07806 -4.54506,-3.07806 -2.51747,0 -3.31034,0.36518 -5.46014,2.51503 -2.27686,2.27683 -3.98113,6.0638 -3.99106,8.8682 0,0.57744 0.74626,3.25499 1.66293,5.9501 3.09867,9.11037 1.90607,14.3915 -4.65013,20.59204 -1.98187,1.87438 -3.49114,3.40796 -3.35394,3.40796 0.96507,0 9.60394,-4.15304 14.01994,-6.73993 6.60453,-3.86889 13.06473,-8.80442 22.8404,-17.44992 4.1376,-3.65926 7.7376,-6.43098 8,-6.15938 1.1716,1.21266 -20.27834,19.19243 -29.53734,24.7588 -13.71853,8.24739 -28.8882,11.5369 -38.26846,8.29844 z m 13.4846,-3.23264 c 1.90573,-1.0709 4.3118,-3.1412 5.34686,-4.60068 2.7808,-3.921 2.96427,-7.08588 0.79247,-13.67277 -1.0038,-3.04439 -1.92207,-5.64115 -2.0406,-5.77058 -0.11853,-0.12943 -1.58467,0.90909 -3.258,2.30784 -2.4966,2.08686 -3.04247,2.94244 -3.04247,4.76843 0,4.60651 -2.9178,7.49239 -7.57526,7.49239 -1.83754,0 -2.40754,0.40621 -3.63534,2.59077 -2.24166,3.98858 -1.68266,7.4422 1.42087,8.77794 2.55727,1.10064 8.26807,0.19895 11.99147,-1.89334 z M 130.98384,124.44432 c -7.78667,-3.55336 -2.49708,-20.36042 12.46654,-39.610989 l 3.23878,-4.166666 h -8.89293 -8.89293 l -4.91087,5.720586 c -15.76772,18.367529 -35.256637,32.254869 -50.868537,36.247729 -14.24487,3.64322 -26.63995,1.8001 -30.954961,-4.60295 -2.601586,-3.86049 -1.449363,-9.99894 2.739635,-14.59537 4.420488,-4.850442 11.763453,-4.465769 11.755608,0.61583 -0.0038,2.47905 -2.444113,5.92359 -4.933423,6.96369 -1.740785,0.72735 -2.335177,1.44302 -2.666845,3.21096 -0.936163,4.99018 1.830777,7.93319 7.80716,8.30396 7.969246,0.49442 17.227253,-2.85912 25.917566,-9.38814 10.961634,-8.23546 16.095267,-13.390429 37.303017,-37.458088 15.86761,-18.007398 30.61988,-28.376246 50.39758,-35.422673 3.76426,-1.341135 6.8441,-2.581564 6.8441,-2.75651 0,-0.800072 -24.29795,1.229449 -34.33333,2.867742 -32.76639,5.349169 -53.588053,18.370723 -54.846867,34.300401 -0.26168,3.311493 -0.110206,3.853946 1.535854,5.5 1.599566,1.599566 2.341473,1.826166 5.97902,1.826166 10.577903,0 21.910883,-10.36524 23.514243,-21.506341 0.6111,-4.24634 1.8725,-4.049985 1.6795,0.26144 -0.19954,4.45763 -3.20367,10.301641 -7.54173,14.671155 -6.18657,6.23142 -15.14586,9.907079 -24.148167,9.907079 -5.571666,0 -8.705633,-1.22748 -10.53576,-4.126546 -1.16806,-1.850307 -1.339106,-2.92318 -1.058846,-6.641627 1.358126,-18.019532 24.705663,-31.540389 63.756083,-36.921951 7.49176,-1.032442 53.24384,-3.288264 53.87574,-2.656362 0.20803,0.208029 -0.0682,0.824675 -0.61386,1.370326 -0.70136,0.701364 -2.83874,1.05626 -7.29365,1.211063 -5.31353,0.18464 -7.11587,0.56075 -11.49517,2.398798 -11.07803,4.64959 -21.96733,13.298962 -35.80618,28.440853 -4.76678,5.21562 -8.66688,9.657507 -8.66688,9.87086 0,0.21336 3.80071,0.38792 8.44602,0.38792 h 8.446 l 6.8281,-6.944913 c 21.38228,-21.748088 46.82003,-35.055086 67.01154,-35.055086 6.6856,0 9.9055,0.984412 11.58024,3.54039 2.74908,4.19562 -2.63245,10.383937 -7.64629,8.792606 -0.84677,-0.268755 -2.10125,-2.058225 -3.30683,-4.717076 -2.27046,-5.007389 -3.43378,-5.664382 -8.74318,-4.937762 -10.56832,1.446334 -26.41159,11.698472 -41.6464,26.949275 -17.04466,17.062552 -31.32012,38.457221 -32.1644,48.204881 -0.36652,4.23157 0.48351,5.50102 3.68352,5.50102 5.0349,0 20.08838,-10.35784 24.2643,-16.69554 5.18682,-7.871909 16.76954,-17.058302 27.08533,-21.481708 9.65381,-4.139547 19.39487,-5.094274 23.56347,-2.309467 3.33191,2.225867 4.75194,5.38598 4.35124,9.683233 -0.55785,5.98252 1.16019,8.80348 5.36156,8.80348 1.50994,0 3.61004,-1.73818 10.94328,-9.05738 l 9.07474,-9.05738 6.93388,-0.345173 6.93388,-0.345167 -13.3838,13.23588 c -13.01356,12.869742 -18.65076,19.605892 -20.15823,24.088002 -1.32771,3.94762 0.62381,5.53507 5.0525,4.1099 6.55096,-2.10813 15.66453,-10.0984 37.48505,-32.864789 l 7.57444,-7.902773 6.54835,-0.360833 C 289.05324,79.301825 292,79.353052 292,79.614118 c 0,0.261067 -5.95109,6.379693 -13.22463,13.59694 -13.42989,13.325942 -19.7254,21.067782 -20.50314,25.213542 -0.87851,4.68284 2.72314,5.50474 9.68663,2.21048 6.34101,-2.99977 11.64011,-7.04984 18.46051,-14.10924 7.94516,-8.223582 12.49788,-14.989369 12.36371,-18.373709 -0.2286,-5.76658 3.1785,-10.152133 7.88712,-10.152133 1.44556,0 3.02577,0.457874 3.61551,1.04762 1.55341,1.5534 1.28454,5.799453 -0.67785,10.70464 -0.94901,2.372147 -1.55323,4.76186 -1.34271,5.310473 0.45577,1.187694 4.38386,2.937267 6.59468,2.937267 2.87394,0 7.4296,-1.9889 11.43611,-4.992747 4.71787,-3.537186 5.9156,-3.286873 1.80278,0.376754 -6.36709,5.671706 -14.18467,7.662855 -19.43199,4.949359 l -2.30207,-1.190446 -1.99014,2.595206 c -3.06979,4.003106 -10.97026,11.491066 -15.04119,14.255836 -9.64208,6.54843 -19.65286,10.16077 -28.45021,10.26612 -5.24553,0.0628 -6.38435,-0.12635 -7.99451,-1.32793 -2.48898,-1.8574 -3.29137,-4.82042 -2.38179,-8.7953 0.39455,-1.72419 0.64518,-3.20707 0.55695,-3.29531 -0.0882,-0.0882 -1.78867,1.23599 -3.77876,2.9427 -8.35845,7.16823 -15.26792,10.44317 -22.17595,10.51092 -3.31016,0.0325 -4.08137,-0.19675 -5.16667,-1.53568 -3.0158,-3.72058 -1.02164,-10.67162 5.31889,-18.54016 l 3.29681,-4.0913 -2.35146,-0.441142 c -1.29331,-0.242627 -3.07186,-1.218447 -3.95234,-2.1685 -0.88047,-0.950047 -1.69927,-1.60534 -1.81954,-1.456207 -0.12028,0.14914 -1.1776,1.690193 -2.34962,3.424567 C 210.82556,110.22959 197.42496,120.05436 185,123.7434 c -5.49675,1.63201 -14.74945,1.67544 -17.1853,0.0806 -3.62995,-2.37657 -4.73298,-5.85244 -3.59997,-11.34424 l 0.51993,-2.52019 -3.86733,2.92177 c -13.2741,10.02859 -24.08182,14.21046 -29.88349,11.56294 z m 51.60501,-3.27766 c 5.59048,-3.00197 11.71222,-8.26145 17.53543,-15.06553 10.32767,-12.067265 15.21847,-20.785305 13.80463,-24.607278 -0.44576,-1.205014 -1.06631,-1.493854 -3.20939,-1.493854 -3.21337,0 -5.15509,0.79744 -10.38619,4.26546 -10.99748,7.290927 -27.66666,28.706302 -27.66666,35.544162 0,4.15154 3.76033,4.66583 9.92218,1.35704 z m 220.4932,3.63276 c -0.19993,-0.32348 0.70247,-1.61069 2.00533,-2.86046 6.10841,-5.85949 15.38998,-18.25035 23.92439,-31.938962 2.85756,-4.583333 6.69008,-10.720733 8.5167,-13.63866 l 3.32114,-5.305333 -3.48168,2.972 c -12.81379,10.93796 -33.76637,26.698105 -54.0346,40.643835 -11.32206,7.79024 -16.3832,10.50208 -18.25768,9.78276 -2.07549,-0.79643 -1.0351,-2.41652 3.42435,-5.33238 2.475,-1.6183 5.30889,-3.80783 6.29754,-4.86562 2.11249,-2.26025 13.20057,-19.012949 21.0609,-31.820369 10.39927,-16.944316 20.45381,-29.055667 30.24819,-36.435955 2.91982,-2.200152 5.12405,-4.000277 4.8983,-4.000277 -0.96292,0 -13.31499,3.602653 -21.00493,6.126376 -11.27111,3.699007 -18.73996,7.234226 -24.329,11.5156 -6.74593,5.16758 -10.33767,10.61019 -10.33767,15.664797 0,3.7321 1.74098,5.359893 5.73258,5.359893 5.9899,0 10.80884,-3.862807 14.73871,-11.814347 1.31898,-2.668777 2.7951,-4.852319 3.28026,-4.852319 1.02836,0 0.60299,1.362402 -2.07591,6.648953 -3.90944,7.714926 -11.14565,12.684379 -18.4702,12.684379 -7.21718,0 -10.53877,-2.541466 -10.53877,-8.063593 0,-4.522393 2.28795,-9.018751 6.93824,-13.635278 6.9536,-6.903107 15.73401,-10.490041 44.72843,-18.272254 8.43333,-2.26354 17.67382,-4.84603 20.53441,-5.738867 6.21231,-1.938962 7.67445,-2.079924 6.46559,-0.62334 -0.45646,0.55 -1.1301,1 -1.49697,1 -1.39117,0 -9.06272,6.049059 -12.97339,10.229585 -5.66536,6.056277 -10.46934,12.534885 -21.38432,28.838681 -10.47599,15.64808 -15.4525,22.525366 -21.21544,29.318665 l -3.88642,4.58128 6.64494,-4.59967 c 25.08094,-17.361222 46.90947,-35.193368 55.77083,-45.560279 9.44701,-11.052069 16.05957,-16.532752 26.26703,-21.770886 5.27399,-2.706441 8.27374,-3.094708 8.27374,-1.070896 0,0.903589 -2.13397,2.752382 -7.00046,6.064957 -10.7219,7.298288 -15.19667,12.725015 -27.97166,33.922289 -9.86635,16.371046 -16.76164,26.024645 -24.69968,34.580255 -4.46956,4.8173 -4.48932,4.85506 -1.92209,3.67462 C 435.2406,109.69406 455.66365,97.125071 470,86.097265 c 8.96009,-6.89228 22.56631,-20.89175 27.27625,-28.06458 4.37093,-6.656569 5.33128,-9.025159 4.1416,-10.21483 -1.15982,-1.159823 -0.88602,-4.58854 0.55516,-6.952157 1.6357,-2.68263 4.51699,-4.199032 7.97852,-4.199032 3.62785,0 5.06911,2.073042 4.47167,6.431859 -2.34521,17.110141 -37.1394,46.102666 -84.75653,70.624025 -15.49509,7.97949 -25.83599,12.28818 -26.58462,11.07687 z m 68.21235,-0.0982 c -5.26248,-1.59685 -6.94841,-4.31368 -6.45916,-10.40876 0.43643,-5.43703 3.39985,-10.97586 8.74191,-16.339209 11.84374,-11.890953 27.7668,-19.955166 39.39625,-19.952179 5.55863,0.0013 8.62085,1.57516 8.90807,4.578019 0.69714,7.28852 -8.29322,13.741847 -25.59477,18.372059 -4.74102,1.26878 -10.3717,2.65063 -12.51263,3.07079 -3.66156,0.71856 -3.96735,0.92853 -5.15202,3.53766 -3.032,6.67766 -0.9365,12.2682 4.84264,12.9196 9.88076,1.1137 24.67426,-7.01181 46.73622,-25.670449 6.6864,-5.65494 8.85576,-5.896646 2.79909,-0.311873 -10.26499,9.465202 -24.81627,20.045192 -33.66667,24.478442 -9.88328,4.95064 -22.26265,7.47866 -28.03893,5.7259 z m 19.90621,-24.941296 c 11.50837,-4.858666 21.46606,-13.391026 21.46606,-18.393446 0,-1.940386 -3.79805,-1.829653 -7.8555,0.229034 -6.49323,3.294559 -17.94814,13.214486 -22.32492,19.333318 l -1.37966,1.9288 2.48064,-0.46537 c 1.36436,-0.25596 4.79037,-1.44051 7.61338,-2.632336 z"
     id="path5133"
     inkscape:connector-curvature="0" />
</svg>
