<?xml version="1.0" encoding="UTF-8" standalone="no"?>
<!-- Created with Inkscape (http://www.inkscape.org/) -->

<svg
   xmlns:dc="http://purl.org/dc/elements/1.1/"
   xmlns:cc="http://creativecommons.org/ns#"
   xmlns:rdf="http://www.w3.org/1999/02/22-rdf-syntax-ns#"
   xmlns:svg="http://www.w3.org/2000/svg"
   xmlns="http://www.w3.org/2000/svg"
   xmlns:sodipodi="http://sodipodi.sourceforge.net/DTD/sodipodi-0.dtd"
   xmlns:inkscape="http://www.inkscape.org/namespaces/inkscape"
   version="1.1"
   id="svg5678"
   width="265.02502"
   height="57.573421"
   viewBox="0 0 265.02502 57.573421"
   sodipodi:docname="lifes_better_when_were_together.svg"
   inkscape:version="0.92.4 (5da689c313, 2019-01-14)">
  <metadata
     id="metadata5684">
    <rdf:RDF>
      <cc:Work
         rdf:about="">
        <dc:format>image/svg+xml</dc:format>
        <dc:type
           rdf:resource="http://purl.org/dc/dcmitype/StillImage" />
        <dc:title></dc:title>
      </cc:Work>
    </rdf:RDF>
  </metadata>
  <defs
     id="defs5682" />
  <sodipodi:namedview
     pagecolor="#ffffff"
     bordercolor="#666666"
     borderopacity="1"
     objecttolerance="10"
     gridtolerance="10"
     guidetolerance="10"
     inkscape:pageopacity="0"
     inkscape:pageshadow="2"
     inkscape:window-width="1920"
     inkscape:window-height="1017"
     id="namedview5680"
     showgrid="false"
     inkscape:zoom="4.5814064"
     inkscape:cx="189.70093"
     inkscape:cy="5.7812254"
     inkscape:window-x="-8"
     inkscape:window-y="-8"
     inkscape:window-maximized="1"
     inkscape:current-layer="svg5678" />
  <path
     style="fill:#fffaf3;fill-opacity:1;stroke-width:0.1391255"
     d="m 187.83039,57.483111 c -0.76782,-0.19462 -1.27108,-0.48652 -1.6832,-0.97628 -0.7311,-0.86888 -0.33484,-2.659041 0.83634,-3.778225 1.03046,-0.984715 2.92025,-1.561216 4.28094,-1.305948 0.62404,0.11707 0.65661,0.35911 0.0486,0.360939 -0.66072,0.0021 -1.77655,0.571722 -2.3103,1.179622 -0.92523,1.053784 -1.30403,2.707482 -0.79732,3.480822 0.40177,0.61317 0.97939,0.8034 2.22767,0.73366 2.63936,-0.14748 5.29446,-1.89234 10.15682,-6.674816 l 2.51402,-2.472713 -1.15584,0.68496 c -1.45488,0.862171 -2.36741,1.173402 -3.46589,1.182077 -1.12897,0.0089 -1.44828,-0.273974 -1.5386,-1.363153 -0.0716,-0.863807 0.29964,-1.844786 1.14185,-3.017094 l 0.47357,-0.659167 -0.55443,-0.08866 c -0.33834,-0.0541 -0.68678,-0.231473 -0.89402,-0.455097 -0.18679,-0.201545 -0.36016,-0.34098 -0.38526,-0.309856 -0.0251,0.03112 -0.24575,0.352723 -0.49033,0.714666 -2.20579,3.264186 -6.75895,5.770678 -9.68547,5.331817 -2.49769,-0.374551 -2.11105,-3.509844 0.77106,-6.25255 2.32679,-2.214249 5.20762,-3.563297 7.60925,-3.563297 0.77477,0 1.06236,0.06304 1.44072,0.315805 0.69534,0.464513 0.99168,1.123991 0.90806,2.020777 -0.11795,1.264945 0.24056,1.837182 1.15103,1.837182 0.31953,0 0.66915,-0.215479 1.43903,-0.886925 2.28816,-1.995623 4.54237,-3.134196 6.4396,-3.25256 1.36206,-0.08498 1.97321,0.149999 2.10508,0.80936 0.11711,0.585524 0.24855,0.609284 0.66073,0.119438 0.34502,-0.410045 0.41906,-0.432396 1.68217,-0.507753 0.72671,-0.04336 1.32129,-0.03517 1.32129,0.01818 0,0.05336 -1.58082,1.822393 -3.51293,3.931194 -5.33176,5.819361 -4.97484,5.399317 -4.48375,5.27688 1.90077,-0.473887 6.44721,-3.234668 7.19993,-4.372087 0.43044,-0.650436 1.60352,-1.815175 2.60537,-2.586841 2.78682,-2.146513 6.35983,-3.263438 7.93015,-2.47897 0.39079,0.195211 0.4958,0.335812 0.53178,0.71191 0.14547,1.521029 -1.7307,2.867761 -5.34134,3.834033 -0.98939,0.26478 -2.16445,0.553155 -2.61123,0.640836 -0.76413,0.149957 -0.82795,0.193775 -1.07516,0.73827 -0.14458,0.31837 -0.26422,0.872742 -0.26589,1.231941 -0.0104,2.230804 2.8786,1.948029 6.87488,-0.672897 1.07992,-0.708269 1.93283,-1.456391 3.73039,-3.272037 1.28168,-1.294606 2.33033,-2.413939 2.33033,-2.487407 0,-0.07347 -0.37367,-0.133582 -0.83037,-0.133582 -0.68097,0 -0.81599,-0.03755 -0.75031,-0.208688 0.0611,-0.159121 0.32123,-0.208688 1.0954,-0.208688 h 1.01531 l 1.57841,-1.676013 1.5784,-1.676017 1.36676,0.04129 1.36676,0.04129 -1.55277,1.634724 -1.55276,1.634724 h 1.53811 c 1.31004,0 1.52625,0.03094 1.45803,0.208688 -0.0651,0.169747 -0.39731,0.208688 -1.78003,0.208688 h -1.69996 l -2.58422,2.747729 c -1.42134,1.511252 -2.87076,3.096683 -3.22098,3.523182 -1.68741,2.055007 -1.11212,2.643796 1.35194,1.383661 1.31013,-0.670002 2.83399,-1.710215 4.05089,-2.765188 0.49812,-0.431849 3.7224,-3.770306 7.165,-7.41879 l 6.25931,-6.633608 1.36017,-0.04442 c 0.74808,-0.02443 1.38533,-0.02968 1.4161,-0.01169 0.0743,0.04352 -1.31825,1.499845 -7.14351,7.470378 -2.68246,2.749369 -4.79567,4.950535 -4.69605,4.891481 0.0996,-0.05906 0.88221,-0.669687 1.73907,-1.356964 2.00215,-1.605915 3.76834,-2.514648 5.04543,-2.595967 1.16968,-0.07448 1.59192,0.169611 1.58749,0.917734 -0.006,0.995203 -0.45281,1.619149 -3.09174,4.316148 -1.40036,1.431178 -2.6484,2.815749 -2.7734,3.076827 -0.49363,1.030953 0.12509,1.08085 1.76206,0.142104 1.58096,-0.906615 3.37762,-2.323207 3.979,-3.137242 2.13083,-2.884424 6.37841,-5.34066 9.23433,-5.339925 1.16001,2.09e-4 1.79905,0.328717 1.85899,0.955379 0.1455,1.521028 -1.73069,2.867762 -5.34131,3.834033 -0.98941,0.264779 -2.16445,0.553155 -2.61126,0.640838 -0.76411,0.149955 -0.82793,0.193773 -1.07516,0.738268 -0.14456,0.31837 -0.2642,0.872744 -0.26587,1.231943 -0.0104,2.224353 2.9256,1.942399 6.82832,-0.655745 1.05649,-0.70334 1.80927,-1.381937 3.43065,-3.092586 1.14244,-1.20534 2.29236,-2.432351 2.55535,-2.726692 l 0.47816,-0.535164 1.50965,-0.07705 c 0.8844,-0.04514 1.48753,-0.02466 1.45627,0.04944 -0.0293,0.06956 -0.81467,0.861563 -1.74517,1.759995 -0.93052,0.898432 -1.66901,1.633513 -1.64109,1.633513 0.0279,0 0.46776,-0.311721 0.97744,-0.692715 1.46248,-1.093232 4.27704,-2.757302 4.95035,-2.926846 0.33758,-0.085 0.90838,-0.134915 1.26845,-0.11091 l 0.65466,0.04364 -0.92211,1.037218 c -0.89104,1.002269 -1.43002,1.903957 -1.43636,2.402931 -0.002,0.132145 0.14827,0.339423 0.33323,0.460618 0.46465,0.304443 1.1434,0.104127 2.42452,-0.715525 1.16029,-0.742339 1.46827,-0.739737 0.49399,0.0042 -2.05487,1.569008 -4.72658,2.048834 -5.43003,0.975213 -0.28198,-0.430368 -0.1763,-1.424671 0.22346,-2.102211 0.15009,-0.254362 0.22411,-0.462476 0.16453,-0.462476 -0.21371,0 -2.5682,1.682376 -3.95948,2.829191 -0.78004,0.642978 -2.23148,2.00454 -3.22542,3.025691 l -1.80718,1.856637 -1.28836,0.05635 c -0.70862,0.03099 -1.28838,2.08e-4 -1.28838,-0.06832 0,-0.06857 0.43647,-0.557794 0.96992,-1.087169 0.53347,-0.529376 0.94726,-0.98519 0.91953,-1.012923 -0.0277,-0.02773 -0.38595,0.163833 -0.79602,0.425699 -2.8947,1.848448 -6.3354,2.649986 -7.90073,1.840522 -0.64581,-0.333956 -0.89177,-0.935612 -0.80817,-1.976969 0.0507,-0.632229 0.0264,-0.849891 -0.0874,-0.780715 -0.0867,0.05275 -0.63954,0.452357 -1.22842,0.888008 -1.46025,1.080304 -2.38992,1.592387 -3.40039,1.873023 -1.46956,0.408144 -2.35471,0.01321 -2.32712,-1.03832 0.0262,-0.997862 0.42627,-1.534806 3.12029,-4.187319 2.51054,-2.471875 2.96397,-3.057533 2.69909,-3.486129 -0.2914,-0.471493 -1.98023,0.31542 -4.10534,1.912903 -1.35775,1.02064 -4.58304,3.951062 -5.88889,5.350496 l -1.20188,1.288013 -1.32097,0.05778 c -0.72876,0.03187 -1.32098,0.0019 -1.32098,-0.0669 0,-0.06857 0.43647,-0.557794 0.96994,-1.087169 0.53345,-0.529376 0.95116,-0.981265 0.92825,-1.004198 -0.023,-0.02293 -0.55983,0.299172 -1.19307,0.715786 -1.2524,0.823966 -2.80667,1.522911 -3.71543,1.6708 -0.66292,0.107884 -1.60251,-0.106178 -1.93781,-0.441474 -0.29267,-0.292664 -0.18315,-1.270279 0.21856,-1.951126 0.15265,-0.258736 0.27755,-0.496747 0.27755,-0.528918 0,-0.03217 -0.5165,0.276831 -1.14778,0.686667 -1.42127,0.922703 -2.54667,1.48733 -3.7216,1.867159 -2.63411,0.851544 -4.6515,0.701445 -5.21487,-0.387995 -0.23672,-0.457781 -0.27505,-1.383111 -0.0848,-2.046568 l 0.12626,-0.440236 -1.428,0.960024 c -1.68682,1.134043 -3.79681,2.217436 -5.15474,2.646762 -0.88509,0.279834 -1.10242,0.431275 -2.38381,1.661171 -2.86294,2.747923 -5.35685,4.257955 -8.62246,5.220815 -0.96406,0.28425 -1.62025,0.3764 -2.97584,0.41789 -0.95649,0.0293 -1.97587,-0.007 -2.26531,-0.0802 z m 0.99695,-8.239914 c 1.16666,-0.626476 2.44419,-1.724067 3.65943,-3.143999 2.15526,-2.518297 3.17591,-4.33765 2.88087,-5.13525 -0.093,-0.251473 -0.22253,-0.311751 -0.66976,-0.311751 -0.6706,0 -1.07582,0.166416 -2.16748,0.890151 -2.29505,1.521532 -5.77371,5.99067 -5.77371,7.417651 0,0.866377 0.78474,0.973704 2.07065,0.283198 z m 13.05551,-0.822578 c 1.59187,-0.947186 4.49301,-4.054076 5.35168,-5.731214 0.39513,-0.771758 0.54353,-1.4739 0.37725,-1.784651 -0.19371,-0.361897 -1.1442,-0.326316 -2.00358,0.07501 -2.09819,0.979806 -5.30124,4.409867 -5.96721,6.390105 -0.29922,0.889711 -0.28263,1.154334 0.0891,1.422486 0.44399,0.320232 1.21292,0.187454 2.15271,-0.371732 z m 14.0625,-3.644765 c 2.40166,-1.013948 4.47972,-2.794551 4.47972,-3.838497 0,-0.404934 -0.79262,-0.381826 -1.63935,0.0478 -1.35508,0.687536 -3.74558,2.757707 -4.65895,4.034637 l -0.28792,0.402517 0.51767,-0.09712 c 0.28473,-0.05341 0.9997,-0.300615 1.58883,-0.549337 z m 29.77286,0 c 2.40167,-1.013948 4.4797,-2.794551 4.4797,-3.838497 0,-0.404934 -0.7926,-0.381826 -1.63933,0.0478 -1.35508,0.687536 -3.74558,2.757707 -4.65896,4.034637 l -0.28791,0.402517 0.51767,-0.09712 c 0.28474,-0.05341 0.9997,-0.300615 1.58883,-0.549337 z M 43.265859,50.001311 c -0.04172,-0.06751 0.146597,-0.336132 0.418489,-0.596944 1.274753,-1.222807 3.211708,-3.808634 4.992739,-6.665288 0.596339,-0.956487 1.396141,-2.23729 1.777335,-2.846227 l 0.693083,-1.10716 -0.726586,0.620221 c -2.674087,2.282624 -7.046644,5.571582 -11.276385,8.481891 -2.362781,1.625732 -3.418982,2.191661 -3.810166,2.041547 -0.433128,-0.166205 -0.216011,-0.504299 0.714624,-1.112805 0.516504,-0.33772 1.107903,-0.794649 1.314223,-1.015397 0.440851,-0.471688 2.754803,-3.967779 4.395162,-6.640537 2.170205,-3.536081 4.268469,-6.063577 6.312441,-7.603757 0.609332,-0.459145 1.069329,-0.834811 1.022218,-0.834811 -0.20095,0 -2.778682,0.751833 -4.383482,1.278503 -2.352148,0.77194 -3.910809,1.509697 -5.077176,2.403171 -1.407796,1.078413 -2.15735,2.214222 -2.15735,3.269059 0,0.778846 0.363322,1.118546 1.196322,1.118546 1.250021,0 2.255678,-0.806123 3.075795,-2.465516 0.275256,-0.556943 0.583305,-1.012622 0.684552,-1.012622 0.214607,0 0.125837,0.284317 -0.433218,1.38756 -0.815854,1.610013 -2.325966,2.647081 -3.854514,2.647081 -1.50614,0 -2.199317,-0.530375 -2.199317,-1.682779 0,-0.943769 0.477468,-1.882107 1.447929,-2.845522 1.451135,-1.440596 3.283503,-2.189148 9.334297,-3.813204 1.759937,-0.472374 3.688319,-1.011309 4.28529,-1.197635 1.296436,-0.404638 1.601568,-0.434054 1.349293,-0.130083 -0.09526,0.114778 -0.235839,0.208688 -0.3124,0.208688 -0.290321,0 -1.891283,1.262368 -2.707394,2.134795 -1.182294,1.263872 -2.184828,2.615884 -4.462656,6.018294 -2.186216,3.26557 -3.224755,4.700779 -4.427413,6.118461 l -0.81105,0.956059 1.386721,-0.959899 c 5.234097,-3.623082 9.789454,-7.34444 11.638716,-9.507894 1.97148,-2.306435 3.351443,-3.450191 5.48162,-4.543327 1.10062,-0.564802 1.726633,-0.64583 1.726633,-0.223484 0,0.188568 -0.445335,0.574389 -1.460914,1.265686 -2.237535,1.523067 -3.171366,2.655562 -5.837357,7.079183 -2.058991,3.416445 -3.497957,5.431038 -5.154532,7.216493 -0.932745,1.005314 -0.936869,1.013194 -0.401118,0.76685 C 49.97697,46.849 54.239021,44.226 57.230848,41.924626 c 1.869866,-1.438338 4.709329,-4.359863 5.692229,-5.856748 0.91217,-1.389148 1.11258,-1.883445 0.86431,-2.131715 -0.24204,-0.242041 -0.1849,-0.957574 0.11585,-1.450834 0.34135,-0.559833 0.94265,-0.876288 1.66503,-0.876288 0.75709,0 1.05786,0.432619 0.93318,1.342253 -0.48941,3.570685 -7.750555,9.621085 -17.68769,14.738405 -3.233643,1.665226 -5.391667,2.564398 -5.547898,2.311612 z m 26.478158,-0.02049 c -1.10288,-0.334661 -1.45016,-0.898828 -1.3467,-2.187775 0.0507,-0.632229 0.0264,-0.849891 -0.0874,-0.780715 -0.0868,0.05275 -0.63955,0.452357 -1.22842,0.888008 -1.46026,1.080304 -2.38992,1.59239 -3.40039,1.873025 -1.46957,0.408142 -2.35471,0.01321 -2.32714,-1.03832 0.0262,-0.997864 0.42628,-1.534808 3.12029,-4.187321 2.51054,-2.471875 2.96398,-3.057533 2.6991,-3.486129 -0.2914,-0.471491 -1.98021,0.31542 -4.10534,1.912903 -1.35775,1.020642 -4.583047,3.951061 -5.888893,5.350496 l -1.201877,1.288015 -1.338349,0.05853 c -0.855618,0.03742 -1.319538,0.0085 -1.286189,-0.08019 0.02869,-0.0763 3.790809,-4.086575 8.360268,-8.911731 l 8.30812,-8.77301 1.3611,-0.04444 c 0.74862,-0.02444 1.38628,-0.0297 1.41704,-0.01171 0.0743,0.04352 -1.31825,1.499844 -7.1435,7.470377 -2.68247,2.74937 -4.795696,4.950536 -4.69606,4.891482 0.0996,-0.05906 0.88222,-0.669687 1.73907,-1.356964 2.00215,-1.605915 3.76834,-2.514648 5.04543,-2.595967 1.16968,-0.07448 1.59191,0.169611 1.5875,0.917733 -0.006,0.995203 -0.45281,1.61915 -3.09174,4.316149 -1.40037,1.431178 -2.6484,2.815749 -2.77341,3.076826 -0.49364,1.030954 0.12508,1.080851 1.76206,0.142104 1.58095,-0.906614 3.37762,-2.323207 3.97899,-3.137241 2.13085,-2.884424 6.37841,-5.34066 9.23433,-5.339925 1.16002,2.08e-4 1.79907,0.328717 1.85901,0.955379 0.14548,1.521028 -1.7307,2.867762 -5.34133,3.834033 -0.98939,0.264779 -2.16445,0.553155 -2.61124,0.640837 -0.76412,0.149955 -0.82794,0.193774 -1.07516,0.738268 -0.14456,0.318371 -0.26421,0.872745 -0.26589,1.231943 -0.0105,2.235108 2.92459,1.94308 6.8701,-0.683558 1.35711,-0.903466 1.75399,-1.28043 5.66355,-5.379398 l 0.91972,-0.96428 1.51497,-0.05597 1.51498,-0.05598 -1.53038,1.475318 -1.53038,1.475319 1.25213,-0.915357 c 1.84142,-1.346154 3.62165,-2.20101 4.73064,-2.271625 0.81131,-0.05166 0.91639,-0.02534 1.2565,0.314766 0.31812,0.31812 0.35753,0.444575 0.27586,0.885151 -0.1912,1.03144 -0.79056,1.814618 -3.16148,4.13109 -2.38513,2.330364 -3.06612,3.241014 -2.72816,3.648228 0.0812,0.09785 0.24038,0.177904 0.35374,0.177904 0.73117,0 3.93896,-2.236211 7.26632,-5.0655 1.67434,-1.423711 1.95405,-1.616595 1.95405,-1.347487 0,0.175926 -3.73992,3.325123 -5.59354,4.710035 -2.11935,1.583455 -3.36345,2.184544 -4.52767,2.187568 -0.81592,0.0021 -0.92347,-0.03285 -1.24321,-0.404248 -0.29281,-0.34012 -0.33572,-0.495989 -0.26253,-0.953701 0.0481,-0.300924 0.18751,-0.744032 0.30976,-0.984687 0.12224,-0.240655 1.39616,-1.627077 2.83093,-3.080937 1.43477,-1.453863 2.65174,-2.783689 2.70437,-2.955172 0.13153,-0.428502 -0.005,-0.592529 -0.49159,-0.592529 -1.23376,0 -4.47745,2.440881 -8.58547,6.460581 l -2.26809,2.219329 -1.24483,0.05952 c -0.69528,0.03324 -1.24483,0.0038 -1.24483,-0.0666 0,-0.06936 0.34895,-0.468311 0.77545,-0.886551 1.10083,-1.079513 1.21058,-1.357209 0.30881,-0.781386 -2.53307,1.617501 -5.78354,2.521718 -7.35303,2.045471 z m 4.15419,-5.204956 c 2.40167,-1.013947 4.47972,-2.79455 4.47972,-3.838497 0,-0.404934 -0.79261,-0.381826 -1.63935,0.0478 -1.35506,0.687536 -3.74557,2.757707 -4.65895,4.034637 l -0.28792,0.402518 0.51768,-0.09712 c 0.28473,-0.05341 0.99969,-0.300615 1.58882,-0.549336 z m 36.704393,5.225458 c -0.0417,-0.06751 0.1466,-0.336132 0.41849,-0.596945 1.27475,-1.222806 3.21171,-3.808633 4.99274,-6.665287 0.59634,-0.956487 1.39614,-2.23729 1.77734,-2.846228 l 0.69308,-1.10716 -0.72659,0.620221 c -2.67409,2.282624 -7.04664,5.571582 -11.27638,8.481892 -2.36278,1.625731 -3.41898,2.19166 -3.81017,2.041547 -0.43313,-0.166206 -0.21601,-0.5043 0.71462,-1.112805 0.51651,-0.33772 1.10791,-0.79465 1.31423,-1.015398 0.44085,-0.471688 2.7548,-3.967779 4.39516,-6.640537 2.17021,-3.53608 4.26847,-6.063577 6.31244,-7.603756 0.60933,-0.459146 1.06933,-0.834812 1.02222,-0.834812 -0.20095,0 -2.77868,0.751833 -4.38348,1.278504 -2.35215,0.77194 -3.91081,1.509696 -5.07718,2.40317 -1.40779,1.078413 -2.15735,2.214222 -2.15735,3.26906 0,0.778845 0.36332,1.118546 1.19632,1.118546 1.25002,0 2.25568,-0.806123 3.0758,-2.465516 0.27525,-0.556943 0.5833,-1.012622 0.68455,-1.012622 0.21461,0 0.12584,0.284316 -0.43322,1.387559 -0.81585,1.610013 -2.32596,2.647081 -3.85451,2.647081 -1.50614,0 -2.19932,-0.530375 -2.19932,-1.682778 0,-0.94377 0.47747,-1.882107 1.44793,-2.845523 1.45113,-1.440596 3.2835,-2.189148 9.3343,-3.813203 1.75993,-0.472375 3.68832,-1.01131 4.28529,-1.197635 1.29644,-0.404638 1.60156,-0.434055 1.34929,-0.130084 -0.0953,0.114779 -0.23584,0.208688 -0.3124,0.208688 -0.29032,0 -1.89128,1.262368 -2.70739,2.134795 -1.1823,1.263873 -2.18483,2.615885 -4.46266,6.018294 -2.18622,3.26557 -3.22476,4.70078 -4.42741,6.118461 l -0.81105,0.95606 1.38672,-0.959899 c 5.2341,-3.623083 9.78945,-7.344441 11.63871,-9.507895 1.97149,-2.306435 3.35145,-3.450191 5.48162,-4.543327 1.10063,-0.564802 1.72664,-0.645829 1.72664,-0.223484 0,0.188569 -0.44534,0.574389 -1.46092,1.265686 -2.23753,1.523067 -3.17136,2.655562 -5.83735,7.079183 -2.059,3.416446 -3.49796,5.431038 -5.15454,7.216494 -0.93274,1.005313 -0.93687,1.013193 -0.40111,0.76685 2.95665,-1.359508 7.21871,-3.982509 10.21053,-6.283883 1.86987,-1.438338 4.70933,-4.359863 5.69223,-5.856748 0.91217,-1.389148 1.11258,-1.883445 0.86431,-2.131715 -0.24204,-0.242041 -0.18491,-0.957574 0.11585,-1.450834 0.34136,-0.559833 0.94265,-0.876288 1.66503,-0.876288 0.75709,0 1.05787,0.432619 0.93318,1.342254 -0.48941,3.570685 -7.75055,9.621085 -17.68769,14.738404 -3.23364,1.665226 -5.39167,2.564399 -5.5479,2.311613 z m 14.23512,-0.02049 c -1.09822,-0.333243 -1.45005,-0.900214 -1.34795,-2.172185 0.0911,-1.134645 0.70951,-2.290533 1.82433,-3.409801 2.47165,-2.481504 5.7946,-4.16441 8.22154,-4.163786 1.16002,2.09e-4 1.79907,0.328718 1.859,0.955379 0.14549,1.521029 -1.73069,2.867761 -5.34132,3.834033 -0.9894,0.26478 -2.16445,0.553155 -2.61124,0.640836 -0.76413,0.149957 -0.82794,0.193775 -1.07517,0.73827 -0.63274,1.393549 -0.19543,2.560229 1.0106,2.696169 2.062,0.232416 5.14923,-1.463283 9.75331,-5.357122 1.39537,-1.180119 1.84809,-1.230561 0.58413,-0.06508 -2.14218,1.975278 -5.17886,4.183197 -7.02584,5.108364 -2.06252,1.033141 -4.64595,1.560709 -5.85139,1.194928 z m 4.15419,-5.204956 c 2.40167,-1.013947 4.47971,-2.79455 4.47971,-3.838496 0,-0.404935 -0.79261,-0.381827 -1.63934,0.0478 -1.35507,0.687536 -3.74557,2.757706 -4.65896,4.034636 l -0.28791,0.402518 0.51768,-0.09712 c 0.28472,-0.05341 0.99969,-0.300616 1.58882,-0.549338 z m 22.0014,5.204956 c -1.09417,-0.332014 -1.44995,-0.901391 -1.34902,-2.158863 0.0699,-0.870774 0.41854,-1.725407 1.044,-2.55916 0.30522,-0.406853 0.31668,-0.4578 0.0885,-0.392758 -1.22696,0.349655 -2.40452,0.180115 -2.78529,-0.401015 -0.28198,-0.430365 -0.17629,-1.424671 0.22346,-2.102211 0.15009,-0.254361 0.22412,-0.462476 0.16453,-0.462476 -0.21371,0 -2.5682,1.682376 -3.95948,2.829191 -0.78004,0.642981 -2.23148,2.00454 -3.22542,3.025693 l -1.80717,1.856637 -1.28837,0.05635 c -0.70861,0.03099 -1.28837,0.01686 -1.28837,-0.03141 0,-0.04827 1.85117,-2.074795 4.11373,-4.503392 3.61588,-3.881248 4.17573,-4.427287 4.62592,-4.511956 0.70122,-0.131879 2.5635,-0.136933 2.50632,-0.0068 -0.0255,0.05806 -0.80769,0.840636 -1.73821,1.739068 -0.93051,0.898432 -1.66899,1.633514 -1.64108,1.633514 0.0279,0 0.46777,-0.311722 0.97744,-0.692716 1.46249,-1.093232 4.27704,-2.757302 4.95035,-2.926846 0.33759,-0.085 0.90839,-0.134915 1.26846,-0.11091 l 0.65466,0.04365 -0.92211,1.037218 c -0.89105,1.002269 -1.43003,1.903956 -1.43638,2.40293 -0.005,0.360265 0.59159,0.694698 1.03846,0.582541 0.20645,-0.05182 0.72546,-0.400573 1.15337,-0.775018 2.15568,-1.886392 4.85496,-3.149386 6.9874,-3.2694 1.50448,-0.08468 2.13105,0.17371 2.20127,0.90776 0.14548,1.521029 -1.7307,2.867763 -5.34132,3.834033 -0.98941,0.26478 -2.16446,0.553156 -2.61125,0.640838 -0.76412,0.149955 -0.82794,0.193773 -1.07516,0.738268 -0.63274,1.393551 -0.19545,2.560231 1.01059,2.696169 2.06201,0.232418 5.14923,-1.463283 9.75331,-5.357121 1.39538,-1.18012 1.84809,-1.230562 0.58413,-0.06508 -2.14218,1.975276 -5.17886,4.183195 -7.02583,5.108365 -2.06252,1.033138 -4.64596,1.560706 -5.8514,1.194926 z m 4.15419,-5.204956 c 2.40167,-1.013947 4.47972,-2.79455 4.47972,-3.838496 0,-0.404935 -0.79262,-0.381827 -1.63935,0.0478 -1.35506,0.687536 -3.74557,2.757706 -4.65895,4.034636 l -0.28792,0.402518 0.51767,-0.09712 c 0.28474,-0.05341 0.9997,-0.300616 1.58883,-0.549338 z m 15.96151,5.058741 c -2.46984,-0.44633 -3.50297,-1.95016 -2.57822,-3.752891 0.46636,-0.90915 1.21712,-1.394866 2.15603,-1.394866 1.24183,0 1.19097,1.583377 -0.0716,2.22747 -0.51884,0.264692 -0.55363,0.320948 -0.55363,0.895007 0,1.158519 0.90126,1.746915 2.67576,1.746915 1.52192,0 3.11692,-0.643319 5.11527,-2.063159 1.26283,-0.897251 2.79375,-2.397187 5.98818,-5.866994 1.51459,-1.645158 3.18155,-3.372227 3.70436,-3.837927 2.06295,-1.837621 4.02825,-3.019531 6.3131,-3.796636 l 1.17636,-0.400093 -0.52634,-0.103223 c -0.91658,-0.179756 -8.50865,0.01943 -10.11665,0.265413 -3.39565,0.519463 -5.88645,1.330075 -7.59185,2.470717 -1.1171,0.74716 -1.55604,1.231789 -1.99786,2.20582 -0.45817,1.010026 -0.38926,1.477396 0.31769,2.154767 0.97765,0.936759 2.64438,1.162395 4.70099,0.636401 2.90034,-0.741779 4.99337,-2.458832 5.66528,-4.647577 0.25208,-0.82114 0.5782,-1.219061 0.57221,-0.698181 -0.006,0.526153 -0.68116,2.149829 -1.17176,2.818161 -1.11467,1.518489 -2.93552,2.790648 -5.05406,3.531074 -1.00942,0.352794 -1.43761,0.426169 -2.53615,0.434591 -1.11689,0.0086 -1.42395,-0.04022 -1.98157,-0.314839 -0.9896,-0.487352 -1.28827,-0.993469 -1.28607,-2.179286 0.003,-1.700181 0.87084,-3.134274 2.71113,-4.480868 2.37673,-1.739114 5.82291,-2.93476 10.60294,-3.678667 1.3571,-0.211203 2.79261,-0.306465 5.39761,-0.358186 3.22338,-0.064 8.44227,0.125111 8.96257,0.324765 0.56031,0.215007 0.33586,1.159468 -0.36671,1.543049 -0.39661,0.216548 -0.82242,0.250134 -3.17108,0.250134 -2.64568,0 -2.7325,0.0092 -3.50115,0.369507 -1.7533,0.821952 -3.2031,2.136647 -7.3648,6.678485 -4.26733,4.657106 -6.11204,6.22948 -8.95943,7.636777 -0.91823,0.453824 -2.16652,0.951391 -2.77399,1.105704 -1.27497,0.32388 -3.45277,0.46004 -4.4566,0.278636 z m -31.76109,-9.907581 c 0.0305,-0.0914 0.48614,-0.274884 1.0126,-0.407747 1.37389,-0.346727 2.12217,-0.650419 2.96226,-1.202249 0.93067,-0.611333 2.15073,-2.143389 1.51156,-1.89812 -0.10158,0.03898 -0.352,0.0073 -0.55651,-0.07049 -0.2987,-0.113568 -0.3717,-0.230926 -0.37128,-0.596961 10e-4,-1.019106 1.04119,-1.899936 2.02532,-1.715313 0.60241,0.113013 0.82894,0.421535 0.81297,1.107245 -0.0475,2.042461 -3.13429,4.192712 -6.98897,4.868572 -0.32561,0.05709 -0.44687,0.03185 -0.40795,-0.08494 z M 10.623807,26.374885 C 8.6561116,25.989503 7.7358296,25.043686 7.9324906,23.608891 c 0.08079,-0.589427 0.465748,-1.303942 1.170163,-2.171931 0.414766,-0.511077 0.441333,-1.63089 0.05136,-2.164721 -0.412969,-0.565303 -1.20968,-0.909899 -2.280897,-0.986546 -0.741147,-0.05303 -1.317193,0.02666 -2.799769,0.387317 -1.886798,0.458984 -3.74227695,0.619042 -4.00146395,0.345174 -0.21215,-0.224169 0.07266,-0.75427 0.496373,-0.92389 0.212482,-0.08506 1.64033895,-0.198466 3.17301695,-0.252018 2.618201,-0.09148 2.835867,-0.119879 3.600135,-0.469774 1.891512,-0.865962 4.2171664,-2.951133 7.7075304,-6.910537 1.112999,-1.2625641 2.205018,-2.4911041 2.42671,-2.7300901 l 0.403077,-0.434518 -0.718009,-0.258193 c -0.871029,-0.313218 -1.775108,-1.058889 -2.033433,-1.677147 -0.578458,-1.384446 0.373642,-3.504401 2.002614,-4.45904304 0.531006,-0.311189 0.841673,-0.382959 1.831732,-0.423163 1.185241,-0.04813 1.745803,0.09331 1.468573,0.370536 -0.09225,0.09225 -0.331514,0.08983 -0.713948,-0.0072 -0.414062,-0.105101 -0.794647,-0.100441 -1.358589,0.01663 -1.880405,0.39037004 -3.384364,2.53146104 -2.870937,4.08716504 0.265689,0.805043 1.703067,1.897804 2.496304,1.897804 0.12641,0 0.76048,-0.521489 1.409044,-1.158865 3.486736,-3.426597 7.954192,-5.65593004 11.335367,-5.65653304 1.936977,-3.55e-4 2.712947,0.434432 2.712947,1.52007504 0,0.555258 -0.54582,1.777611 -0.961898,2.154158 -0.21391,0.193585 -0.23453,0.303067 -0.116152,0.616688 0.461583,1.222872 -1.8705,2.721912 -2.679757,1.722522 l -0.249963,-0.308693 -0.903161,0.339949 c -1.859706,0.699991 -4.539366,1.267621 -6.827039,1.446163 -0.814922,0.0636 -1.499208,0.141113 -1.520632,0.172246 -0.02143,0.03113 -0.67119,0.77658 -1.443921,1.656549 -2.421173,2.7571751 -4.780404,4.8927821 -6.945149,6.2868411 -0.924106,0.595108 -2.9832794,1.58899 -3.8675954,1.866737 -0.701714,0.220398 -0.772205,0.271219 -0.48694,0.351084 0.183454,0.05136 0.682176,0.09962 1.108273,0.10725 1.6636854,0.02978 3.1903564,0.861951 3.1903564,1.739024 0,0.666087 0.538893,0.422276 2.78251,-1.258891 1.186044,-0.888716 3.345968,-2.456758 4.79983,-3.484537 2.228141,-1.575143 2.90893,-2.145962 4.333812,-3.633755 l 1.690427,-1.7650651 1.439896,-0.04862 1.439897,-0.04862 -2.646288,2.6920011 c -4.46087,4.537932 -5.517095,5.964012 -4.414332,5.960095 1.339609,-0.0048 6.297658,-3.59285 8.900789,-6.441415 0.782537,-0.856319 1.424254,-1.603897 1.426036,-1.661287 0.0019,-0.05739 -0.505274,-0.1043441 -1.126796,-0.1043441 -0.988704,0 -1.108376,-0.0261 -0.956844,-0.208688 0.130856,-0.157669 0.484332,-0.208688 1.44587,-0.208688 h 1.27267 l 1.944962,-1.96801 c 3.014229,-3.04995 4.915748,-4.555358 7.301292,-5.78034 3.282001,-1.68531304 6.351623,-1.34593404 6.080919,0.672311 -0.157238,1.17231 -1.464244,2.206647 -2.788355,2.206647 -0.682631,0 -0.682957,-2.72e-4 -0.457119,-0.313033 0.577647,-0.800102 1.052878,-1.736928 1.138655,-2.244641 0.07994,-0.473177 0.04744,-0.59461 -0.216355,-0.808215 -0.170738,-0.138256 -0.413059,-0.250763 -0.538489,-0.250015 -0.423489,0.0025 -1.75218,0.708701 -2.801879,1.489151 -1.059976,0.788091 -4.88332,4.54228 -6.239633,6.126773 l -0.744174,0.869372 3.039747,-0.005 c 2.16229,-0.0035 3.280704,-0.06314 3.874498,-0.206516 1.149947,-0.277666 2.391124,-0.261989 2.991197,0.03778 0.390769,0.195211 0.495791,0.335813 0.531765,0.7119091 0.145487,1.521029 -1.730696,2.867761 -5.341326,3.834034 -0.989395,0.264779 -2.164451,0.553155 -2.61124,0.640835 -0.764125,0.149957 -0.827938,0.193776 -1.075166,0.73827 -0.632741,1.39355 -0.195435,2.56023 1.010602,2.696167 2.062,0.232418 5.149228,-1.46328 9.753301,-5.357119 1.395373,-1.18012 1.848091,-1.230561 0.584137,-0.06509 -2.142182,1.975278 -5.178865,4.183198 -7.025838,5.108365 -1.757057,0.880128 -4.034949,1.43148 -5.29671,1.282043 -1.47097,-0.174215 -2.017877,-0.823645 -1.902638,-2.259303 0.124091,-1.545875 1.309713,-3.217263 3.44296,-4.853583 0.819051,-0.628257 2.433683,-1.607216 2.650839,-1.607216 0.07242,0 0.13167,-0.06261 0.13167,-0.139126 0,-0.08778 -0.959043,-0.1391251 -2.598878,-0.1391251 h -2.598882 l -0.619973,0.6608461 c -0.340987,0.363466 -1.623662,1.779961 -2.85039,3.147766 -7.183136,8.009234 -10.950339,10.960895 -15.678839,12.284613 -1.15867,0.324364 -3.765267,0.537948 -4.591141,0.376196 z m 3.716575,-0.684241 c 1.6935,-0.568487 3.55237,-1.746174 5.789387,-3.667854 1.30158,-1.11811 5.966376,-5.856869 6.461975,-6.564435 0.117197,-0.167324 -0.30298,0.08939 -0.933725,0.570483 -3.169184,2.417232 -5.660638,3.312033 -6.601686,2.370984 -0.580535,-0.580535 -0.194253,-1.849577 0.96577,-3.172808 0.352173,-0.401725 0.598252,-0.730409 0.546838,-0.730409 -0.211744,0 -7.440875,5.299594 -7.440875,5.454821 0,0.06061 0.187819,0.110199 0.417376,0.110199 0.522994,0 0.546709,0.244168 0.03478,0.358093 -0.806657,0.179518 -0.957214,0.239699 -1.565162,0.625641 -1.236305,0.784837 -2.0197334,2.181084 -1.917244,3.416967 0.09949,1.19973 0.607599,1.544867 2.31009,1.569148 0.600692,0.0086 1.21373,-0.09955 1.932474,-0.34083 z m 24.498202,-12.0789 c 2.401664,-1.013947 4.479714,-2.794551 4.479714,-3.8384971 0,-0.404936 -0.792606,-0.381827 -1.639348,0.0478 C 40.323889,10.508583 37.933382,12.578756 37.02,13.855684 l -0.287917,0.402517 0.51768,-0.09712 c 0.284724,-0.05341 0.999694,-0.300617 1.588821,-0.549336 z M 23.353789,6.9619379 c 1.439004,-0.221407 3.760414,-1.021575 4.869394,-1.678432 1.3452,-0.796773 2.481604,-1.966887 3.01293,-3.102308 0.362744,-0.775166 0.406569,-0.975561 0.276013,-1.26210304 -0.479513,-1.052417 -2.51716,-0.593937 -5.15708,1.16036404 -1.750283,1.163111 -4.327696,3.423964 -5.332363,4.677437 l -0.431417,0.538257 0.894323,-0.09169 c 0.491876,-0.05043 1.332569,-0.159115 1.8682,-0.241529 z M 48.198223,18.678999 c -0.800579,-0.276395 -1.191005,-0.659008 -1.317414,-1.291054 -0.346257,-1.73129 1.768053,-4.014275 3.240947,-3.499501 0.254888,0.08908 0.374915,0.242836 0.406972,0.521332 0.104997,0.912187 -0.567812,1.617209 -1.543319,1.617209 -0.399101,0 -0.513091,0.07982 -0.772098,0.540663 -0.37422,0.665832 -0.385527,1.136412 -0.03762,1.56559 0.229568,0.283192 0.387812,0.328147 1.148577,0.326294 0.725794,-0.0017 1.017935,-0.07838 1.646725,-0.431816 1.5456,-0.868773 1.947274,-2.016873 1.332752,-3.809361 -0.479901,-1.399818 -0.470289,-2.138642 0.03811,-2.92918 0.444739,-0.691553 0.832194,-1.063279 1.549984,-1.4870671 1.735975,-1.02493 4.531744,-0.953143 5.092249,0.130755 0.372559,0.7204471 -0.08104,1.8503631 -0.988716,2.4629071 -0.519231,0.350402 -1.778131,0.565584 -1.924388,0.328932 -0.04566,-0.07388 0.07759,-0.34714 0.273893,-0.607247 0.444713,-0.589261 0.885973,-1.578898 0.885973,-1.987013 0,-0.4621471 -0.266096,-0.6423551 -0.948508,-0.6423551 -0.525365,0 -0.690817,0.07621 -1.139465,0.5248581 -0.475148,0.475147 -0.830813,1.265444 -0.832886,1.850688 -4.17e-4,0.120505 0.15574,0.679279 0.347039,1.241716 0.646649,1.90123 0.39777,3.003337 -0.970424,4.297317 -0.413593,0.391161 -0.728562,0.711201 -0.699925,0.711201 0.201392,0 2.004221,-0.86669 2.925792,-1.406542 1.37829,-0.807394 2.726447,-1.837379 4.766519,-3.641595 0.863465,-0.763643 1.614745,-1.342068 1.669505,-1.28539 0.24449,0.25307 -4.231846,4.005234 -6.164089,5.166872 -2.8629,1.721131 -6.028629,2.407613 -7.986183,1.731787 z m 19.675724,0.149834 c -1.6737,-0.443558 -2.486,-1.543174 -2.17207,-2.940359 0.29137,-1.296778 1.26906,-2.145478 2.37751,-2.063818 0.74821,0.05512 1.02583,0.434401 0.82656,1.12922 -0.13585,0.473668 -0.77748,1.212235 -1.05313,1.212235 -0.28438,0 -0.48477,0.520285 -0.43876,1.139194 0.0605,0.814013 0.52793,1.131472 1.76925,1.201614 2.0582,0.116298 4.23218,-0.983708 6.94158,-3.512348 0.49842,-0.465179 2.26381,-2.317033 3.92307,-4.115229 1.65927,-1.7981971 3.4497,-3.6763911 3.97874,-4.1737651 2.27068,-2.134774 4.58374,-3.870947 6.00816,-4.509711 0.32671,-0.146511 0.57176,-0.33433 0.54456,-0.417376 -0.092,-0.280779 -0.97278,-0.778334 -1.89409,-1.06995704 -1.15355,-0.36513 -3.37179,-0.396906 -4.85892,-0.0696 -4.11456,0.90557504 -8.08949,3.39688104 -10.18841,6.38562704 -2.38723,3.3992951 -2.07532,6.6282621 0.60956,6.3102771 2.49339,-0.295306 4.90179,-2.850386 5.83106,-6.1861831 0.19282,-0.692142 0.38895,-1.137005 0.50159,-1.137646 0.22375,-0.0013 0.14388,0.45692 -0.32955,1.890547 -0.74706,2.2622181 -2.5158,4.3787541 -4.41157,5.2790531 -1.85197,0.879496 -3.90826,0.961828 -4.97905,0.19936 -0.92079,-0.655663 -1.2082,-2.047606 -0.7481,-3.6231561 1.19096,-4.078258 7.10879,-8.214489 13.524,-9.45249504 2.66841,-0.51495 5.5973,-0.326965 7.7952,0.500319 l 0.89708,0.33766104 1.54629,-0.50070104 c 1.35356,-0.438292 3.20459,-0.792898 3.00711,-0.576077 -0.0383,0.04201 -0.47651,0.181124 -0.97388,0.309151 -0.9042,0.232746 -2.92164,1.01476004 -2.92164,1.13250504 0,0.03432 0.13053,0.200644 0.29006,0.369612 1.11114,1.17687 0.99064,3.075202 -0.29692,4.677395 -0.91555,1.139279 -2.98199,2.255412 -4.93209,2.663941 -1.11921,0.234466 -1.20345,0.352021 -0.3348,0.467251 1.86386,0.247251 2.56293,1.1609031 2.13762,2.7937851 -0.29121,1.11801 -0.8285,2.060507 -1.73304,3.040004 -1.95141,2.113133 -4.58288,3.318927 -7.30431,3.346987 -1.47603,0.01521 -2.07288,-0.240433 -2.47703,-1.061025 -0.44663,-0.906823 0.0772,-2.062854 1.19254,-2.631863 0.63425,-0.323573 1.51864,-0.293445 1.87599,0.06391 0.18112,0.181115 0.13654,0.26761 -0.37703,0.73159 -0.61649,0.556962 -1.11878,1.391185 -1.11878,1.858113 0,0.783209 1.45358,0.909392 2.80687,0.243664 2.24755,-1.105645 4.54684,-4.184024 4.67934,-6.264905 0.0493,-0.77358 0.016,-0.917519 -0.29857,-1.29134 -0.37088,-0.440762 -1.14392,-0.7479481 -1.88223,-0.7479481 -0.5377,0 -0.5758,-0.246433 -0.0534,-0.345531 1.30625,-0.247807 2.30072,-0.546504 3.07155,-0.922563 1.90948,-0.931558 3.43805,-3.049361 3.42768,-4.748992 -0.003,-0.530457 -0.0773,-0.872276 -0.21981,-1.014812 -0.19382,-0.193824 -0.30194,-0.150874 -1.10101,0.437367 -1.15796,0.852441 -2.63838,2.341855 -6.20902,6.246717 -3.3174,3.6279251 -4.79688,5.0719391 -6.54902,6.3920261 -1.49678,1.127695 -3.90434,2.344775 -5.39383,2.726716 -1.19774,0.307129 -3.63296,0.471757 -4.31289,0.291567 z m 23.43452,-0.01213 c -1.09822,-0.333241 -1.45005,-0.900214 -1.34795,-2.172186 0.0911,-1.134642 0.70951,-2.29053 1.82434,-3.409798 2.47164,-2.481504 5.7946,-4.1644101 8.221533,-4.1637871 1.16002,2.71e-4 1.79907,0.328718 1.85901,0.9553791 0.14549,1.52103 -1.7307,2.867762 -5.341333,3.834034 -0.98939,0.264779 -2.16445,0.553155 -2.61124,0.640836 -0.76412,0.149957 -0.82794,0.193775 -1.07516,0.73827 -0.14456,0.318368 -0.26421,0.872742 -0.26589,1.231941 -0.0104,2.22225 2.9258,1.94227 6.82021,-0.65034 1.030693,-0.68616 1.886953,-1.453526 3.660833,-3.280787 1.2735,-1.311829 2.31545,-2.441314 2.31545,-2.509969 0,-0.06866 -0.37367,-0.1248291 -0.83038,-0.1248291 -0.68097,0 -0.81598,-0.03755 -0.75031,-0.208689 0.0611,-0.159121 0.32124,-0.208688 1.0954,-0.208688 h 1.01532 l 1.5784,-1.676014 1.5784,-1.676016 1.36676,0.04129 1.36677,0.04129 -1.55099,1.632849 -1.55098,1.632848 2.13197,-0.0081 2.13198,-0.0081 1.59995,-1.665308 1.59994,-1.665307 1.36676,0.04057 1.36677,0.04058 -1.55277,1.634724 -1.55277,1.634725 h 1.53811 c 1.31005,0 1.52624,0.03094 1.45803,0.208688 -0.0651,0.169746 -0.3973,0.208688 -1.78003,0.208688 h -1.69996 l -2.58422,2.7477291 c -2.99513,3.184626 -3.77828,4.108516 -4.06565,4.796292 -0.18226,0.436192 -0.18283,0.518494 -0.005,0.666354 0.12362,0.102595 0.38439,0.134714 0.66554,0.08197 0.68758,-0.128993 2.57261,-1.146331 4.02232,-2.170825 1.27853,-0.903525 1.53305,-1.131337 3.1008,-2.775504 2.31566,-2.428533 5.75462,-4.1811851 8.20285,-4.1805561 1.16002,2.71e-4 1.79907,0.328717 1.85901,0.9553791 0.14548,1.521029 -1.7307,2.867761 -5.34133,3.834033 -0.98939,0.26478 -2.16445,0.553156 -2.61124,0.640836 -0.76412,0.149957 -0.82794,0.193775 -1.07516,0.73827 -0.37336,0.822276 -0.3525,1.787882 0.0487,2.254286 0.82859,0.963292 3.33301,0.388602 6.10442,-1.400778 1.4526,-0.937874 1.59228,-1.067234 4.25812,-3.943496 2.08185,-2.2461691 2.47147,-2.6046521 2.92164,-2.6881331 0.71112,-0.131872 2.57073,-0.136908 2.51356,-0.0068 -0.0255,0.05806 -0.80769,0.8406371 -1.7382,1.7390691 -0.93051,0.898417 -1.66899,1.633498 -1.64108,1.633498 0.0279,0 0.46776,-0.311721 0.97744,-0.692715 1.46249,-1.093231 4.27703,-2.7573021 4.95035,-2.9268461 0.33759,-0.08501 0.90839,-0.134914 1.26846,-0.110909 l 0.65465,0.04364 -0.9221,1.0372181 c -0.89105,1.00227 -1.43003,1.903958 -1.43638,2.402932 -0.002,0.132143 0.14828,0.339421 0.33325,0.460616 0.46464,0.304443 1.14339,0.104127 2.42451,-0.715525 1.16029,-0.742339 1.46826,-0.739737 0.49399,0.0042 -2.05487,1.569008 -4.72658,2.048834 -5.43004,0.975212 -0.28198,-0.430365 -0.17628,-1.42467 0.22347,-2.10221 0.15009,-0.254362 0.22412,-0.462475 0.16453,-0.462475 -0.21371,0 -2.5682,1.682375 -3.95948,2.829189 -0.78004,0.642981 -2.23148,2.004541 -3.22542,3.025692 l -1.80717,1.856637 -1.28837,0.05635 c -0.70861,0.03099 -1.28838,0.0035 -1.28838,-0.0611 0,-0.0646 0.4226,-0.549996 0.9391,-1.078664 l 0.9391,-0.961218 -0.62607,0.373143 c -3.86474,2.303441 -7.70443,2.841673 -8.55386,1.199048 -0.24143,-0.466882 -0.27422,-1.386062 -0.0743,-2.083141 0.0752,-0.262244 0.12217,-0.489096 0.10435,-0.50412 -0.0178,-0.01503 -0.68977,0.440443 -1.49322,1.012149 -2.5475,1.812703 -4.57572,2.607501 -5.80756,2.275801 -0.85893,-0.231285 -1.05787,-0.489845 -0.9549,-1.241071 0.0471,-0.343315 0.24393,-0.894458 0.4375,-1.22476 l 0.35195,-0.600548 -1.29161,0.914731 c -2.38979,1.692486 -4.43918,2.47455 -5.63834,2.151648 -0.859263,-0.231374 -1.057883,-0.489751 -0.954773,-1.242018 0.0471,-0.343835 0.2107,-0.837032 0.36349,-1.095991 0.15278,-0.258959 0.199433,-0.423381 0.10365,-0.365378 -0.0958,0.058 -0.58109,0.366795 -1.07846,0.686211 -2.68124,1.721897 -5.90344,2.644692 -7.52091,2.153888 z m 12.442783,-1.260147 c 2.07257,-1.043671 3.61822,-2.255886 6.24295,-4.896206 1.35821,-1.366281 2.46947,-2.530087 2.46947,-2.586235 0,-0.05615 -0.9591,-0.1174821 -2.13134,-0.1362951 l -2.13134,-0.03421 -2.5851,2.7486561 c -2.98893,3.178038 -3.77923,4.109639 -4.06354,4.79008 -0.42036,1.006061 0.34851,1.045995 2.1989,0.114207 z m -8.288593,-3.944807 c 2.40167,-1.013949 4.47972,-2.794553 4.47972,-3.8384991 0,-0.404936 -0.79261,-0.381827 -1.63935,0.0478 -1.35506,0.6875361 -3.74557,2.7577081 -4.65895,4.0346361 l -0.28792,0.402518 0.51768,-0.09712 c 0.28473,-0.05341 0.9997,-0.300618 1.58882,-0.549337 z m 24.625223,0 c 2.40166,-1.013949 4.47971,-2.794553 4.47971,-3.8384991 0,-0.404936 -0.79261,-0.381827 -1.63935,0.0478 -1.35506,0.6875361 -3.74557,2.7577081 -4.65895,4.0346361 l -0.28791,0.402518 0.51768,-0.09712 c 0.28472,-0.05341 0.99969,-0.300618 1.58882,-0.549337 z M 49.194605,8.7629199 c 0.03047,-0.0914 0.48613,-0.274885 1.01259,-0.407747 1.373889,-0.346729 2.122161,-0.650419 2.962257,-1.202251 0.930676,-0.611332 2.15073,-2.143388 1.511566,-1.898118 -0.101581,0.03898 -0.352007,0.0073 -0.5565,-0.07049 -0.298714,-0.11357 -0.371705,-0.230926 -0.371286,-0.596961 0.001,-1.019107 1.041179,-1.899938 2.025309,-1.715314 0.602414,0.113014 0.828941,0.421535 0.812976,1.107244 -0.04755,2.042463 -3.134292,4.192713 -6.988969,4.868574 -0.325614,0.05709 -0.446872,0.03184 -0.407943,-0.08494 z"
     id="path5688"
     inkscape:connector-curvature="0" />
</svg>
