<?xml version="1.0" encoding="UTF-8" standalone="no"?>
<!-- Created with Inkscape (http://www.inkscape.org/) -->

<svg
   xmlns:dc="http://purl.org/dc/elements/1.1/"
   xmlns:cc="http://creativecommons.org/ns#"
   xmlns:rdf="http://www.w3.org/1999/02/22-rdf-syntax-ns#"
   xmlns:svg="http://www.w3.org/2000/svg"
   xmlns="http://www.w3.org/2000/svg"
   xmlns:sodipodi="http://sodipodi.sourceforge.net/DTD/sodipodi-0.dtd"
   xmlns:inkscape="http://www.inkscape.org/namespaces/inkscape"
   version="1.1"
   id="svg2913"
   width="110.18625"
   height="52.274139"
   viewBox="0 0 110.18625 52.274139"
   sodipodi:docname="monogram.svg"
   inkscape:version="0.92.4 (5da689c313, 2019-01-14)">
  <metadata
     id="metadata2919">
    <rdf:RDF>
      <cc:Work
         rdf:about="">
        <dc:format>image/svg+xml</dc:format>
        <dc:type
           rdf:resource="http://purl.org/dc/dcmitype/StillImage" />
        <dc:title></dc:title>
      </cc:Work>
    </rdf:RDF>
  </metadata>
  <defs
     id="defs2917" />
  <sodipodi:namedview
     pagecolor="#ffffff"
     bordercolor="#666666"
     borderopacity="1"
     objecttolerance="10"
     gridtolerance="10"
     guidetolerance="10"
     inkscape:pageopacity="0"
     inkscape:pageshadow="2"
     inkscape:window-width="1920"
     inkscape:window-height="1017"
     id="namedview2915"
     showgrid="false"
     inkscape:zoom="1.668772"
     inkscape:cx="310.10361"
     inkscape:cy="-148.41326"
     inkscape:window-x="-8"
     inkscape:window-y="-8"
     inkscape:window-maximized="1"
     inkscape:current-layer="svg2913" />
  <path
     style="fill:#fffaf3;stroke-width:0.16537425;fill-opacity:1"
     d="m 62.738277,41.40075 c 0.0566,-5.98035 0.14979,-17.74202 0.20703,-26.13706 L 63.049397,0 l 0.84738,0.0493 c 0.72132,0.0419 0.84714,0.0985 0.84582,0.38002 -8.2e-4,0.18191 -0.0659,11.92141 -0.14463,26.08778 l -0.1431,25.75704 h -0.90977 -0.90977 z M 1.26e-4,48.91917 V 48.3756 l 1.700122,-0.17873 c 1.835999,-0.19302 2.701812,-0.52449 3.4573032,-1.32363 0.651283,-0.68891 0.796738,-1.21957 0.965251,-3.52153 0.195274,-2.66753 0.194317,-29.3315 -0.0012,-31.51161 C 5.9180742,9.5699296 5.7199542,8.9902296 4.866795,8.1685596 4.036555,7.3689496 3.027727,7.0063 1.199013,6.85008 L 5e-5,6.74765 V 6.19112 5.63459 l 6.2245322,0.0433 6.2245348,0.0433 7.8931,16.9979 c 4.34121,9.34885 7.92154,17.0234 7.95631,17.05456 0.0348,0.0312 3.56087,-7.63465 7.8358,-17.03514 l 7.77259,-17.0918 6.24288,-0.004 6.24287,-0.004 v 0.55627 0.55628 l -1.52971,0.0931 c -1.93595,0.11781 -2.54018,0.3023196 -3.39981,1.0381296 -1.33664,1.14411 -1.27201,0.14901 -1.27201,19.5856204 0,15.86651 0.0212,17.18486 0.29083,18.05614 0.56553,1.8277 1.63938,2.48954 4.38823,2.70458 l 1.52247,0.1191 v 0.55747 0.55748 h -9.34364 -9.34365 v -0.54775 -0.54776 l 1.69509,-0.16357 c 2.61473,-0.25231 3.6973,-0.95979 4.24117,-2.77172 0.22,-0.73293 0.2607,-3.02017 0.3005,-16.88904 l 0.046,-16.0413 -0.6263,1.32299 c -0.34446,0.72765 -4.15808,9.0446 -8.47471,18.48211 l -7.84843,17.1591 -0.54521,-0.0429 -0.54522,-0.0429 -8.22176,-17.94311 C 13.204527,21.56832 9.4165672,13.30788 9.3088072,13.08049 c -0.15221,-0.32119 -0.18863,3.23955 -0.16323,15.95862 l 0.0327,16.37205 0.41343,0.8156 c 0.6151098,1.21345 1.6367298,1.72989 3.8908698,1.96686 l 1.73186,0.18206 v 0.54357 0.54357 H 7.6072142 0 Z m 70.947331,0.29766 c -0.11705,-0.14105 -0.15961,-0.42314 -0.0998,-0.6615 0.10194,-0.40616 0.13892,-0.41562 1.63086,-0.4172 2.43241,-0.003 3.72684,-0.78784 4.35898,-2.64437 0.29471,-0.86555 0.3097,-1.72578 0.3097,-17.77773 0,-18.0497504 0.003,-17.9831904 -0.82086,-19.2683604 -0.20884,-0.32585 -0.75068,-0.78695 -1.23361,-1.0498 C 74.364117,7.00132 73.977757,6.91517 72.583307,6.83833 c -0.90652,-0.0499 -1.69005,-0.15852 -1.74119,-0.24126 -0.0511,-0.0827 -0.0459,-0.33811 0.0117,-0.56749 l 0.10467,-0.41706 12.10724,0.079 c 12.38477,0.0808 12.94438,0.10902 15.58011,0.78618 5.900473,1.5159296 9.495983,5.58959 9.506183,10.77036 0.005,2.71077 -0.84955,4.81568 -2.71213,6.6778 -1.16548,1.1652 -2.92408,2.32396 -4.10672,2.70596 -0.34108,0.11018 -0.62015,0.25434 -0.62015,0.32036 0,0.066 0.82738,0.39946 1.83863,0.74096 2.3955,0.80897 3.46101,1.42499 4.79145,2.77012 1.93092,1.95224 2.80696,4.03641 2.84218,6.76181 0.0112,0.86408 -0.0761,1.98035 -0.19388,2.48061 -0.51812,2.20031 -2.39852,5.08133 -4.24025,6.49662 -1.33688,1.02733 -3.6728,2.08544 -5.39781,2.44507 -3.180123,0.66298 -6.490943,0.81106 -18.183333,0.81329 -9.55145,0.002 -11.04566,-0.0306 -11.22257,-0.24381 z m 23.8088,-2.52034 c 3.89192,-0.81995 6.643013,-3.10664 7.624293,-6.33728 0.50831,-1.67349 0.4008,-4.0433 -0.25846,-5.69747 -0.55366,-1.3892 -1.66107,-3.00367 -2.535183,-3.69598 -1.80932,-1.43301 -4.54942,-2.45962 -7.58063,-2.84018 -1.71418,-0.21521 -7.77271,-0.15086 -8.36954,0.0889 -0.27324,0.10977 -0.28824,0.65814 -0.24806,9.07014 l 0.0428,8.95332 1.57105,0.29473 c 3.27071,0.61357 7.29794,0.68121 9.75377,0.16382 z m -0.82356,-21.29862 c 2.99879,-0.47537 4.80325,-1.53721 6.148003,-3.6178 0.90949,-1.40715 1.29384,-2.78416 1.29384,-4.6354 0,-2.34594 -0.70564,-4.21246 -2.210183,-5.84629 -2.05781,-2.2346304 -4.80232,-3.2564304 -9.28333,-3.4562304 -2.15985,-0.0963 -5.51302,0.2393 -6.2312,0.62366 -0.28508,0.15256 -0.30108,0.60418 -0.30108,8.4955604 v 8.33444 l 0.36874,0.11704 c 1.29267,0.41027 7.59084,0.40104 10.21521,-0.015 z"
     id="path2923"
     inkscape:connector-curvature="0" />
</svg>
