<?xml version="1.0" encoding="UTF-8" standalone="no"?>
<!-- Created with Inkscape (http://www.inkscape.org/) -->

<svg
   xmlns:dc="http://purl.org/dc/elements/1.1/"
   xmlns:cc="http://creativecommons.org/ns#"
   xmlns:rdf="http://www.w3.org/1999/02/22-rdf-syntax-ns#"
   xmlns:svg="http://www.w3.org/2000/svg"
   xmlns="http://www.w3.org/2000/svg"
   xmlns:sodipodi="http://sodipodi.sourceforge.net/DTD/sodipodi-0.dtd"
   xmlns:inkscape="http://www.inkscape.org/namespaces/inkscape"
   version="1.1"
   id="svg4560"
   width="509.88104"
   height="127.55713"
   viewBox="0 0 509.88104 127.55713"
   sodipodi:docname="Our_Story.svg"
   inkscape:version="0.92.4 (5da689c313, 2019-01-14)">
  <metadata
     id="metadata4566">
    <rdf:RDF>
      <cc:Work
         rdf:about="">
        <dc:format>image/svg+xml</dc:format>
        <dc:type
           rdf:resource="http://purl.org/dc/dcmitype/StillImage" />
        <dc:title></dc:title>
      </cc:Work>
    </rdf:RDF>
  </metadata>
  <defs
     id="defs4564" />
  <sodipodi:namedview
     pagecolor="#ffffff"
     bordercolor="#666666"
     borderopacity="1"
     objecttolerance="10"
     gridtolerance="10"
     guidetolerance="10"
     inkscape:pageopacity="0"
     inkscape:pageshadow="2"
     inkscape:window-width="1920"
     inkscape:window-height="1017"
     id="namedview4562"
     showgrid="false"
     inkscape:zoom="2.2446825"
     inkscape:cx="191.23612"
     inkscape:cy="51.219582"
     inkscape:window-x="-8"
     inkscape:window-y="-8"
     inkscape:window-maximized="1"
     inkscape:current-layer="svg4560" />
  <path
     style="fill:#fffaf3;stroke-width:0.66666669;fill-opacity:1"
     d="m 384.5477,127.26881 c -5.46302,-0.56552 -7.13116,-1.0947 -9.83403,-3.11964 -8.48646,-6.3579 -3.31987,-20.93681 9.06931,-25.591452 4.01015,-1.50663 12.14332,-2.43121 15.02472,-1.70803 2.90802,0.72987 2.17617,2.41132 -1.04952,2.41132 -7.53455,0 -15.82205,8.830822 -15.98672,17.034822 -0.11369,5.66397 3.30478,8.57987 10.03537,8.56002 7.74849,-0.0229 17.59581,-4.3881 28.7148,-12.72906 4.80023,-3.60092 32.02607,-30.436257 32.02607,-31.566724 0,-0.298227 -1.575,0.5283 -3.5,1.83672 -5.95151,4.045233 -14.28958,7.737073 -18.2082,8.062033 -5.19248,0.430607 -6.72355,-0.132667 -7.60288,-2.797053 -1.28931,-3.906653 0.59044,-8.37954 6.54106,-15.56458 4.55185,-5.496093 4.5652,-5.262113 -0.28265,-4.953426 -5.36159,0.3414 -8.13869,-0.713467 -9.31971,-3.540047 -0.8985,-2.15042 -0.40122,-6.318212 1.08527,-9.095732 1.04425,-1.951214 -0.10205,-1.504218 -5.26692,2.053804 -8.40011,5.786748 -18.19635,14.272508 -27.29297,23.641881 l -8.83874,9.103773 -6.8238,-0.18988 -6.82379,-0.189887 10.62549,-11.321913 10.6255,-11.321913 -2.95883,-0.497213 c -1.68179,-0.282613 -3.43593,-1.07804 -4.06424,-1.842967 -1.08456,-1.32036 -1.14862,-1.28604 -3.39549,1.819127 -10.83127,14.968773 -28.36975,25.498213 -42.47139,25.498213 -6.16955,0 -9.12309,-0.979074 -11.32014,-3.752547 -1.3263,-1.674267 -1.47489,-2.457113 -1.18583,-6.247453 0.18176,-2.383333 0.5622,-4.901027 0.84544,-5.59488 0.32018,-0.784387 -2.26494,0.660547 -6.83469,3.820187 -10.517,7.271726 -17.66479,10.564533 -23.78538,10.957326 -7.87024,0.50508 -10.67993,-1.909247 -9.09063,-7.81146 1.18679,-4.407393 5.68292,-10.234733 17.11618,-22.183933 l 11.02314,-11.520573 -4.06457,-0.198478 c -4.27691,-0.208847 -4.56476,-0.420067 -3.13653,-2.301522 0.69615,-0.917059 1.89128,-1.166666 5.58608,-1.166666 h 4.70046 l 7.22604,-7.606371 7.22606,-7.60637 7.23869,-0.443043 c 4.73869,-0.290031 7.15626,-0.212257 7,0.225193 -0.13128,0.367528 -3.33737,3.989764 -7.12463,8.049412 l -6.88594,7.381179 h 7.0526 c 3.87894,0 7.04307,0.225 7.03141,0.5 -0.0117,0.275 -0.41973,1.025 -0.90683,1.666666 -0.75662,0.996718 -2.04715,1.166667 -8.85922,1.166667 h -7.97358 l -12.4108,13.166666 c -12.98888,13.77996 -18.76865,20.544687 -19.48694,22.807813 -2.69309,8.485179 20.84046,-4.1925 34.9919,-18.850373 10.26727,-10.634697 16.12319,-14.813843 26.66667,-19.030979 10.53548,-4.213936 19.57404,-4.390008 23.85725,-0.464741 2.33824,2.142842 2.38756,2.295546 2.80898,8.698244 0.49071,7.45553 1.09311,8.340036 5.68003,8.340036 2.68922,0 2.96417,-0.22472 11.01165,-8.999999 l 8.25356,-9 h 5.44427 c 2.99434,0 6.38176,-0.1875 7.52759,-0.416667 1.374,-0.274801 2.08334,-0.153768 2.08334,0.355477 0,0.424679 -2.625,3.334207 -5.83334,6.465618 l -5.83333,5.693474 4,-2.596774 c 2.2,-1.428226 6.95338,-4.346381 10.56307,-6.484789 5.91001,-3.501135 7.11898,-3.956888 12.14978,-4.580173 3.07269,-0.380688 5.79096,-0.487908 6.0406,-0.238268 0.24964,0.24964 -1.40077,2.54072 -3.66758,5.091289 -7.24098,8.147401 -9.34909,13.534372 -5.65892,14.460546 0.96816,0.242993 2.43143,0.173706 3.25171,-0.153967 0.82028,-0.327673 5.04386,-4.345767 9.38573,-8.9291 l 7.89432,-8.333333 6.68731,-0.379927 c 3.67803,-0.20896 6.93725,-0.169025 7.24273,0.08874 0.30547,0.257769 -6.20271,7.415714 -14.46262,15.906543 -19.24463,19.782646 -23.66526,26.192919 -17.35713,25.169252 7.03353,-1.141386 25.51635,-15.870959 40.25427,-32.079953 l 8.10016,-8.908692 6.12162,-0.272958 c 3.36689,-0.150128 6.35668,-0.155293 6.64399,-0.01148 0.64089,0.320804 0.0226,1.0356 -19.16398,22.155135 -8.49424,9.349999 -16.44145,18.137039 -17.66045,19.526752 l -2.21638,2.526747 3.59256,-1.403613 c 11.28842,-4.410417 26.4759,-14.528484 39.72016,-26.462024 5.82932,-5.252409 8.20572,-6.595833 8.20572,-4.638852 0,0.812744 -9.56992,9.538646 -16.66667,15.196752 -9.84497,7.849207 -26.5,17.292926 -34.62947,19.635566 -3.13576,0.90362 -4.62415,1.95988 -9.70386,6.88652 -9.82742,9.531282 -19.2242,16.464022 -29.01397,21.405882 -5.98623,3.02184 -17.00871,6.51918 -21.98603,6.976 -2.38334,0.21874 -5.38334,0.48972 -6.66667,0.60218 -1.28333,0.11246 -4.28333,0.003 -6.66667,-0.2441 z M 340.10148,87.244066 c 9.23526,-4.34108 24.86044,-21.2275 30.51957,-32.983059 2.35919,-4.900668 2.45007,-6.790101 0.37216,-7.73686 -2.26419,-1.031636 -6.18384,0.218402 -11.21088,3.575332 -13.13571,8.771687 -31.35794,33.329854 -27.85906,37.545747 1.12395,1.354286 4.83045,1.172473 8.17821,-0.40116 z M 8.4086054,90.641432 C -9.8164706,84.750273 3.0008424,52.140158 33.217094,27.52308 46.724479,16.518655 64.087533,7.585673 74.707793,6.176846 c 1.945253,-0.258048 4.847953,-1.354905 6.974703,-2.635568 6.13446,-3.69397746 13.11451,-4.5800422 17.88552,-2.270432 3.478464,1.683892 4.313024,3.503534 4.313024,9.403986 0,12.297929 -9.444484,28.332979 -27.918474,47.400594 -2.387867,2.4646 -4.10768,4.7146 -3.821813,5 0.285873,0.285407 3.11938,0.489587 6.296683,0.45374 8.91913,-0.10062 10.49699,-0.930653 19.4436,-10.228335 l 7.666664,-7.967512 6.83334,-0.226386 c 3.80847,-0.126174 6.83333,0.04117 6.83333,0.37804 0,0.332434 -6.825,7.571678 -15.16667,16.087207 -9.148024,9.338693 -16.056324,16.974693 -17.408554,19.242319 -3.57403,5.993473 -1.79399,7.33764 5.09423,3.846807 8.526474,-4.32106 15.692804,-10.196793 29.898644,-24.51414 l 14.08432,-14.194877 4.91568,-0.377486 c 2.70363,-0.207618 5.74068,-0.505657 6.74902,-0.662308 1.19538,-0.185712 1.83333,0.01282 1.83333,0.570528 0,0.470442 -6.69831,7.777341 -14.88515,16.23755 -15.29457,15.805306 -19.34822,20.581906 -20.13832,23.72994 -0.38814,1.546479 -0.24666,1.810493 0.97021,1.810493 1.66375,0 8.41481,-3.294287 12.71993,-6.206893 8.53454,-5.774 13.40017,-10.19766 24.65595,-22.416333 l 12.32262,-13.376773 h 5.42738 c 2.98506,0 6.36488,-0.1875 7.51071,-0.416667 1.374,-0.274801 2.08334,-0.153768 2.08334,0.355477 0,0.424679 -2.625,3.334207 -5.83334,6.465618 l -5.83333,5.693474 4,-2.596774 c 2.2,-1.428226 6.95338,-4.346381 10.56307,-6.484789 5.91001,-3.501135 7.11898,-3.956888 12.14978,-4.580173 3.07269,-0.380688 5.79096,-0.487908 6.0406,-0.238268 0.24964,0.24964 -1.40077,2.54072 -3.66758,5.091289 -8.95166,10.072219 -9.9,15.824872 -2.3761,14.413379 1.24329,-0.233247 4.48476,-1.91174 7.20328,-3.729987 2.7185,-1.818253 5.12519,-3.305913 5.34818,-3.305913 1.21672,0 0.0829,2.03186 -2.09456,3.753693 -6.16678,4.876307 -13.05767,7.57964 -19.32078,7.57964 -6.6083,0 -9.38334,-2.97722 -8.09978,-8.689906 0.34801,-1.54888 0.93306,-3.377283 1.30011,-4.063119 1.04425,-1.951214 -0.10205,-1.504218 -5.26692,2.053804 -8.40011,5.786748 -18.19635,14.272508 -27.29297,23.641881 l -8.83874,9.103773 -6.80827,-0.18988 -6.80826,-0.189887 2.55823,-2.829113 2.55824,-2.829113 -3.86694,2.328547 c -8.16795,4.918479 -16.32673,6.459255 -19.70674,3.721586 -1.91222,-1.548827 -2.07262,-5.85834 -0.34239,-9.19856 1.07579,-2.076806 0.95587,-2.029773 -4.06147,1.592914 -7.844404,5.663913 -13.956524,8.357506 -19.817844,8.733659 -4.29672,0.275747 -5.016597,0.148967 -6.269763,-1.1042 -3.610814,-3.610813 -0.471414,-11.160913 8.853943,-21.293299 l 2.64839,-2.877587 -1.95903,0.541927 c -2.55143,0.7058 -12.167397,0.51884 -14.23333,-0.276733 -1.414067,-0.544547 -2.417453,0.0312 -8.333333,4.781753 -8.38366,6.73222 -14.441654,10.745373 -21.725694,14.392326 -9.866452,4.9399 -14.033891,6.112507 -22.666666,6.377773 -4.216667,0.129574 -8.4792586,-0.02707 -9.4724276,-0.34812 z M 31.895223,85.390553 C 41.080344,81.494226 56.065579,70.64892 61.807106,63.742333 l 1.5396,-1.852 -1.70354,-1.340007 c -0.93694,-0.737 -2.673793,-3.310879 -3.859667,-5.719734 C 55.873893,50.951631 55.622806,49.792081 55.587526,44.689265 55.508206,33.215066 60.093533,23.533929 70.734333,12.70936 l 4.1467,-4.218313 -4.659667,1.748535 c -21.500833,8.068171 -47.188887,36.17936 -55.284615,60.499571 -2.620072,7.8709 -2.530257,12.483213 0.298162,15.311633 1.945094,1.945093 2.200271,2.010206 6.833333,1.743666 3.46041,-0.199073 6.221757,-0.87456 9.826977,-2.403899 z M 70.778926,54.210943 C 82.562256,40.254951 93.178666,19.828625 93.404056,10.67945 93.481456,7.53866 93.265496,6.90282 91.649476,5.512784 89.649876,3.7928 87.665366,3.53574 84.799216,4.62545 l -1.8353,0.697776 2.10734,1.281544 c 2.35838,1.43422 3.13522,3.550818 2.64127,7.196505 -0.57113,4.215331 -2.25376,7.459732 -3.8688,7.459732 -1.11418,0 -1.3271,-0.263144 -0.94398,-1.166666 2.60585,-6.145465 2.89899,-8.780206 1.14795,-10.317821 -1.97854,-1.737398 -3.96906,-2.00906 -5.82249,-0.794645 -2.388727,1.565154 -8.581067,10.218639 -11.365913,15.8833 -4.493794,9.140827 -6.676554,21.644403 -4.898887,28.062498 0.89188,3.220033 3.103567,6.492513 4.155953,6.149273 0.420567,-0.137173 2.518727,-2.326872 4.662567,-4.866003 z M 227.18141,90.353019 c -8.39253,-2.26348 -12.87193,-7.943333 -12.74757,-16.163833 0.18737,-12.38522 11.18098,-22.869472 19.4803,-18.577726 1.56226,0.807871 1.96638,1.45934 1.9644,3.166666 -10e-4,1.182254 -0.5896,3.112447 -1.30718,4.28932 -1.35485,2.222054 -5.66947,4.860227 -7.94868,4.860227 -1.60644,0 -4.79897,6.31794 -5.22156,10.333333 -0.72671,6.905113 9.60054,12.022966 20.69153,10.25406 5.04149,-0.804067 9.86141,-2.938633 14.56529,-6.45044 9.35004,-6.98052 16.52172,-18.01406 25.20546,-38.77827 6.38678,-15.271835 10.7383,-22.510573 18.10983,-30.125677 4.92731,-5.090121 10.15968,-8.609822 16.44347,-11.06117 3.80511,-1.48439716 5.54721,-1.74872186 11.79767,-1.79003316 8.16703,-0.05398 11.37779,0.97230816 13.91851,4.44890416 2.65263,3.629712 1.14618,11.075901 -3.0286,14.970063 -2.23,2.080104 -6.96649,3.973877 -11.05658,4.42071 -4.19537,0.458336 -4.34296,-0.02471 -1.14798,-3.757322 1.2936,-1.511287 3.0936,-4.315399 4,-6.231359 3.52848,-7.458604 1.33001,-12.045926 -5.44367,-11.358746 -4.38467,0.44482 -6.95899,1.803128 -11.45215,6.04259 -6.33922,5.981294 -10.21204,12.700829 -19.4165,33.688521 -9.30634,21.220009 -13.27348,27.487103 -22.53094,35.593302 -6.19374,5.423467 -16.27222,10.702953 -23.17542,12.140153 -5.62084,1.170216 -17.50616,1.217716 -21.69963,0.08673 z"
     id="path4570"
     inkscape:connector-curvature="0" />
</svg>
