<?xml version="1.0" encoding="UTF-8" standalone="no"?>
<!-- Created with Inkscape (http://www.inkscape.org/) -->

<svg
   xmlns:dc="http://purl.org/dc/elements/1.1/"
   xmlns:cc="http://creativecommons.org/ns#"
   xmlns:rdf="http://www.w3.org/1999/02/22-rdf-syntax-ns#"
   xmlns:svg="http://www.w3.org/2000/svg"
   xmlns="http://www.w3.org/2000/svg"
   xmlns:sodipodi="http://sodipodi.sourceforge.net/DTD/sodipodi-0.dtd"
   xmlns:inkscape="http://www.inkscape.org/namespaces/inkscape"
   version="1.1"
   id="svg9077"
   width="54.745377"
   height="51.120224"
   viewBox="0 0 54.745376 51.120224"
   sodipodi:docname="rings.svg"
   inkscape:version="0.92.4 (5da689c313, 2019-01-14)">
  <metadata
     id="metadata9083">
    <rdf:RDF>
      <cc:Work
         rdf:about="">
        <dc:format>image/svg+xml</dc:format>
        <dc:type
           rdf:resource="http://purl.org/dc/dcmitype/StillImage" />
      </cc:Work>
    </rdf:RDF>
  </metadata>
  <defs
     id="defs9081" />
  <sodipodi:namedview
     pagecolor="#ffffff"
     bordercolor="#666666"
     borderopacity="1"
     objecttolerance="10"
     gridtolerance="10"
     guidetolerance="10"
     inkscape:pageopacity="0"
     inkscape:pageshadow="2"
     inkscape:window-width="1920"
     inkscape:window-height="1017"
     id="namedview9079"
     showgrid="false"
     inkscape:zoom="3.6509901"
     inkscape:cx="-28.048859"
     inkscape:cy="10.246086"
     inkscape:window-x="-8"
     inkscape:window-y="-8"
     inkscape:window-maximized="1"
     inkscape:current-layer="svg9077" />
  <path
     style="fill:#fffaf3;fill-opacity:1;stroke-width:0.31999999"
     d="m 0.57924212,21.00922 c -1.4595251,-5.475383 -0.119,-11.3638302 3.54875498,-15.5883922 0.610292,-0.702943 2.065523,-1.926409 3.233845,-2.7188147 3.9100489,-2.6519592 8.2935689,-3.3533525 13.1075269,-2.0972952 9.026097,2.35509 14.244876,11.2667911 11.834894,20.2095231 -1.318481,4.892489 -5.08834,9.211765 -9.556635,10.949414 -2.393462,0.930779 -5.788448,1.481512 -7.510713,1.218384 l -1.215751,-0.185742 0.244344,-1.048515 0.244342,-1.048518 2.809852,-0.144156 c 2.543406,-0.130487 3.063332,-0.273801 5.483035,-1.511369 2.238595,-1.144936 2.906737,-1.633392 4.109739,-3.004496 2.864755,-3.265057 3.983543,-6.739218 3.616509,-11.230298 C 30.349187,12.608912 30.202201,12.185761 28.733849,9.6410238 26.862371,6.3976478 25.079169,4.7409948 22.106873,3.4843487 18.118959,1.7983128 14.166427,1.9820101 10.101742,4.0422959 5.3643211,6.4435738 2.6873551,10.478698 2.3938441,15.660797 c -0.302669,5.3438 1.723803,9.511636 6.122401,12.591921 l 1.6714459,1.170491 -0.3029129,1.130487 -0.302914,1.130493 -2.179736,-1.463131 C 4.0036661,27.939869 1.5400421,24.613637 0.57924212,21.00922 Z M 11.140927,39.305793 c -0.926619,-3.476834 -0.901464,-5.981597 0.09542,-9.501437 1.924489,-6.79507 8.525465,-11.639398 15.860722,-11.639872 2.083745,-1.35e-4 2.50437,0.297629 2.117398,1.498918 -0.232789,0.722658 -0.388449,0.772393 -2.8265,0.903078 -3.544656,0.190004 -6.357407,1.318771 -8.789133,3.527116 -6.867682,6.236811 -6.26038,16.940825 1.264574,22.288724 1.971484,1.401111 6.408298,2.650526 8.771596,2.470099 3.782418,-0.288774 6.41952,-1.429655 9.069658,-3.923787 2.020539,-1.901595 3.325121,-4.197413 4.003979,-7.046259 l 0.551406,-2.313986 1.011529,0.698176 c 0.981042,0.677135 1.004407,0.730973 0.775236,1.786295 -1.10873,5.105653 -4.192583,9.08756 -8.764553,11.316887 -4.095614,1.997054 -8.103082,2.278516 -12.520571,0.879373 -5.0752,-1.607455 -9.290067,-5.950334 -10.620761,-10.943325 z m 22.469539,-18.581343 0.308976,-1.024137 1.387184,0.801603 c 1.974248,1.140848 3.725905,2.772413 5.104292,4.754345 l 1.192814,1.715105 -0.702987,1.022653 -0.702984,1.022656 -1.356083,-2.052873 C 37.629976,25.129496 36.484604,24.036784 33.60024,21.963345 33.435928,21.845229 33.440531,21.287727 33.61047,20.72445 Z m 5.869921,11.678134 c 0.397337,-0.365569 8.352897,-5.728778 8.478846,-5.715984 0.18501,0.01879 1.595386,7.765381 1.495234,8.212679 -0.03831,0.171112 -2.324417,-0.296482 -5.080232,-1.039096 -2.755814,-0.742616 -4.958046,-1.398534 -4.893848,-1.457599 z m 4.414372,2.479666 c 1.244909,0.297388 3.089553,0.746844 4.099211,0.998793 l 1.835739,0.458085 0.327815,1.902295 c 0.180299,1.046264 0.278722,1.885992 0.218718,1.866063 -0.06,-0.01993 -2.052167,-1.325418 -4.427026,-2.901088 l -4.317928,-2.864854 z m -1.682421,-6.857405 c 0.83441,-1.10676 2.279498,-3.041306 3.211305,-4.298994 l 1.694195,-2.286706 0.20073,0.871682 c 0.708556,3.076932 0.82208,2.796463 -1.873374,4.628268 -1.342185,0.912137 -2.932064,2.030736 -3.533061,2.485779 -0.600997,0.455043 -1.120665,0.778951 -1.154814,0.719803 -0.03415,-0.05915 0.620608,-1.013075 1.45502,-2.119831 z m 8.998439,9.826878 c -0.294273,-1.783312 -0.240669,-1.975361 1.203955,-4.313522 1.404668,-2.273494 1.524036,-2.393994 1.682438,-1.698415 0.433609,1.904066 0.755954,4.295322 0.614463,4.558285 -0.404433,0.751667 -3.012704,3.731819 -3.097175,3.538767 -0.05264,-0.120288 -0.234289,-1.058591 -0.403681,-2.085115 z m -1.316095,-7.448614 c -0.2858,-1.612651 -0.439574,-2.978792 -0.341718,-3.03587 0.189005,-0.110231 3.794341,2.635027 3.726151,2.837256 -0.02208,0.06547 -0.593995,0.959741 -1.270924,1.987264 -0.780306,1.184429 -1.297231,1.73558 -1.412327,1.505832 -0.09985,-0.19931 -0.41538,-1.681831 -0.701182,-3.294482 z m -1.287441,-7.358251 -0.29877,-1.923561 2.07881,1.211784 c 1.143345,0.66648 2.161186,1.354608 2.261869,1.529174 0.100683,0.174566 0.32472,1.150128 0.49786,2.167916 0.17314,1.017788 0.355561,2.076405 0.405381,2.352482 0.07618,0.422154 -4.356448,-2.724124 -4.576797,-3.248609 -0.03827,-0.09109 -0.204028,-1.031225 -0.368353,-2.089186 z"
     id="path9087"
     inkscape:connector-curvature="0" />
</svg>
