<?xml version="1.0" encoding="UTF-8" standalone="no"?>
<!-- Created with Inkscape (http://www.inkscape.org/) -->

<svg
   xmlns:dc="http://purl.org/dc/elements/1.1/"
   xmlns:cc="http://creativecommons.org/ns#"
   xmlns:rdf="http://www.w3.org/1999/02/22-rdf-syntax-ns#"
   xmlns:svg="http://www.w3.org/2000/svg"
   xmlns="http://www.w3.org/2000/svg"
   xmlns:sodipodi="http://sodipodi.sourceforge.net/DTD/sodipodi-0.dtd"
   xmlns:inkscape="http://www.inkscape.org/namespaces/inkscape"
   version="1.1"
   id="svg10"
   width="692"
   height="106.66667"
   viewBox="0 0 692 106.66667"
   sodipodi:docname="Say_I_Do.svg"
   inkscape:version="0.92.4 (5da689c313, 2019-01-14)">
  <metadata
     id="metadata16">
    <rdf:RDF>
      <cc:Work
         rdf:about="">
        <dc:format>image/svg+xml</dc:format>
        <dc:type
           rdf:resource="http://purl.org/dc/dcmitype/StillImage" />
        <dc:title />
      </cc:Work>
    </rdf:RDF>
  </metadata>
  <defs
     id="defs14" />
  <sodipodi:namedview
     pagecolor="#ffffff"
     bordercolor="#666666"
     borderopacity="1"
     objecttolerance="10"
     gridtolerance="10"
     guidetolerance="10"
     inkscape:pageopacity="0"
     inkscape:pageshadow="2"
     inkscape:window-width="1920"
     inkscape:window-height="1017"
     id="namedview12"
     showgrid="false"
     inkscape:zoom="7.214124"
     inkscape:cx="281.37843"
     inkscape:cy="43.964698"
     inkscape:window-x="-8"
     inkscape:window-y="-8"
     inkscape:window-maximized="1"
     inkscape:current-layer="svg10" />
  <path
     style="fill:#fffaf3;stroke-width:0.66666669;fill-opacity:1"
     d="m 257.59977,87.754409 c -2.3014,-1.046066 -2.93429,-2.192566 -2.93061,-5.308933 0.006,-4.838434 4.44558,-8.409727 11.16417,-8.980114 3.80724,-0.323213 4.91714,0.784114 1.53131,1.527767 -2.78782,0.612307 -5.23144,2.7309 -6.41381,5.56072 -2.94324,7.044174 4.09294,8.721867 13.71584,3.27038 2.04168,-1.15664 7.21209,-5.583927 11.66666,-9.98986 7.5094,-7.427396 7.77652,-7.778639 4.3557,-5.727527 -2.80449,1.68156 -4.41763,2.18988 -7,2.205807 l -3.3557,0.02069 v -2.353027 -2.353025 l -3.2461,2.138918 c -5.90638,3.891834 -12.42056,4.376414 -12.42056,0.92394 0,-1.1889 -0.16635,-1.169973 -2.83741,0.322913 -1.56057,0.872221 -4.07752,1.784161 -5.59321,2.026527 -2.27748,0.364187 -2.99998,0.196494 -4.16259,-0.96612 -1.84841,-1.848413 -1.77482,-3.739797 0.30816,-7.919803 4.56835,-9.167465 21.40861,-18.194999 25.35145,-13.590104 0.70148,0.819273 1.4778,1.162567 1.8944,0.837717 0.90642,-0.706792 6.74162,-1.47662 7.2604,-0.95785 0.2168,0.216811 -3.06725,4.030736 -7.2979,8.47539 -8.12783,8.538954 -10.47158,11.747857 -8.58053,11.747857 3.43485,0 10.75649,-5.526039 18.32827,-13.833334 l 6.22833,-6.833333 h 3.55031 c 1.95268,0 3.55032,0.193576 3.55032,0.430168 0,0.236592 -3.56813,4.096762 -7.92918,8.578156 -7.99794,8.218654 -9.88093,10.618323 -8.8379,11.262956 1.76542,1.091087 10.35746,-5.316375 18.71896,-13.959567 5.91434,-6.113588 6.19927,-6.311713 9.07706,-6.311713 1.63408,0 2.97106,0.237006 2.97106,0.526682 0,0.289674 -3.675,4.579455 -8.16667,9.532844 -10.85775,11.973881 -10.53582,11.557474 -8.11219,10.492861 5.3032,-2.3295 10.35534,-5.765458 17.80305,-12.107862 4.48867,-3.822515 5.92605,-3.652595 2.11522,0.250052 -5.26787,5.394794 -19.80342,14.638757 -23.01851,14.638757 -0.40794,0 -2.94158,2.025 -5.63031,4.5 -8.98746,8.273053 -17.30386,12.263213 -26.32393,12.630073 -3.8896,0.1582 -6.31484,-0.06413 -7.73356,-0.709 z m 7.15652,-22.921074 c 6.98926,-5.312006 13.00193,-14.334673 10.55878,-15.844619 -2.30544,-1.424843 -12.90813,7.536498 -16.30826,13.78367 -3.27844,6.023556 -0.68669,6.95259 5.74948,2.060949 z m -42.91854,5.699247 c -1.39987,-0.371866 -3.2602,-1.571627 -4.23704,-2.732553 -1.52549,-1.812935 -1.7079,-2.533701 -1.47078,-5.811748 0.34604,-4.784042 2.29764,-7.663385 5.93228,-8.752349 2.26244,-0.677844 2.82064,-0.638799 3.71962,0.260181 1.63628,1.63628 0.6429,4.150417 -2.16667,5.483648 -2.65481,1.25979 -4.63296,4.863668 -3.91365,7.130036 0.56555,1.781865 4.17319,3.223538 8.0666,3.223538 7.0942,0 12.96596,-5.319972 18.35379,-16.629045 6.78221,-14.235877 7.60057,-15.689282 10.81325,-19.204462 1.8017,-1.971349 4.78458,-4.348818 6.62862,-5.283264 3.7942,-1.922671 9.84406,-2.702906 12.61109,-1.626424 5.46102,2.124543 3.00621,10.35398 -3.34257,11.20553 C 271.27453,38.004609 270,37.999382 270,37.784053 c 0,-0.215328 0.76431,-1.517783 1.69847,-2.894345 1.10915,-1.634423 1.62961,-3.206069 1.5,-4.529606 -0.1717,-1.753396 -0.49308,-2.055121 -2.38266,-2.23698 -2.76832,-0.266431 -6.06642,1.721932 -8.36091,5.040638 -0.95175,1.376599 -3.26257,5.802908 -5.13514,9.836241 -6.88745,14.834881 -7.5477,15.988314 -11.30867,19.755776 -4.38382,4.391392 -8.84973,6.838719 -14.327,7.851252 -4.58216,0.847053 -6.43006,0.833087 -9.84634,-0.07445 z m 218.83999,-0.01627 c -4.34032,-2.301641 -2.89911,-8.485183 3.43276,-14.72835 4.76081,-4.694117 10.88128,-7.762494 16.50007,-8.271989 3.5935,-0.325847 4.09422,-0.205092 5.66565,1.366341 1.26806,1.268056 1.72378,2.415204 1.72378,4.339118 0,4.5108 2.55547,5.121204 7.12219,1.701222 2.33184,-1.7463 2.87781,-1.92213 2.87781,-0.9268 0,0.364366 -1.24501,1.564366 -2.76669,2.666666 -2.77116,2.007416 -5.9617,2.577989 -7.82324,1.39905 -0.66868,-0.423484 -2.02317,0.591091 -4.91214,3.679405 -6.47245,6.91908 -17.19148,11.229907 -21.82019,8.775341 z m 7.65559,-2.422494 c 5.41712,-3.343788 14.61015,-14.833105 14.19396,-17.7394 -0.47034,-3.284457 -6.95847,0.442268 -12.84017,7.375284 -3.79029,4.467786 -6.35379,8.735202 -6.35379,10.577069 0,1.413874 2.5397,1.305701 5,-0.212953 z m -118.98629,1.82882 c -2.92375,-1.16654 -4.01371,-2.635827 -4.01371,-5.410581 0,-3.149457 2.88748,-6.512059 5.59193,-6.512059 3.19607,0 3.51915,4.335002 0.44568,5.979875 -2.07966,1.113 -1.77785,3.689818 0.54486,4.651918 2.42115,1.002867 5.95811,0.392494 10.75087,-1.855286 2.9223,-1.370551 6.64411,-4.712447 18.33333,-16.461915 14.50527,-14.580033 14.7437,-14.781019 21.66667,-18.264266 l 7,-3.522006 L 383,28.920226 c -18.05033,1.061097 -30.1816,6.303083 -34.08508,14.72835 -1.32931,2.869171 -1.41865,3.509531 -0.65172,4.67152 2.37167,3.593398 10.58808,0.353869 13.09183,-5.161791 0.7053,-1.553734 1.28894,-3.34997 1.297,-3.991637 0.008,-0.641667 0.31464,-1.166667 0.6813,-1.166667 0.99216,0 0.80595,3.796881 -0.29017,5.916541 -3.6221,7.004362 -15.4386,11.02135 -19.74701,6.712942 -2.58232,-2.582319 -1.0327,-8.852063 3.1428,-12.715731 7.45858,-6.901567 19.81394,-10.175469 42.49322,-11.25978 7.31928,-0.349938 13.44085,-0.503178 13.6035,-0.340531 0.16264,0.162647 0.11807,0.75866 -0.0991,1.324474 -0.2903,0.756536 -1.37556,1.028752 -4.10136,1.028752 -7.08138,0 -14.45006,5.0843 -26.63138,18.375327 -12.89044,14.064759 -20.61297,20.072154 -28.99154,22.552661 -4.00111,1.184546 -10.80027,1.3514 -13.36529,0.327986 z m 67.80289,0.338407 c -0.22308,-0.223087 -3.79808,-0.448087 -7.94444,-0.5 -7.06292,-0.08842 -7.53882,-0.178547 -7.53882,-1.427714 0,-1.398526 1.59442,-1.5341 11.06024,-0.940486 4.94044,0.309826 8.1647,-2.10577 23.27309,-17.436084 8.24339,-8.364477 15.20458,-14.829909 17.54221,-16.292911 4.34334,-2.718267 4.31965,-3.750457 -0.11437,-4.982056 -5.88224,-1.633861 -14.04277,-0.416096 -21.07478,3.14491 -7.60073,3.849008 -15.82458,14.427911 -15.95876,20.528855 -0.0786,3.575206 1.11141,4.977772 4.22347,4.977772 4.92208,0 10.75146,-5.151919 14.89526,-13.164201 2.25141,-4.353247 3.61342,-5.468225 2.8533,-2.335799 -1.42795,5.884632 -9.82022,15.173783 -15.43811,17.087992 -7.68975,2.620162 -12.37267,0.390983 -12.37267,-5.889687 0,-13.151787 21.88394,-28.250105 38.8811,-26.825124 3.13428,0.262767 5.59731,0.939686 7.81911,2.148944 3.04501,1.657302 3.36265,1.703736 5.19011,0.758721 2.08188,-1.076585 9.37752,-3.11418 11.15036,-3.11418 2.05372,0 1.05134,1.188529 -1.38839,1.646224 -1.35235,0.253703 -4.18822,1.334275 -6.30193,2.401271 l -3.8431,1.939993 1.0466,2.504872 c 1.5631,3.741041 0.8794,9.481682 -1.8035,15.142669 -4.53881,9.577045 -15.32358,17.514732 -27.18283,20.006812 -4.77929,1.004314 -16.1724,1.419947 -16.97315,0.619207 z m 13.10363,-1.934947 c 9.09569,-2.369123 18.78797,-10.110944 25.02972,-19.992767 2.38535,-3.776434 5.05617,-11.820484 4.44956,-13.401288 -0.56345,-1.468313 -4.81852,2.382299 -15.69757,14.205439 -9.65096,10.488485 -15.07742,14.777977 -22.20145,17.549743 -3.84855,1.497366 -4.44879,1.911186 -3.13093,2.158526 3.44238,0.646074 7.83362,0.448514 11.55067,-0.519653 z m 128.41311,0.581013 c -0.91667,-0.13456 -3.9113,-0.57674 -6.65474,-0.982633 -11.9565,-1.768952 -21.81766,-5.571426 -27.56228,-10.628042 -4.14777,-3.65101 -5.96027,-7.264084 -6.04769,-12.055575 -0.0877,-4.804772 1.28777,-6.574197 5.11037,-6.574197 2.61787,0 2.63568,0.01735 2.22475,2.166667 -1.33385,6.976424 -1.2978,7.757473 0.4823,10.447385 4.62071,6.982363 22.82593,10.771594 36.64901,7.628119 2.63906,-0.60014 10.37529,-3.134571 17.19164,-5.632067 C 589.63487,42.4406 609.28537,38.5373 629,39.582792 c 19.16104,1.016134 32.31357,5.022973 39.23233,11.951891 6.16727,6.176313 5.8846,16.283486 -0.43833,15.671292 -2.29577,-0.22228 -2.30987,-0.276213 -1.44885,-5.539306 1.26018,-7.702983 -10.81392,-13.657974 -25.95052,-12.798873 -7.5789,0.430151 -10.14901,1.160872 -29.72796,8.452124 -14.75342,5.494211 -29.82693,9.534789 -41.06616,11.008122 -6.86342,0.89972 -26.27403,1.263074 -30.93384,0.579073 z m 24.00858,-5.923977 c 8.57964,-1.590501 16.86427,-3.92412 32.99142,-9.293044 16.23934,-5.406274 26.12566,-8.047812 33.66666,-8.995431 4.81906,-0.605575 4.74669,-0.616524 -2,-0.30256 -14.2455,0.662928 -24.30113,2.930126 -49.70916,11.207703 -16.39252,5.340447 -24.26067,7.506131 -30.62417,8.429206 -3.31868,0.481399 -2.80623,0.531073 3.00858,0.291628 3.85472,-0.158731 9.55472,-0.760607 12.66667,-1.337502 z M 120.66667,67.659502 C 109.90427,66.181471 98.865787,63.420736 85.666667,58.90597 78.7,56.523018 68.95,53.183032 64,51.483778 55.068434,48.417719 54.931566,48.393995 46,48.363781 c -7.683681,-0.02599 -9.694808,0.197275 -13.750577,1.526545 -5.388549,1.766084 -9.325484,4.664439 -10.653641,7.843164 -0.757063,1.811907 -0.759844,2.583949 -0.01699,4.716529 1.156932,3.32131 0.772629,4.218883 -1.801014,4.206441 -2.484282,-0.01201 -3.307442,-0.475438 -4.344645,-2.445964 -2.638815,-5.013339 1.720866,-13.055672 9.484425,-17.495978 10.705848,-6.123127 32.625651,-9.265934 51.749106,-7.419661 17.129073,1.653726 26.019406,3.712612 47.000006,10.88459 24.98188,8.539772 25.09516,8.569641 34,8.96528 12.58223,0.559024 23.83232,-2.453547 28.34164,-7.589381 2.64654,-3.014234 2.99616,-4.860913 1.67398,-8.84164 -0.61206,-1.842727 -0.92325,-3.657153 -0.69155,-4.032059 0.74184,-1.200317 4.91987,-0.771034 6.34259,0.651688 1.97928,1.979273 1.82994,7.730984 -0.31038,11.954709 -4.04776,7.987867 -16.94873,13.925258 -35.67492,16.418605 -8.65914,1.152946 -28.12501,1.127926 -36.68136,-0.04713 z m 22,-4.691185 C 136.13423,61.927878 125.96097,59.136833 109.18112,53.78152 88.00438,47.022935 75.475353,44.352525 62,43.725436 c -6.514565,-0.303161 -6.666009,-0.28318 -2.183833,0.288137 7.183746,0.91567 19.4963,4.162201 35.223246,9.287535 22.737707,7.41011 37.214247,10.555543 48.627257,10.565629 l 4.66666,0.0041 -5.66666,-0.902545 z"
     id="path20"
     inkscape:connector-curvature="0" />
</svg>
