<?xml version="1.0" encoding="UTF-8" standalone="no"?>
<!-- Created with Inkscape (http://www.inkscape.org/) -->

<svg
   xmlns:dc="http://purl.org/dc/elements/1.1/"
   xmlns:cc="http://creativecommons.org/ns#"
   xmlns:rdf="http://www.w3.org/1999/02/22-rdf-syntax-ns#"
   xmlns:svg="http://www.w3.org/2000/svg"
   xmlns="http://www.w3.org/2000/svg"
   xmlns:sodipodi="http://sodipodi.sourceforge.net/DTD/sodipodi-0.dtd"
   xmlns:inkscape="http://www.inkscape.org/namespaces/inkscape"
   version="1.1"
   id="svg6233"
   width="722.45917"
   height="239.8763"
   viewBox="0 0 722.45917 239.87629"
   sodipodi:docname="Sharing_Adventures.svg"
   inkscape:version="0.92.4 (5da689c313, 2019-01-14)">
  <metadata
     id="metadata6239">
    <rdf:RDF>
      <cc:Work
         rdf:about="">
        <dc:format>image/svg+xml</dc:format>
        <dc:type
           rdf:resource="http://purl.org/dc/dcmitype/StillImage" />
        <dc:title></dc:title>
      </cc:Work>
    </rdf:RDF>
  </metadata>
  <defs
     id="defs6237" />
  <sodipodi:namedview
     pagecolor="#ffffff"
     bordercolor="#666666"
     borderopacity="1"
     objecttolerance="10"
     gridtolerance="10"
     guidetolerance="10"
     inkscape:pageopacity="0"
     inkscape:pageshadow="2"
     inkscape:window-width="1920"
     inkscape:window-height="1017"
     id="namedview6235"
     showgrid="false"
     inkscape:zoom="0.97960159"
     inkscape:cx="164.68736"
     inkscape:cy="147.75268"
     inkscape:window-x="-8"
     inkscape:window-y="-8"
     inkscape:window-maximized="1"
     inkscape:current-layer="svg6233" />
  <path
     style="fill:#fffaf3;fill-opacity:1;stroke-width:0.66666669"
     d="m 264.1042,239.12668 c -1.95548,-0.9454 -3.11613,-3.95168 -2.53941,-6.57748 l 0.46666,-2.12469 -2.90402,1.99098 c -10.61929,7.28052 -22.11283,8.90123 -24.90014,3.51118 -1.26964,-2.45523 -1.27809,-5.72934 -0.0239,-9.28397 0.70544,-1.99943 0.75213,-2.63949 0.16667,-2.285 -0.4473,0.27083 -3.64729,2.39574 -7.11108,4.72201 -12.45462,8.36447 -21.58104,11.53948 -27.12076,9.43509 -7.14252,-2.71327 -4.03236,-14.66556 7.96146,-30.59564 l 5.77223,-7.66667 -7.94442,-0.18681 -7.94443,-0.18681 -10.54649,8.46715 c -13.08966,10.50894 -23.986,17.76172 -34.47196,22.9451 -10.29492,5.08896 -17.19666,6.88092 -25.05492,6.50521 -6.70868,-0.32075 -10.18262,-1.77525 -12.58328,-5.26849 -1.30028,-1.89205 -1.50623,-2.8523 -1.22258,-5.70033 0.79609,-7.99333 7.3534,-14.16547 13.4293,-12.64051 5.51504,1.38418 1.97989,10.11238 -4.59539,11.3459 -2.10274,0.39448 -2.38098,0.68074 -2.38098,2.44958 0,9.09776 11.31632,10.68919 27.43117,3.8577 11.77339,-4.99103 22.63796,-12.35836 47.56883,-32.25668 28.61903,-22.84199 41.12518,-31.69935 56.94865,-40.33332 11.50314,-6.2766 27.62695,-12.68875 28.8447,-11.47101 0.29197,0.29198 -2.68818,3.21792 -6.62254,6.50209 -36.08155,30.11873 -60.33068,56.86935 -66.83094,73.72509 -1.65248,4.28503 -1.89516,5.54191 -1.2888,6.67491 1.57165,2.93664 8.88127,0.217 20.93158,-7.78789 6.27922,-4.17121 9.44324,-7.02662 14.25953,-12.86865 9.66966,-11.72903 26.94291,-21.38924 38.3091,-21.42469 4.1507,-0.0129 4.7228,0.15732 6.5,1.93452 1.0718,1.07179 1.94872,2.40408 1.94872,2.96065 0,0.55657 0.26839,1.17781 0.59643,1.38055 0.32803,0.20274 10.55711,-10.12956 22.73128,-22.96066 l 22.13484,-23.32926 5.43538,-0.009 c 2.98946,-0.005 6.15056,-0.2005 7.02464,-0.43443 0.96036,-0.25702 1.48798,-0.15776 1.33334,0.25084 -0.14076,0.37188 -14.68972,15.39198 -32.33102,33.37798 -37.77654,38.51465 -46.22625,48.16974 -44.5416,50.89557 1.36729,2.21232 11.00537,-2.17432 20.38764,-9.27917 8.2808,-6.27076 7.24871,-5.30881 13.02002,-12.13502 2.63502,-3.11667 8.22008,-9.07195 12.41124,-13.23396 l 7.62028,-7.56728 7.23444,-0.36922 7.23443,-0.36923 -13.7253,13.60318 c -17.64427,17.48728 -23.35581,25.57506 -20.49513,29.02197 1.20101,1.44713 6.75077,0.87019 10.67734,-1.10999 12.39615,-6.25151 30.58507,-26.91311 30.58507,-34.74305 0,-4.49493 3.56698,-7.89919 8.27677,-7.89919 4.1796,0 4.91781,4.45327 1.96268,11.83995 l -1.76056,4.4007 1.74806,1.50362 c 2.18666,1.88088 7.02835,2.69736 9.1968,1.55089 0.86694,-0.45835 3.00125,-2.10809 4.74292,-3.66611 5.90163,-5.27929 15.46491,-10.81971 23.72242,-13.74341 5.48502,-1.94205 14.42143,-2.33335 17.44424,-0.76384 1.8605,0.96602 2.37686,1.66662 2.54814,3.45725 0.69714,7.28852 -8.29322,13.74185 -25.59477,18.37206 -4.74102,1.26878 -10.3717,2.65064 -12.51263,3.07079 -3.66156,0.71857 -3.96735,0.92853 -5.15202,3.53767 -0.69269,1.52557 -1.26602,4.18204 -1.27408,5.90326 -0.0488,10.43066 13.57601,9.35924 31.81147,-2.50158 4.24832,-2.76322 8.20325,-6.27305 14.50723,-12.87453 4.76666,-4.99162 10.64988,-11.15053 13.07382,-13.68646 l 4.40714,-4.6108 7.25952,-0.26822 7.25952,-0.26823 -7.33334,7.06948 -7.33333,7.06949 6,-4.38624 c 8.82379,-6.45055 17.35439,-10.54688 22.66849,-10.88526 3.88766,-0.24755 4.39119,-0.12141 6.02091,1.50831 1.52438,1.52438 1.71323,2.13033 1.32188,4.2415 -0.91619,4.94249 -3.78821,8.69535 -15.14927,19.79551 -11.42917,11.16672 -14.69236,15.53041 -13.07292,17.48171 1.08484,1.30715 2.30332,1.0518 7.16065,-1.50066 8.52733,-4.48099 20.52303,-14.2267 31.59389,-25.66797 5.751,-5.94342 10.45637,-11.07007 10.45637,-11.39255 0,-0.32249 -1.79059,-0.58633 -3.97908,-0.58633 -3.26306,0 -3.91002,-0.17995 -3.59534,-1 0.29259,-0.76249 1.53931,-1 5.24899,-1 h 4.86525 l 7.56343,-8.03119 7.56342,-8.03119 6.5493,0.19786 6.5493,0.19785 -7.4406,7.83333 -7.4406,7.83334 h 7.37038 c 6.27754,0 7.31347,0.14827 6.98664,1 -0.31214,0.81339 -1.90384,1 -8.52964,1 h -8.1459 l -12.3832,13.16667 c -14.35217,15.26021 -18.10489,19.68734 -19.48193,22.98305 -0.87769,2.10061 -0.87929,2.48189 -0.0134,3.20049 1.40807,1.16859 4.44093,0.39152 10.64633,-2.72778 9.02002,-4.53412 16.29586,-10.25628 24.5586,-19.31435 4.16824,-4.56945 9.95225,-10.82534 12.85336,-13.90198 l 5.27476,-5.5939 6.98998,-0.33188 6.98997,-0.33188 -15.02713,15.29943 c -13.5762,13.82218 -20.63956,22.22259 -20.63956,24.54647 0,3.42961 5.29797,2.28953 13.33334,-2.86925 7.9545,-5.10685 16.18625,-12.36461 27.87214,-24.57429 l 10.87216,-11.35946 6.38576,-0.44888 c 3.51216,-0.24688 6.48988,-0.34474 6.61715,-0.21747 0.12727,0.12727 -6.71503,7.41121 -15.20511,16.18654 -14.11214,14.58628 -20.5421,22.33214 -20.5421,24.74608 0,2.95229 5.65216,0.96558 15.22038,-5.34987 9.559,-6.30937 11.04578,-7.65247 24.12904,-21.7973 13.34194,-14.42451 12.46355,-13.86475 21.8728,-13.93869 2.68889,-0.0211 4.78889,0.18919 4.66666,0.46739 -0.12222,0.27819 -3.87036,4.02819 -8.3292,8.33333 -4.45885,4.30514 -7.99756,7.82753 -7.86382,7.82753 0.13376,0 2.24144,-1.49372 4.68374,-3.31938 7.00801,-5.23859 20.49483,-13.21254 23.72127,-14.02497 1.61767,-0.40733 4.35287,-0.64649 6.07826,-0.53146 l 3.137,0.20914 -4.41859,4.97018 c -4.26972,4.80271 -6.8525,9.12346 -6.8829,11.51446 -0.0219,1.72632 2.83484,3.32887 4.97617,2.79143 0.98927,-0.24829 3.47625,-1.91948 5.52672,-3.71375 10.32967,-9.03929 23.2642,-15.09135 33.48247,-15.66644 7.20926,-0.40575 10.21166,0.83239 10.54813,4.34984 0.69713,7.28852 -8.2932,13.74185 -25.59473,18.37206 -4.74107,1.26878 -10.37174,2.65064 -12.51267,3.07079 -3.66153,0.71857 -3.96733,0.92853 -5.152,3.53767 -1.78907,3.94021 -1.68913,8.56724 0.23327,10.80217 3.21333,3.73575 10.6416,2.89621 21.5726,-2.43813 5.61973,-2.74246 6.91066,-3.66173 7.64606,-5.4449 1.21687,-2.9507 5.8096,-7.81986 8.4046,-8.91046 1.17987,-0.49587 3.18934,-0.90158 4.4654,-0.90158 3.06054,0 10.00574,-5.58187 10.59187,-8.51276 0.5206,-2.60289 4.20687,-7.34431 7.48353,-9.62566 8.31134,-5.78659 23.14454,-6.01263 26.04847,-0.39696 1.78527,3.45227 -0.38827,8.86664 -4.73773,11.80185 -2.48807,1.67907 -8.52054,2.71019 -9.22134,1.57619 -0.2188,-0.35402 0.3718,-1.66344 1.3124,-2.90983 2.131,-2.82364 4.24547,-7.56582 4.24547,-9.52144 0,-2.21454 -1.27507,-3.07806 -4.54507,-3.07806 -2.51746,0 -3.31033,0.36518 -5.46013,2.51503 -2.27687,2.27683 -3.98113,6.0638 -3.99107,8.8682 0,0.57744 0.74627,3.25499 1.66294,5.9501 3.09866,9.11038 1.90606,14.3915 -4.65014,20.59204 -1.98186,1.87438 -3.49113,3.40796 -3.35393,3.40796 0.96507,0 9.60393,-4.15304 14.01993,-6.73992 6.60454,-3.8689 13.06474,-8.80442 22.8404,-17.44993 4.1376,-3.65925 7.7376,-6.43097 8,-6.15938 1.1716,1.21267 -20.27833,19.19243 -29.53733,24.75881 -13.3724,8.0393 -28.06393,11.3761 -37.6082,8.54174 -4.1076,-1.21981 -6.394,-3.38726 -7.00413,-6.63966 -0.23854,-1.27141 -0.54707,-2.31166 -0.6856,-2.31166 -0.1386,0 -2.48394,1.2039 -5.21187,2.67533 -12.1252,6.54027 -26.05093,8.98043 -32.42867,5.68238 -5.78098,-2.98946 -5.25724,-13.09814 1.11899,-21.59785 1.46251,-1.94958 1.51749,-2.1937 0.42385,-1.88204 -5.87937,1.6755 -11.52203,0.86309 -13.34662,-1.92159 -1.35124,-2.06225 -0.84476,-6.82679 1.07082,-10.07346 0.71914,-1.21886 1.07389,-2.2161 0.78833,-2.2161 -1.02403,0 -12.30638,8.06167 -18.97314,13.55702 -3.73781,3.08105 -10.69287,9.60543 -15.45569,14.49862 l -8.65966,8.8967 -6.17367,0.27002 c -3.39552,0.14851 -6.17367,0.0179 -6.17367,-0.29017 0,-0.30811 1.725,-2.3109 3.83333,-4.45064 l 3.83333,-3.89044 -6.53543,3.97334 c -10.07965,6.12811 -18.16662,7.65658 -20.77874,3.92726 -1.34877,-1.92564 -1.28529,-3.777 0.26983,-7.86977 1.24571,-3.27843 1.24714,-3.36263 0.0423,-2.50715 -13.13035,9.32323 -18.60825,11.96577 -25.1248,12.12019 -3.18696,0.0755 -4.42776,-0.17807 -5.34513,-1.09243 -1.53189,-1.52686 -1.4881,-6.00543 0.0885,-9.04926 0.63814,-1.23202 0.91048,-2.0784 0.6052,-1.88083 -0.30529,0.19757 -3.06118,2.01555 -6.12422,4.03995 -6.03332,3.98752 -13.47083,7.3436 -17.85577,8.05721 -3.17659,0.51695 -7.67901,-0.50879 -9.2857,-2.11547 -1.40271,-1.40272 -0.87753,-6.0872 1.04842,-9.35143 1.52717,-2.58837 1.47117,-2.56203 -5.67113,2.66792 -2.93334,2.14793 -7.55766,5.00673 -10.27626,6.35289 -4.12788,2.04398 -5.64868,2.4494 -9.22293,2.45868 -3.90975,0.0101 -4.42509,-0.15741 -5.95724,-1.93709 -1.40312,-1.6298 -1.60873,-2.3767 -1.25801,-4.56998 0.23058,-1.44197 0.89852,-3.56528 1.48429,-4.71845 0.58578,-1.15318 6.6902,-7.79669 13.56539,-14.76336 6.87518,-6.96666 12.70668,-13.33898 12.9589,-14.1607 0.63025,-2.05331 -0.0219,-2.8393 -2.35565,-2.8393 -5.91197,0 -21.45519,11.69631 -41.14014,30.95806 l -10.86831,10.63466 -5.96502,0.28518 c -3.31852,0.15866 -5.96504,0.0179 -5.96504,-0.31722 0,-0.33133 1.79215,-2.37587 3.98256,-4.54342 2.19042,-2.16756 3.89085,-4.03273 3.77876,-4.14483 -0.1121,-0.11209 -2.57926,1.15116 -5.48257,2.80724 -9.37375,5.34688 -17.76241,7.88281 -26.27875,7.9442 -6.55848,0.0473 -9.32981,-1.06074 -11.07003,-4.42595 -2.19401,-4.24275 -0.37258,-12.29085 4.14617,-18.3201 0.87479,-1.1672 1.59052,-2.2922 1.59052,-2.5 0,-0.2078 -1.13656,-0.37782 -2.5257,-0.37782 -1.38914,0 -3.71414,-0.60979 -5.16667,-1.35509 l -2.64093,-1.35509 -1,1.51248 c -4.53343,6.85668 -13.03591,14.59733 -21.10541,19.21434 -13.53402,7.74358 -28.52872,9.44647 -33.29567,3.78128 -1.76997,-2.1035 -1.88668,-4.11661 -0.52159,-8.99748 0.36262,-1.29657 -0.38104,-0.95192 -4.82376,2.23558 -10.90752,7.8258 -17.88839,11.01844 -23.87457,10.91886 -1.49179,-0.0248 -3.36598,-0.36113 -4.16488,-0.74736 z m 403.98761,-3.73215 c 1.90574,-1.07089 4.3118,-3.14119 5.34687,-4.60067 2.7808,-3.92101 2.96427,-7.08589 0.79247,-13.67278 -1.0038,-3.04438 -1.9256,-5.6447 -2.04854,-5.77848 -0.12286,-0.13378 -1.57913,0.91622 -3.23613,2.33333 -2.42527,2.07418 -3.01693,3.00549 -3.03453,4.77634 -0.046,4.60429 -2.95827,7.46689 -7.59714,7.46689 -1.83753,0 -2.40753,0.40621 -3.63533,2.59077 -2.24167,3.98859 -1.68267,7.44221 1.42087,8.77795 2.55726,1.10063 8.26806,0.19894 11.99146,-1.89335 z m -411.00066,-3.67692 c 10.27354,-6.37567 24.32021,-22.22115 27.17512,-30.65518 0.9942,-2.93706 0.99445,-3.32037 0.003,-4.83333 -1.49667,-2.2842 -5.70667,-2.24981 -10.09306,0.0825 -10.50446,5.58527 -25.21224,21.92003 -27.90692,30.99398 -2.24517,7.56031 2.57928,9.52725 10.82173,4.41206 z m 125.99954,-17.37189 c 11.50837,-4.85867 21.46606,-13.39103 21.46606,-18.39345 0,-1.94039 -3.79805,-1.82966 -7.8555,0.22903 -6.49323,3.29456 -17.94814,13.21449 -22.32492,19.33332 l -1.37966,1.9288 2.48064,-0.46537 c 1.36436,-0.25595 4.79037,-1.44051 7.61338,-2.63233 z m 249.33332,0 c 11.5084,-4.85867 21.46607,-13.39103 21.46607,-18.39345 0,-1.94039 -3.79807,-1.82966 -7.85547,0.22903 -6.49326,3.29456 -17.9482,13.21449 -22.32493,19.33332 l -1.37967,1.9288 2.4806,-0.46537 c 1.3644,-0.25595 4.7904,-1.44051 7.6134,-2.63233 z M 226.01233,187.75249 c 10.66237,-10.61598 22.28469,-20.73879 31.82916,-27.72254 3.08994,-2.26094 5.40828,-4.11079 5.15186,-4.11079 -0.89278,0 -11.21105,5.40657 -17.96749,9.4146 -8.03437,4.76612 -20.78977,13.78509 -33.97359,24.0217 -5.22254,4.05506 -9.78052,7.64077 -10.12886,7.96827 -0.37402,0.35164 2.5421,0.59543 7.12226,0.59543 h 7.75558 z m 63.02275,-61.84902 c -3.67925,-0.93255 -6.09082,-2.3313 -8.06559,-4.67818 -3.50336,-4.16352 -1.60454,-12.74168 4.00757,-18.10462 4.93781,-4.718599 13.99337,-7.481099 20.51357,-6.257899 2.99029,0.56098 3.1464,1.72081 0.23278,1.72957 -3.16608,0.01 -8.51295,2.739589 -11.07057,5.652559 -4.43356,5.04955 -6.2487,12.9738 -3.82062,16.67951 1.9252,2.93823 4.69304,3.8498 10.67457,3.51558 12.64744,-0.70668 25.37022,-9.06777 48.66986,-31.984609 l 12.04676,-11.84884 -5.53858,3.28221 c -6.97152,4.13139 -11.34425,5.62276 -16.60792,5.66433 -3.39034,0.0268 -4.4102,-0.23065 -5.59252,-1.41162 -1.74573,-1.74375 -2.44452,-7.11373 -1.33856,-10.28632 0.41264,-1.18371 0.67391,-2.22434 0.58059,-2.31252 -0.0933,-0.0882 -3.01967,1.92849 -6.50301,4.48151 -9.29836,6.81499 -15.1401,9.53666 -20.49918,9.55058 -3.90976,0.0101 -4.4251,-0.15742 -5.95724,-1.9371 -1.40312,-1.6298 -1.60873,-2.3767 -1.25801,-4.56998 0.23058,-1.44197 0.89851,-3.56528 1.48429,-4.71845 0.58578,-1.15318 6.6902,-7.79669 13.56538,-14.76335 6.87518,-6.966671 12.70669,-13.338985 12.95891,-14.160705 0.63025,-2.053307 -0.0219,-2.8393 -2.35565,-2.8393 -5.91198,0 -21.45519,11.696307 -41.14014,30.958055 l -10.86832,10.63466 -5.96502,0.28519 c -3.3185,0.15866 -5.96502,0.0179 -5.96502,-0.31722 0,-0.33134 1.8,-2.38364 4,-4.56068 2.2,-2.17705 4,-4.16602 4,-4.41994 0,-0.25392 -2.01524,0.8897 -4.47832,2.54138 -14.39108,9.65026 -25.95341,10.78704 -25.71932,2.52866 0.0993,-3.50343 2.33776,-7.40974 7.98912,-13.94178 2.83526,-3.2771 4.56706,-5.72808 3.84844,-5.44663 -6.02864,2.36113 -13.40386,1.73579 -15.39657,-1.30547 -1.35123,-2.06224 -0.84476,-6.826791 1.07082,-10.073451 0.71914,-1.21886 1.07389,-2.216107 0.78833,-2.216107 -1.02402,0 -12.30638,8.061667 -18.97314,13.557018 -3.73781,3.08106 -10.69287,9.60543 -15.45568,14.49862 l -8.65967,8.8967 -6.17367,0.27002 c -3.39552,0.14851 -6.17367,0.0173 -6.17367,-0.29157 0,-0.30887 1.875,-2.49724 4.16667,-4.86305 2.67392,-2.76044 3.45015,-3.84946 2.16666,-3.03977 -12.72951,8.03039 -19.39102,10.78615 -24.43725,10.10931 -4.03998,-0.54187 -5.43033,-2.14506 -5.07424,-5.85102 l 0.29297,-3.04904 -3.39074,2.30678 c -6.68056,4.54491 -11.50912,6.37654 -16.91968,6.41818 -4.57841,0.0353 -5.02342,-0.0897 -6.5256,-1.83268 -1.27343,-1.47754 -1.61212,-2.62392 -1.61212,-5.4566 0,-1.97236 0.30839,-4.39724 0.68532,-5.38862 0.37692,-0.99139 0.57466,-1.91319 0.4394,-2.04844 -0.13525,-0.13525 -2.29683,1.30668 -4.8035,3.20428 -7.31828,5.54007 -13.40294,9.01038 -17.96228,10.24454 -7.21494,1.95299 -11.400978,0.11297 -11.268148,-4.95304 0.12538,-4.78159 2.04268,-7.35454 14.951918,-20.06495 12.03011,-11.844821 14.20291,-14.651202 12.93362,-16.704962 -1.39633,-2.259313 -9.48884,1.51144 -19.67209,9.166321 -6.506118,4.890751 -21.961218,18.932841 -28.218618,25.638701 l -5.7592,6.17195 -6.41315,0.28049 c -4.09998,0.17932 -6.32301,0.0407 -6.16321,-0.38424 0.13746,-0.3656 18.16494,-19.5822 40.06106,-42.703562 L 139.17899,3.3450276 145.7012,3.1320926 c 3.58722,-0.117114 6.6428,-0.14235 6.79018,-0.05608 0.35627,0.208546 -6.31684,7.1870124 -34.23049,35.7968334 -12.85394,13.174534 -22.980168,23.722165 -22.502718,23.439185 0.47744,-0.28298 4.22744,-3.209038 8.333328,-6.502351 9.59399,-7.695281 18.05725,-12.049781 24.17688,-12.439454 5.60493,-0.356893 7.62819,0.812753 7.60706,4.397633 -0.0281,4.768847 -2.16979,7.758694 -14.81515,20.682282 -11.74104,11.99937 -14.79932,15.92253 -14.01192,17.97446 1.38558,3.61076 21.89488,-9.3811 29.13606,-18.45659 10.92795,-13.696165 29.11106,-24.715518 40.78325,-24.715518 4.97354,0 6.78404,0.878686 8.16474,3.96258 l 1.18158,2.63914 2.02515,-2.025147 c 1.93148,-1.931487 2.34562,-2.04218 8.9547,-2.3935 l 6.92956,-0.368353 -15.01379,15.259307 c -8.25758,8.392621 -16.29628,17.189011 -17.86377,19.547531 -6.48704,9.7607 -0.54931,9.68905 14.44309,-0.1743 9.07111,-5.96779 11.00147,-7.7162 23.94541,-21.688491 9.97778,-10.770461 11.84247,-12.486914 14,-12.887014 3.40758,-0.631913 12.31852,-0.65604 12.04462,-0.0326 -0.12222,0.278193 -3.87037,4.028193 -8.32921,8.333334 -4.45885,4.305126 -7.99756,7.827511 -7.86381,7.827511 0.13375,0 2.24143,-1.493718 4.68374,-3.319378 7.008,-5.238587 20.49482,-13.21254 23.72126,-14.024967 1.61767,-0.407333 4.35288,-0.646487 6.07824,-0.53146 l 3.13702,0.20914 -4.41859,4.97018 c -4.26972,4.802714 -6.85249,9.123454 -6.8829,11.514454 -0.008,0.633213 0.71055,1.626451 1.59689,2.207211 1.34008,0.87805 2.09806,0.9297 4.5,0.30664 2.42836,-0.62993 4.12845,-2.043458 10.67286,-8.873885 l 7.78439,-8.1246 6.88228,-0.232967 6.88227,-0.232966 -12.68058,12.899633 c -17.62308,17.927515 -22.98608,24.351425 -22.98608,27.533195 0,2.85989 7.2628,0.11186 16.52686,-6.25328 9.71248,-6.67325 14.85622,-11.22959 25.73288,-22.794228 11.6007,-12.33448 10.88525,-11.917607 20.40692,-11.890454 l 5,0.01427 -7.33333,7.007727 -7.33333,7.007727 6,-4.38624 c 8.82379,-6.450547 17.35438,-10.546881 22.66848,-10.885261 3.88766,-0.247546 4.3912,-0.121406 6.02092,1.508314 1.52438,1.52438 1.71322,2.130333 1.32188,4.2415 -0.9162,4.942493 -3.78821,8.695347 -15.14927,19.795505 -11.42917,11.16672 -14.69236,15.53041 -13.07292,17.48171 1.08371,1.3058 2.30407,1.0518 7.11342,-1.48052 7.62958,-4.0173 18.13163,-12.32957 23.26737,-18.41589 11.27646,-13.363678 26.00622,-22.347845 37.85144,-23.086839 6.52676,-0.407193 9.45528,0.718767 10.08719,3.87832 0.56115,2.805734 1.19099,2.919587 3.16607,0.572327 1.65334,-1.964873 2.00813,-2.071967 8.06077,-2.433073 3.48222,-0.207754 6.33131,-0.16854 6.33131,0.08714 0,0.25568 -7.575,8.732613 -16.83333,18.837635 -25.54804,27.88445 -23.83868,25.87279 -21.48544,25.28522 2.66733,-0.66598 10.46953,-4.10732 14.98544,-6.60966 8.30558,-4.60228 17.9151,-11.66322 28.62135,-21.03056 3.82507,-3.346715 7.27507,-6.075408 7.66666,-6.063755 1.08114,0.03213 -8.00571,8.545985 -15.45643,14.481725 -12.512,9.9679 -25.80303,17.71504 -35.83158,20.88568 -4.24123,1.34091 -5.28259,2.0666 -11.42277,7.96006 -13.71884,13.167589 -25.66923,20.403429 -41.31752,25.017309 -4.61956,1.36208 -7.76394,1.80363 -14.25971,2.00244 -4.58333,0.14029 -9.46808,-0.0325 -10.855,-0.38409 z m -138.145,-41.551989 c 9.29513,-4.33521 25.16171,-20.81173 29.94776,-31.098988 2.81789,-6.056834 2.14508,-8 -2.76992,-8 -5.39963,0 -13.98171,5.661793 -22.54995,14.876727 -8.3305,8.959261 -12.96122,16.845661 -12.96122,22.073761 0,4.05107 2.73961,4.75739 8.33333,2.1485 z m 205.48209,-1.87398 c 7.62798,-4.53876 21.52979,-19.42647 25.64438,-27.463041 1.89338,-3.69814 2.60456,-7.062687 1.80764,-8.551761 -0.9281,-1.734153 -5.48269,-1.563646 -9.60078,0.35942 -10.05412,4.695067 -25.40264,21.131362 -28.59386,30.620342 -1.43379,4.26335 -1.35432,5.53138 0.4272,6.81631 2.12754,1.53451 5.81213,0.89826 10.31542,-1.78127 z M 14.556749,89.710081 C 7.1289522,87.975101 2.2999672,84.141281 0.6637872,78.680201 -2.4430618,68.310461 5.8521582,54.585826 15.226516,54.585826 c 4.401926,0 5.624673,1.157187 5.409219,5.1192 -0.130033,2.391215 -4.1218,6.037845 -7.555842,6.902545 -2.861368,0.72051 -3.1792988,1.02724 -4.7938788,4.625 -2.437727,5.43198 -2.343352,9.27412 0.301801,12.28678 3.0527928,3.47694 7.0391308,4.73314 15.0198268,4.73314 6.596167,0 6.824373,-0.0529 12.627953,-2.92902 12.055514,-5.97439 21.448957,-18.34699 30.069297,-39.605865 8.30669,-20.485406 16.24467,-32.130037 26.64407,-39.0855794 7.081778,-4.736586 11.293478,-6.15593596 19.448588,-6.55421596 7.93754,-0.387654 11.69178,0.634431 14.47357,3.94039596 4.18007,4.967735 0.21601,14.4518504 -7.36915,17.6308394 -2.50002,1.047774 -8.94522,1.968125 -8.94522,1.277344 0,-0.273833 0.90056,-1.523557 2.00124,-2.777164 2.73762,-3.11798 5.27862,-8.320524 5.75251,-11.7779204 0.33318,-2.430807 0.13751,-3.170875 -1.27141,-4.808839 -1.47782,-1.718067 -2.07838,-1.929919 -5.3374,-1.882811 -5.10341,0.07377 -8.89384,2.104493 -13.967958,7.483325 -5.66242,6.0024624 -9.29412,12.4988384 -18.27306,32.6867584 -4.20982,9.465221 -9.08238,19.299407 -11.05038,22.302812 -7.94648,12.12724 -20.120177,21.28156 -32.877583,24.72314 -5.458227,1.47248 -16.383614,1.90707 -20.97596,0.83439 z M 292.76699,29.914506 c -5.84608,-2.355442 -0.0268,-11.995347 7.24117,-11.995347 6.70955,0 5.27963,8.712936 -1.93,11.76 -2.43437,1.02886 -3.25181,1.06508 -5.31117,0.235347 z"
     id="path6245"
     inkscape:connector-curvature="0" />
</svg>
