<?xml version="1.0" encoding="UTF-8" standalone="no"?>
<!-- Created with Inkscape (http://www.inkscape.org/) -->

<svg
   xmlns:dc="http://purl.org/dc/elements/1.1/"
   xmlns:cc="http://creativecommons.org/ns#"
   xmlns:rdf="http://www.w3.org/1999/02/22-rdf-syntax-ns#"
   xmlns:svg="http://www.w3.org/2000/svg"
   xmlns="http://www.w3.org/2000/svg"
   xmlns:sodipodi="http://sodipodi.sourceforge.net/DTD/sodipodi-0.dtd"
   xmlns:inkscape="http://www.inkscape.org/namespaces/inkscape"
   version="1.1"
   id="svg7929"
   width="128.58287"
   height="174.25641"
   viewBox="0 0 128.58287 174.25641"
   sodipodi:docname="suit.svg"
   inkscape:version="0.92.4 (5da689c313, 2019-01-14)">
  <metadata
     id="metadata7935">
    <rdf:RDF>
      <cc:Work
         rdf:about="">
        <dc:format>image/svg+xml</dc:format>
        <dc:type
           rdf:resource="http://purl.org/dc/dcmitype/StillImage" />
        <dc:title></dc:title>
      </cc:Work>
    </rdf:RDF>
  </metadata>
  <defs
     id="defs7933" />
  <sodipodi:namedview
     pagecolor="#ffffff"
     bordercolor="#666666"
     borderopacity="1"
     objecttolerance="10"
     gridtolerance="10"
     guidetolerance="10"
     inkscape:pageopacity="0"
     inkscape:pageshadow="2"
     inkscape:window-width="1920"
     inkscape:window-height="1017"
     id="namedview7931"
     showgrid="false"
     showguides="false"
     inkscape:zoom="2.9316544"
     inkscape:cx="82.36643"
     inkscape:cy="72.32752"
     inkscape:window-x="-8"
     inkscape:window-y="-8"
     inkscape:window-maximized="1"
     inkscape:current-layer="svg7929" />
  <path
     style="fill:#fffaf3;fill-opacity:1"
     d="m 35.85009,165.87862 c -15.029591,-6.72833 -18.463541,-8.63506 -18.305646,-10.16441 0.106894,-1.03536 3.130153,-14.12867 6.718352,-29.09625 l 6.523999,-27.213774 -1.970656,-7.705198 c -1.083861,-4.237856 -2.11217,-7.846706 -2.28513,-8.019666 -0.17296,-0.17296 -2.90429,15.540574 -6.069622,34.918978 -3.165332,19.37839 -5.996566,36.24594 -6.291631,37.48344 -0.487391,2.04411 -1.124218,2.25 -6.9594591,2.25 -5.0442439,0 -6.55878007,-0.3539 -7.05563112,-1.64867 C -1.0509739,153.54122 5.060679,68.187051 9.1555991,30.977765 L 10.35009,20.123794 26.255201,13.428126 C 39.592554,7.8134214 42.532692,6.1890054 44.466889,3.3662286 L 46.773466,0 47.828087,2.773863 c 1.011048,2.659258 6.073506,29.614784 13.157414,70.057873 1.830396,10.45 3.446401,18.325 3.591123,17.5 0.144722,-0.825 2.961499,-16.912149 6.259506,-35.749221 6.013108,-34.344797 9.533242,-52.1033946 10.524495,-53.0946477 0.292008,-0.2920077 1.759095,0.8766159 3.260194,2.5969415 1.804328,2.0678393 6.118246,4.5443658 12.729271,7.3075982 5.5,2.298853 12.53302,5.45462 15.62894,7.012815 5.57806,2.807472 5.63466,2.880963 6.26153,8.129798 2.40692,20.153187 10.1,128.0762 9.28167,130.20872 -0.93336,2.4323 -13.34023,2.28903 -14.02947,-0.162 -0.27066,-0.9625 -3.08479,-17.3875 -6.25362,-36.5 -3.16884,-19.1125 -6.07924,-34.750004 -6.46757,-34.750004 -0.38832,0 -1.47124,3.122442 -2.406472,6.93876 l -1.700431,6.93876 6.755183,28.191894 c 4.6379,19.3557 6.46037,28.65927 5.81459,29.68304 -0.89708,1.42218 -31.914465,15.58954 -36.834594,16.82442 -2.582672,0.64821 -2.929414,-0.41619 -7.118489,-21.85175 -0.943164,-4.82618 -1.855218,-8.6345 -2.026787,-8.46293 -0.171568,0.17157 -1.673686,6.73604 -3.338038,14.58773 -3.240018,15.28497 -3.544878,16.19604 -5.375459,16.06449 -0.655041,-0.0471 -9.515983,-3.81246 -19.690983,-8.36753 z m 63.25,-116.487273 c 2.68528,-0.09147 2.32419,-5.53878 -0.5,-7.542728 -2.158196,-1.531384 -2.384193,-1.441894 -5.538898,2.193296 -5.75732,6.634201 -5.785936,7.068857 -0.40705,6.182694 2.582771,-0.425508 5.483448,-0.800476 6.445948,-0.833262 z M 63.376649,68.199735 c -0.313928,-1.3024 -2.283337,-12.042999 -4.376465,-23.867999 l -3.805688,-21.5 3.430357,-5.191231 c 3.363903,-5.090666 3.399311,-5.253462 1.827797,-8.4036384 -0.881408,-1.7668239 -1.60256,-3.3682699 -1.60256,-3.558769 0,-0.1904991 2.486556,-0.346362 5.52568,-0.346362 h 5.52568 l -1.52568,2.9503401 c -2.076152,4.0148363 -1.929043,4.9430253 1.50214,9.4777993 1.634699,2.160477 2.97218,4.873347 2.97218,6.028601 0,2.728092 -7.831295,45.707889 -8.439131,46.315724 -0.254943,0.254943 -0.720383,-0.602066 -1.03431,-1.904465 z"
     id="path7943"
     inkscape:connector-curvature="0"
     sodipodi:nodetypes="ssscssssscscsscssssssssscsssccscsscscsssssssscsssscsssss" />
</svg>
