<?xml version="1.0" encoding="UTF-8" standalone="no"?>
<!-- Created with Inkscape (http://www.inkscape.org/) -->

<svg
   xmlns:dc="http://purl.org/dc/elements/1.1/"
   xmlns:cc="http://creativecommons.org/ns#"
   xmlns:rdf="http://www.w3.org/1999/02/22-rdf-syntax-ns#"
   xmlns:svg="http://www.w3.org/2000/svg"
   xmlns="http://www.w3.org/2000/svg"
   xmlns:sodipodi="http://sodipodi.sourceforge.net/DTD/sodipodi-0.dtd"
   xmlns:inkscape="http://www.inkscape.org/namespaces/inkscape"
   version="1.1"
   id="svg1634"
   width="296.71542"
   height="62.879681"
   viewBox="0 0 296.71542 62.879681"
   sodipodi:docname="target_logo.svg"
   inkscape:version="0.92.4 (5da689c313, 2019-01-14)">
  <metadata
     id="metadata1640">
    <rdf:RDF>
      <cc:Work
         rdf:about="">
        <dc:format>image/svg+xml</dc:format>
        <dc:type
           rdf:resource="http://purl.org/dc/dcmitype/StillImage" />
        <dc:title></dc:title>
      </cc:Work>
    </rdf:RDF>
  </metadata>
  <defs
     id="defs1638" />
  <sodipodi:namedview
     pagecolor="#ffffff"
     bordercolor="#666666"
     borderopacity="1"
     objecttolerance="10"
     gridtolerance="10"
     guidetolerance="10"
     inkscape:pageopacity="0"
     inkscape:pageshadow="2"
     inkscape:window-width="1920"
     inkscape:window-height="1017"
     id="namedview1636"
     showgrid="false"
     inkscape:zoom="2.6775777"
     inkscape:cx="179.70744"
     inkscape:cy="-18.023681"
     inkscape:window-x="-8"
     inkscape:window-y="-8"
     inkscape:window-maximized="1"
     inkscape:current-layer="svg1634" />
  <path
     style="fill:#fffaf3;stroke-width:0.25015193;fill-opacity:1"
     d="M 26.960245,62.645867 C 16.947894,61.183783 7.7343116,54.523556 3.2903121,45.535572 0.94835413,40.798962 0.01786293,36.831244 1.9783288e-4,31.506159 -0.02844667,22.871206 3.0536407,15.38869 9.1657637,9.2545169 13.710408,4.6934769 18.942361,1.8499855 25.300562,0.48547673 28.275043,-0.15286337 34.616041,-0.16364257 37.558006,0.46463323 53.158766,3.7963119 63.76608,17.324946 62.991669,32.902895 c -0.30068,6.048493 -1.93483,10.97861 -5.328885,16.076878 -4.765472,7.158298 -12.598694,12.174228 -21.187532,13.567229 -2.461644,0.39925 -7.126058,0.44771 -9.515007,0.09885 z m 9.524424,-10.745016 c 4.938232,-1.1362 9.416871,-4.167132 12.262154,-8.298453 1.593949,-2.314399 2.095075,-3.31857 2.967636,-5.946613 0.658422,-1.983084 0.706423,-2.404282 0.712727,-6.253798 0.0067,-4.021307 -0.01445,-4.188651 -0.812663,-6.503951 -1.143889,-3.317448 -2.785628,-5.965367 -5.188237,-8.367975 -2.418402,-2.418403 -5.078625,-4.061552 -8.367977,-5.168677 -2.082066,-0.700778 -2.794768,-0.813901 -5.753493,-0.913239 -2.836971,-0.09525 -3.729158,-0.02928 -5.578726,0.412512 -8.312663,1.985572 -14.603332,8.604442 -16.04725,16.88448 -0.486812,2.79159 -0.488529,4.512262 -0.0072,7.272078 1.825062,10.465677 11.443467,18.147178 21.883385,17.476627 1.031877,-0.06627 2.800243,-0.333122 3.929702,-0.592991 z M 28.427461,41.57117 c -3.009045,-0.994887 -5.212265,-2.878504 -6.562512,-5.610545 -0.924922,-1.871451 -0.942046,-1.958617 -0.942046,-4.795817 0,-2.742586 0.04063,-2.972511 0.798084,-4.515708 2.637428,-5.373418 9.210289,-7.708096 14.464108,-5.137641 4.5369,2.219699 7.048447,7.545151 5.785253,12.266971 -0.839645,3.138591 -3.025385,5.804244 -5.894632,7.188899 -1.45773,0.703476 -1.928859,0.801675 -4.146128,0.864166 -1.587742,0.04476 -2.86703,-0.05033 -3.502127,-0.260325 z M 198.14785,55.666238 c -3.02241,-0.365774 -6.00984,-1.556387 -8.52181,-3.396288 -1.69013,-1.237934 -4.49534,-4.283812 -5.56101,-6.038088 -5.28091,-8.693312 -5.12567,-21.793271 0.35401,-29.873313 2.90211,-4.279297 6.74869,-7.0671331 11.91331,-8.6342421 1.93897,-0.588345 2.64125,-0.669731 5.95069,-0.689602 3.27368,-0.01972 3.99158,0.05219 5.62842,0.563291 5.34876,1.670139 9.2833,5.0745701 11.75443,10.1707121 0.84591,1.744505 1.75378,4.514947 1.75378,5.351836 0,0.192704 -1.50298,0.276582 -4.95575,0.276582 h -4.95575 l -0.31928,-1.245762 c -0.43577,-1.700291 -1.97992,-4.007969 -3.41521,-5.103888 -3.61165,-2.757701 -9.46754,-2.043307 -13.11533,1.600014 -5.92296,5.915703 -5.80731,19.01101 0.22107,25.034817 2.2999,2.298143 3.70768,2.838644 7.40362,2.842529 2.44027,0.0025 2.90888,-0.07046 4.14091,-0.645308 1.93606,-0.903331 3.08821,-1.99734 3.97731,-3.776591 0.58835,-1.177396 0.76217,-1.85842 0.76217,-2.986195 v -1.460957 h -4.62781 -4.62781 v -4.37766 -4.377657 h 9.75592 9.75593 V 41.53314 54.165812 h -3.73667 -3.73667 l -0.66122,-1.214896 -0.66123,-1.214896 -1.91844,1.094334 c -4.11801,2.349023 -8.46634,3.331007 -12.55759,2.835884 z m 89.39043,-1.738128 c -1.01197,-0.617056 -1.32926,-1.217758 -1.32926,-2.516766 0,-1.889745 1.82762,-3.10492 3.78691,-2.517903 0.66304,0.198643 1.15086,0.560537 1.47731,1.095953 1.61419,2.64735 -1.28821,5.55254 -3.93496,3.938716 z m 3.11095,-0.911348 c 1.29784,-1.452479 0.30747,-3.603838 -1.65902,-3.603838 -1.19273,0 -2.03073,0.868363 -2.03073,2.104366 0,2.118631 2.30099,3.053722 3.68975,1.499472 z m -2.68913,-1.477546 v -1.625987 h 0.85766 c 0.80168,0 1.64385,0.512639 1.64385,1.000608 0,0.117929 -0.17426,0.388651 -0.38719,0.601605 -0.29399,0.294 -0.3241,0.505067 -0.12497,0.876955 0.32551,0.608271 0.32943,0.772808 0.0183,0.772808 -0.13414,0 -0.42028,-0.341386 -0.63603,-0.758635 -0.4398,-0.850484 -0.8713,-0.777182 -0.8713,0.148013 0,0.335839 -0.11259,0.610617 -0.25014,0.610617 -0.14102,0 -0.25017,-0.708764 -0.25017,-1.625989 z m 1.47042,-0.35109 c 0.44716,-0.283225 0.13987,-0.774592 -0.48458,-0.774592 -0.47005,0 -0.65883,0.493781 -0.31876,0.833839 0.21807,0.218088 0.38493,0.205775 0.80334,-0.05925 z M 86.087478,36.029798 V 17.893785 H 79.83368 73.579883 V 13.265974 8.6381629 h 18.010939 18.010938 v 4.6278111 4.627811 h -6.2538 -6.253797 v 18.136013 18.136014 h -5.503341 -5.503344 z m 15.741332,12.949988 c 0.92338,-2.857403 4.25129,-13.103206 7.39535,-22.768452 l 5.71648,-17.5731711 h 5.80896 c 5.30019,0 5.824,0.03834 5.9806,0.437765 0.58728,1.4978851 15.64146,44.6736141 15.64146,44.8600651 0,0.132811 -2.36235,0.229819 -5.59646,0.229819 h -5.59646 l -1.59172,-4.627811 -1.59173,-4.627811 h -6.81033 -6.81033 l -1.45989,4.565274 -1.4599,4.565271 -5.65245,0.06716 -5.65245,0.06716 z M 125.11118,36.55551 c 0,-0.08979 -3.00852,-8.773249 -3.77656,-10.900246 -0.31111,-0.861596 -0.32955,-0.821384 -2.23727,4.877962 -1.05796,3.160698 -1.87582,5.83115 -1.81746,5.934338 0.10647,0.188256 7.83129,0.275 7.83129,0.08794 z m 18.26109,-5.172172 V 8.6008619 l 12.31998,0.103828 c 13.5555,0.11426 14.05921,0.165119 16.96301,1.7128201 3.76303,2.005677 5.97058,6.151599 5.98409,11.238525 0.0105,4.016974 -2.09917,8.025157 -5.36188,10.186284 l -1.1038,0.73113 1.29247,0.852637 c 0.71086,0.468951 1.70616,1.40395 2.21179,2.077776 1.47482,1.965401 1.71338,3.267779 1.72598,9.42273 0.0121,5.897606 0.12318,6.512933 1.48677,8.234618 l 0.81923,1.034359 -5.0183,-0.07741 c -4.61059,-0.07113 -5.07437,-0.119329 -5.70831,-0.593181 -1.69232,-1.264966 -1.70945,-1.336357 -1.8466,-7.694413 -0.18321,-8.493504 0.0449,-8.252798 -7.94232,-8.38196 l -5.31573,-0.08597 v 8.401583 8.401589 h -5.25319 -5.25319 z m 23.01398,-5.234541 c 2.08219,-1.156775 2.82114,-3.781936 1.68852,-5.998535 -1.07433,-2.102499 -1.14083,-2.120681 -8.0851,-2.210046 l -6.11102,-0.07865 v 4.535749 4.535751 l 5.69096,-0.07945 c 5.53051,-0.0772 5.72268,-0.09709 6.81664,-0.704827 z m 58.84691,5.315728 0.0639,-22.7012861 16.4475,-0.06434 16.44751,-0.06434 v 4.6296111 4.629609 h -11.13178 -11.13176 v 4.127506 4.127506 h 9.50578 9.50576 v 4.252583 4.252583 h -9.50576 -9.50578 v 5.128113 5.128114 h 11.13176 11.13178 v 4.627811 4.627811 H 241.6807 225.16934 Z m 47.46768,4.565273 V 17.893785 h -6.50396 -6.50394 V 13.265974 8.6381629 h 18.51123 18.51124 v 4.6278111 4.627811 h -6.62902 -6.62902 v 18.136013 18.136014 h -5.37828 -5.37825 z"
     id="path1644"
     inkscape:connector-curvature="0" />
</svg>
