<?xml version="1.0" encoding="UTF-8" standalone="no"?>
<!-- Created with Inkscape (http://www.inkscape.org/) -->

<svg
   xmlns:dc="http://purl.org/dc/elements/1.1/"
   xmlns:cc="http://creativecommons.org/ns#"
   xmlns:rdf="http://www.w3.org/1999/02/22-rdf-syntax-ns#"
   xmlns:svg="http://www.w3.org/2000/svg"
   xmlns="http://www.w3.org/2000/svg"
   xmlns:sodipodi="http://sodipodi.sourceforge.net/DTD/sodipodi-0.dtd"
   xmlns:inkscape="http://www.inkscape.org/namespaces/inkscape"
   version="1.1"
   id="svg7374"
   width="636.79681"
   height="222.84108"
   viewBox="0 0 636.79682 222.84108"
   sodipodi:docname="the_gentlemen.svg"
   inkscape:version="0.92.4 (5da689c313, 2019-01-14)">
  <metadata
     id="metadata7380">
    <rdf:RDF>
      <cc:Work
         rdf:about="">
        <dc:format>image/svg+xml</dc:format>
        <dc:type
           rdf:resource="http://purl.org/dc/dcmitype/StillImage" />
        <dc:title></dc:title>
      </cc:Work>
    </rdf:RDF>
  </metadata>
  <defs
     id="defs7378" />
  <sodipodi:namedview
     pagecolor="#ffffff"
     bordercolor="#666666"
     borderopacity="1"
     objecttolerance="10"
     gridtolerance="10"
     guidetolerance="10"
     inkscape:pageopacity="0"
     inkscape:pageshadow="2"
     inkscape:window-width="1920"
     inkscape:window-height="1017"
     id="namedview7376"
     showgrid="false"
     inkscape:zoom="0.82612475"
     inkscape:cx="-105.32286"
     inkscape:cy="331.95159"
     inkscape:window-x="-8"
     inkscape:window-y="-8"
     inkscape:window-maximized="1"
     inkscape:current-layer="svg7374" />
  <path
     style="fill:#fffaf3;fill-opacity:1;stroke-width:0.66666669"
     d="m 127.79681,222.09042 c -4.28424,-1.11173 -5.80891,-1.9636 -7.84496,-4.38333 -2.0518,-2.4384 -2.75665,-5.92387 -1.86648,-9.22974 0.98327,-3.65153 4.34418,-8.62866 6.86432,-10.1652 4.80248,-2.92806 10.42947,-0.8368 9.47245,3.52047 -0.66247,3.01627 -1.65092,4.33867 -4.11789,5.50933 -3.45548,1.63974 -5.59186,7.1576 -3.98886,10.30247 1.09632,2.15087 4.38072,3.2486 9.86043,3.29573 11.00284,0.0945 21.08432,-5.86546 37.95433,-22.438 l 9,-8.84133 -7.14497,3.60007 c -7.66574,3.86253 -14.20973,5.71686 -20.17471,5.71686 -11.88891,0 -15.13581,-9.20913 -8.22669,-23.33333 2.33262,-4.76853 3.88992,-6.78653 9.82583,-12.73267 7.56643,-7.5794 15.21535,-13.0366 25.87123,-18.45813 4.97858,-2.533 6.17714,-3.4286 6.1796,-4.61753 0.007,-3.40174 2.72732,-8.7298 6.03833,-11.8268 3.76317,-3.52 8.63138,-6.02747 8.63138,-4.44574 0,0.3222 -0.9728,0.98874 -2.16177,1.4812 -4.88467,2.02334 -9.18963,7.4644 -10.21027,12.90487 -0.44075,2.3494 -0.37219,2.53213 0.77767,2.0726 21.1542,-8.45347 45.20107,-10.30047 50.29263,-3.86287 1.17164,1.4814 1.37056,2.39694 1.07336,4.94014 -1.16183,9.94173 -13.15921,16.51026 -30.20139,16.53506 -9.43966,0.014 -14.59536,-1.61846 -18.98826,-6.01133 -1.78675,-1.78673 -3.24864,-3.56293 -3.24864,-3.94707 0,-1.44346 -1.83182,-0.5652 -7.35231,3.525 -11.32884,8.39374 -19.05077,16.74767 -23.87301,25.82707 -4.88753,9.20227 -5.09515,15.382 -0.59498,17.70913 6.5253,3.37434 21.56806,-3.48233 30.47115,-13.88913 7.23863,-8.4612 11.28873,-10.86287 17.54979,-10.40687 4.53548,0.33034 4.00284,1.6756 -3.98902,10.0748 -3.96638,4.1686 -9.13914,9.76367 -11.49499,12.4336 -11.38139,12.89874 -27.30119,23.30534 -42.30174,27.65234 -7.20495,2.08793 -17.18005,2.76026 -22.08156,1.48833 z m 93.42421,-68.6784 c 7.10479,-2.54633 12.09775,-6.35387 14.20177,-10.82993 1.22981,-2.61634 1.34064,-3.4088 0.69476,-4.96807 -1.94018,-4.68407 -11.91404,-4.925 -24.90333,-0.60167 -7.58675,2.52514 -18.4174,7.7168 -18.4174,8.8284 0,1.52 4.08696,5.82087 6.89782,7.2588 4.87772,2.49527 15.02486,2.64254 21.52638,0.31247 z m -21.1298,68.97773 c -5.3369,-1.7576 -6.94787,-4.36466 -6.45916,-10.45293 0.43643,-5.437 3.39985,-10.9758 8.74191,-16.3392 11.84373,-11.89093 27.7668,-19.95513 39.39625,-19.95213 5.55863,0 8.62085,1.57513 8.90807,4.578 0.69714,7.28853 -8.29322,13.7418 -25.59477,18.37206 -4.74102,1.26874 -10.3717,2.6506 -12.51264,3.07074 -3.66156,0.7186 -3.96734,0.92853 -5.15202,3.53773 -0.69268,1.52553 -1.26602,4.182 -1.27407,5.9032 -0.0488,10.43067 13.57601,9.35927 31.81147,-2.50153 4.24832,-2.76327 8.20325,-6.27307 14.50723,-12.87454 4.76666,-4.9916 10.64988,-11.15053 13.07382,-13.68646 l 4.40714,-4.6108 7.25952,-0.2682 7.25952,-0.26827 -7.33334,7.06947 -7.33333,7.06953 6,-4.38627 c 8.82379,-6.45053 17.35439,-10.54686 22.66849,-10.88526 3.88766,-0.24754 4.39119,-0.1214 6.02091,1.50833 1.52438,1.5244 1.71323,2.13033 1.32188,4.24147 -0.91619,4.94253 -3.78821,8.6954 -15.14927,19.79553 -11.42917,11.16673 -14.69236,15.5304 -13.07292,17.48173 1.08484,1.30714 2.30332,1.0518 7.16065,-1.50066 8.52733,-4.481 20.52303,-14.22674 31.59389,-25.668 5.751,-5.9434 10.45637,-11.07007 10.45637,-11.39254 0,-0.32246 -1.79059,-0.58633 -3.97908,-0.58633 -3.26306,0 -3.91002,-0.17993 -3.59534,-1 0.29259,-0.76247 1.53931,-1 5.24899,-1 h 4.86525 l 7.56343,-8.0312 7.56342,-8.0312 6.54931,0.19787 6.5493,0.19786 -7.4406,7.83334 -7.4406,7.83333 h 7.37037 c 6.27755,0 7.31347,0.14827 6.98664,1 -0.31213,0.8134 -1.90383,1 -8.52964,1 h -8.1459 l -12.3832,13.16667 c -14.3183,15.2242 -18.10536,19.68846 -19.46763,22.9488 -1.68564,4.03433 0.41363,4.8656 6.36425,2.52006 7.95765,-3.1366 25.53634,-15.38133 31.33641,-21.82793 1.60488,-1.78373 15.18224,-16.17013 30.1719,-31.96973 l 27.25396,-28.72654 6.13244,-0.45973 c 3.37284,-0.25287 6.59868,-0.35293 7.16853,-0.22233 0.67458,0.15453 -9.66765,11.28633 -29.64118,31.90406 -16.87249,17.41667 -33.44278,34.7144 -36.82287,38.43947 -8.35422,9.20687 -10.71282,14.2272 -6.68403,14.2272 4.30154,0 22.83493,-11.99847 26.8691,-17.395 11.05971,-14.7946 31.09003,-26.6076 45.11017,-26.60393 5.55864,0 8.62085,1.57513 8.90807,4.578 0.69715,7.28853 -8.29321,13.7418 -25.59477,18.37206 -4.74102,1.26874 -10.3717,2.6506 -12.51263,3.07074 -3.66156,0.7186 -3.96735,0.92853 -5.15202,3.53773 -0.69269,1.52553 -1.26602,4.182 -1.27407,5.9032 -0.0488,10.4322 13.59147,9.3578 31.81146,-2.5056 5.89359,-3.83747 8.80862,-6.6388 23.70145,-22.77693 l 8.13912,-8.81967 4.40695,-0.0133 c 2.42382,-0.007 5.87382,-0.18814 7.66667,-0.4014 l 3.25971,-0.38787 -7.66667,7.42447 c -7.62534,7.3844 -7.63868,7.40273 -2.47484,3.40253 9.71978,-7.52953 17.66622,-11.38467 23.46677,-11.38467 8.17916,0 9.16786,5.10827 2.69147,13.9058 l -2.96713,4.0306 6.14187,-4.92793 c 6.78222,-5.44173 14.82592,-10.48573 19.16047,-12.015 1.54863,-0.5464 4.29161,-0.99347 6.09551,-0.99347 4.09234,0 6.5606,2.065 6.53791,5.46967 -0.0315,4.7258 -2.30277,7.77967 -15.26905,20.53033 -12.27032,12.06627 -15.17598,15.807 -13.54511,17.43787 0.38741,0.3874 1.57305,0.5046 2.66923,0.26387 5.26116,-1.15554 23.26242,-13.6064 26.29305,-18.186 2.10647,-3.18307 7.69309,-8.7412 12.53319,-12.4692 13.35399,-10.28574 30.47524,-15.63787 38,-11.8788 1.8725,0.9354 2.37575,1.60913 2.54813,3.41133 0.69715,7.28853 -8.29321,13.7418 -25.59476,18.37207 -4.74102,1.26873 -10.37171,2.6506 -12.51264,3.07073 -3.66156,0.7186 -3.96735,0.92853 -5.15202,3.53773 -0.69269,1.52554 -1.26602,4.182 -1.27407,5.9032 -0.0501,10.71034 14.01413,9.31094 32.92041,-3.27546 6.50305,-4.32927 8.4048,-6.1356 27.13877,-25.7772 l 4.40715,-4.62067 7.25952,-0.2682 7.25951,-0.26827 -7.33333,7.06947 -7.33334,7.06953 6,-4.38626 c 8.8238,-6.45054 17.35439,-10.54687 22.66849,-10.88527 3.88766,-0.24753 4.39119,-0.1214 6.02091,1.50833 1.52438,1.5244 1.71323,2.13034 1.32188,4.24147 -0.91619,4.94253 -3.7882,8.6954 -15.14926,19.79553 -11.42918,11.16674 -14.69236,15.5304 -13.07292,17.48174 0.38912,0.46886 1.15189,0.85246 1.69504,0.85246 3.5037,0 18.87488,-10.71553 34.81904,-24.27306 8.02317,-6.82247 9.36349,-7.74674 9.36349,-6.45727 0,0.843 -17.92109,15.93347 -26.80331,22.56973 -10.15562,7.58767 -16.11709,10.468 -21.69588,10.48247 -3.90975,0.01 -4.42509,-0.1574 -5.95724,-1.93707 -1.40312,-1.6298 -1.60872,-2.37673 -1.258,-4.57 0.23058,-1.44193 0.89851,-3.56526 1.48428,-4.71846 0.58578,-1.15314 6.6902,-7.79667 13.56539,-14.76334 6.87518,-6.96666 12.70669,-13.339 12.95891,-14.16073 0.63024,-2.05327 -0.0219,-2.83927 -2.35566,-2.83927 -5.91197,0 -21.45518,11.69634 -41.14014,30.95807 l -10.86831,10.63467 -5.96502,0.2852 c -3.33171,0.15926 -5.96502,0.0187 -5.96502,-0.31914 0,-0.3324 1.67212,-2.24406 3.71583,-4.24826 5.27498,-5.1728 5.80086,-6.50347 1.47976,-3.74427 -13.82593,8.8286 -30.32547,12.66447 -37.81513,8.79147 -3.18239,-1.64574 -4.28656,-4.47514 -3.83736,-9.8332 l 0.38096,-4.544 -3.79537,2.91773 c -10.92253,8.397 -17.90927,11.8926 -24.01678,12.01627 -3.88797,0.0787 -4.35402,-0.0684 -5.90017,-1.86274 -1.4232,-1.65166 -1.61259,-2.36206 -1.24414,-4.66666 0.7411,-4.63554 3.17492,-7.698 16.02762,-20.16754 11.09189,-10.7612 12.41727,-12.2768 12.22285,-13.97713 -0.84843,-7.41993 -20.17291,6.00387 -45.12745,31.348 l -7.57606,7.69427 -6.59061,0.45393 c -3.80909,0.26233 -6.59062,0.20007 -6.59062,-0.1476 0,-0.33087 6.01618,-6.59873 13.36929,-13.92867 17.98784,-17.93106 22.66658,-23.72053 21.54068,-26.6546 -0.2255,-0.58766 -1.21828,-1.0058 -2.38798,-1.0058 -5.85328,0 -23.15112,13.32287 -42.60657,32.8158 l -8.46617,8.48247 -6.55796,0.43947 -6.55796,0.4394 1.99044,-2.2552 c 1.09475,-1.2404 3.04277,-3.39274 4.32895,-4.78287 l 2.3385,-2.52767 -5.32894,3.03967 c -9.42566,5.3764 -17.79666,7.91133 -26.32895,7.9728 -9.38071,0.0676 -12.46702,-2.7466 -11.82217,-10.78007 0.32171,-4.0078 0.27348,-4.1936 -0.87638,-3.37586 -6.54593,4.6554 -13.2403,8.94106 -16.54795,10.59393 -8.03736,4.01633 -16.84313,4.136 -17.8204,0.24227 -0.66444,-2.64734 0.28451,-5.9982 2.72617,-9.62647 1.25236,-1.861 1.92192,-3.1642 1.48791,-2.89593 -0.43401,0.2682 -3.49467,2.4038 -6.80148,4.7458 -11.27428,7.98473 -21.1277,11.72373 -26.84125,10.1852 -4.11742,-1.10867 -5.06917,-2.3468 -4.57509,-5.95154 0.22583,-1.6476 1.00962,-4.01093 1.74177,-5.2518 1.52717,-2.5884 1.47117,-2.56206 -5.67113,2.66794 -2.93334,2.14793 -7.55766,5.00673 -10.27626,6.35286 -4.12788,2.044 -5.64868,2.4494 -9.22293,2.45867 -3.90975,0.01 -4.42509,-0.1574 -5.95724,-1.93707 -1.40312,-1.6298 -1.60873,-2.37673 -1.25801,-4.57 0.23058,-1.44193 0.89852,-3.56526 1.48429,-4.71846 0.58578,-1.15314 6.6902,-7.79667 13.56539,-14.76334 6.87518,-6.96666 12.70668,-13.339 12.9589,-14.16073 0.63025,-2.05327 -0.0219,-2.83927 -2.35565,-2.83927 -5.91197,0 -21.45519,11.69634 -41.14014,30.95807 l -10.86831,10.63467 -5.96502,0.2852 c -3.31851,0.1586 -5.96503,0.018 -5.96503,-0.31727 0,-0.33133 1.79216,-2.37587 3.98257,-4.5434 2.19042,-2.1676 3.89085,-4.03273 3.77876,-4.14487 -0.1121,-0.11206 -2.57926,1.1512 -5.48257,2.80727 -8.70626,4.96613 -16.5954,7.49447 -24.94542,7.9946 -2.75,0.16467 -5.76752,0.0467 -6.7056,-0.26227 z m 19.9062,-24.98546 c 11.50838,-4.85867 21.46607,-13.391 21.46607,-18.3934 0,-1.9404 -3.79805,-1.82967 -7.8555,0.229 -6.49323,3.2946 -17.94815,13.21446 -22.32493,19.33333 l -1.37965,1.9288 2.48064,-0.4654 c 1.36435,-0.25593 4.79037,-1.44047 7.61337,-2.63233 z m 174.00001,0 c 11.50837,-4.85867 21.46606,-13.391 21.46606,-18.3934 0,-1.9404 -3.79805,-1.82967 -7.85549,0.229 -6.49324,3.2946 -17.94815,13.21446 -22.32493,19.33333 l -1.37965,1.9288 2.48064,-0.4654 c 1.36435,-0.25593 4.79036,-1.44047 7.61337,-2.63233 z m 138.66667,0 c 11.50838,-4.85867 21.46606,-13.391 21.46606,-18.3934 0,-1.9404 -3.79804,-1.82967 -7.85549,0.229 -6.49323,3.2946 -17.94815,13.21446 -22.32493,19.33333 l -1.37965,1.9288 2.48064,-0.4654 c 1.36435,-0.25593 4.79036,-1.44047 7.61337,-2.63233 z M 156.09122,87.678926 c -5.28485,-1.60363 -6.94895,-4.30703 -6.45316,-10.48345 0.24318,-3.02954 0.12645,-4.07254 -0.4187,-3.74106 -0.41573,0.25279 -3.0646,2.16762 -5.88638,4.25519 -6.9973,5.17664 -11.4521,7.63046 -16.29411,8.97522 -7.04194,1.95576 -11.28338,0.0633 -11.15126,-4.97546 0.12538,-4.78159 2.04268,-7.35454 14.95192,-20.06495 12.03011,-11.84482 14.20291,-14.6512 12.93362,-16.70496 -1.39633,-2.25931 -9.48884,1.51144 -19.67209,9.16632 -6.50613,4.89075 -21.96123,18.93284 -28.218626,25.6387 l -5.75919,6.17195 -6.41315,0.28049 c -4.069523,0.17799 -6.321824,0.0394 -6.163217,-0.37931 0.137467,-0.36288 16.123067,-17.4253 35.523553,-37.91649 l 35.27362,-37.2567 -4.94028,-0.53824 c -17.02204,-1.8545395 -23.05858,2.05053 -52.008176,33.6444 -20.44833,22.31609 -29.287844,29.85065 -42.932111,36.59419 -10.674728,5.27587 -16.461695,6.76434 -26.666668,6.85898 -10.312951,0.0956 -14.7455523,-1.12944 -18.8165953,-5.20048 -1.914985,-1.91499 -2.88305596,-3.48036 -2.95060496,-4.77113 -0.457138,-8.73526 4.41941696,-14.92105 11.76298126,-14.92105 5.950681,0 5.706967,7.58728 -0.342852,10.67367 -2.4861783,1.26835 -2.6529293,1.53793 -2.6529293,4.28873 0,5.55142 4.3186523,8.37093 12.8218143,8.37093 7.292793,0 14.935796,-3.08268 24.51152,-9.88632 6.051287,-4.29949 13.387188,-11.48693 28.694388,-28.11368 7.257687,-7.88333 15.245507,-16.15916 17.750707,-18.39072 9.885316,-8.80558 19.302696,-14.4691 30.251326,-18.19286 l 5.63691,-1.9171795 -2.52213,-0.49463 c -4.39208,-0.86136 -40.772036,0.0931 -48.477333,1.27182 -16.271414,2.4891795 -28.206888,6.3734995 -36.3789,11.8392695 -5.352955,3.58027 -7.456285,5.90253 -9.573457,10.56993 -2.19542,4.83988 -1.865227,7.07944 1.522325,10.32529 4.68477,4.4888 12.671501,5.57001 22.526458,3.04953 13.897881,-3.55448 23.927401,-11.78232 27.147074,-22.27043 1.207907,-3.93477 2.770617,-5.84154 2.741907,-3.34557 -0.029,2.52124 -3.264013,10.30163 -5.614893,13.50417 -5.341334,7.27635 -14.066534,13.37233 -24.218188,16.92033 -4.836973,1.69053 -6.888826,2.04213 -12.15286,2.08249 -5.351946,0.0411 -6.823307,-0.19274 -9.495347,-1.50866 -4.741983,-2.33531 -6.173201,-4.76054 -6.16268,-10.44278 0.01509,-8.14699 4.172946,-15.01893 12.99136,-21.47159 C 49.866943,12.535976 61.906357,7.6667165 78.130151,4.0735965 93.632184,0.64032649 100.27163,0.02576649 122.13015,8.864917e-4 143.91245,-0.02391351 170.78508,0.47636649 170.79238,0.90678649 c 0.007,0.39996001 -8.66666,9.42746951 -34.29142,35.69131951 -12.85395,13.17453 -22.98017,23.72216 -22.50273,23.43918 0.47745,-0.28298 4.22745,-3.20904 8.33334,-6.50235 9.59398,-7.69528 18.05725,-12.04978 24.17688,-12.43945 5.60493,-0.3569 7.62819,0.81275 7.60706,4.39763 -0.0281,4.76885 -2.16979,7.75869 -14.81515,20.68228 -6.71032,6.85796 -12.69069,13.4926 -13.28971,14.74365 -2.36543,4.94016 0.59935,5.17925 8.44351,0.68093 7.57564,-4.34435 16.185,-11.13242 19.06664,-15.03314 10.21068,-13.82169 30.56433,-25.59157 44.24942,-25.58805 5.55863,10e-4 8.62084,1.57516 8.90806,4.57802 0.69715,7.28852 -8.29321,13.74184 -25.59476,18.37206 -4.74102,1.26878 -10.3717,2.65063 -12.51264,3.07078 -3.66156,0.71857 -3.96734,0.92854 -5.15202,3.53767 -3.03199,6.67766 -0.93649,12.2682 4.84264,12.91959 9.88077,1.11371 24.67426,-7.0118 46.73623,-25.67044 6.6864,-5.65494 8.85575,-5.89665 2.79909,-0.31188 -10.26499,9.46521 -24.81628,20.0452 -33.66667,24.47845 -9.88328,4.95063 -22.26265,7.47865 -28.03893,5.72589 z m 19.9062,-24.94129 c 11.50838,-4.85867 21.46606,-13.39103 21.46606,-18.39345 0,-1.94038 -3.79804,-1.82965 -7.85549,0.22904 -6.49323,3.29456 -17.94815,13.21448 -22.32493,19.33332 l -1.37965,1.9288 2.48064,-0.46538 c 1.36435,-0.25595 4.79037,-1.4405 7.61337,-2.63233 z"
     id="path7384"
     inkscape:connector-curvature="0"
     sodipodi:nodetypes="cccccscccccssccccscscccccscccsccsccccccscccsccscccccsccccccccccccscsscscccccccscscscccscccsssccccccsccccccccsccccscscccccscccscscccccccccccscssccccscscccsccccccccccccccsccssccccccccscccccccccccccccscscccscccccccsccccccsccccccsccccccccscsscsscscscsssccsscsssscscscscssssscccsssscscsscsccccccccsssscssccccs" />
</svg>
