<?xml version="1.0" encoding="UTF-8" standalone="no"?>
<!-- Created with Inkscape (http://www.inkscape.org/) -->

<svg
   xmlns:dc="http://purl.org/dc/elements/1.1/"
   xmlns:cc="http://creativecommons.org/ns#"
   xmlns:rdf="http://www.w3.org/1999/02/22-rdf-syntax-ns#"
   xmlns:svg="http://www.w3.org/2000/svg"
   xmlns="http://www.w3.org/2000/svg"
   xmlns:sodipodi="http://sodipodi.sourceforge.net/DTD/sodipodi-0.dtd"
   xmlns:inkscape="http://www.inkscape.org/namespaces/inkscape"
   version="1.1"
   id="svg7374"
   width="666.69922"
   height="245.63713"
   viewBox="0 0 666.69922 245.63713"
   sodipodi:docname="the_little_ones.svg"
   inkscape:version="0.92.4 (5da689c313, 2019-01-14)">
  <metadata
     id="metadata7380">
    <rdf:RDF>
      <cc:Work
         rdf:about="">
        <dc:format>image/svg+xml</dc:format>
        <dc:type
           rdf:resource="http://purl.org/dc/dcmitype/StillImage" />
        <dc:title></dc:title>
      </cc:Work>
    </rdf:RDF>
  </metadata>
  <defs
     id="defs7378" />
  <sodipodi:namedview
     pagecolor="#ffffff"
     bordercolor="#666666"
     borderopacity="1"
     objecttolerance="10"
     gridtolerance="10"
     guidetolerance="10"
     inkscape:pageopacity="0"
     inkscape:pageshadow="2"
     inkscape:window-width="1920"
     inkscape:window-height="1017"
     id="namedview7376"
     showgrid="false"
     inkscape:zoom="0.82612475"
     inkscape:cx="25.92119"
     inkscape:cy="-222.1102"
     inkscape:window-x="-8"
     inkscape:window-y="-8"
     inkscape:window-maximized="1"
     inkscape:current-layer="svg7374" />
  <path
     style="fill:#fffaf3;fill-opacity:1;stroke-width:0.66666669"
     d="m 130.79681,244.77519 c 0,-0.47807 1.04629,-1.88333 2.32509,-3.12279 2.73476,-2.65063 4.52353,-6.91435 4.6118,-10.99268 0.11964,-5.52858 -4.28556,-8.95594 -12.24293,-9.52528 -3.55145,-0.25411 -6.31177,0.12775 -13.41603,1.85595 -9.04123,2.19939 -17.932386,2.96635 -19.174356,1.65402 -1.01659,-1.07418 0.34815,-3.61434 2.37854,-4.42713 1.01817,-0.40758 7.860226,-0.95102 15.204566,-1.20762 12.546,-0.43835 13.58902,-0.57445 17.25126,-2.25108 9.06383,-4.14956 20.20798,-14.14136 36.93323,-33.11417 5.33331,-6.05 10.56609,-11.93697 11.6284,-13.08215 l 1.93148,-2.08214 -3.44058,-1.23722 c -4.17383,-1.50088 -8.50603,-5.07402 -9.74388,-8.03661 -2.77188,-6.63404 1.79043,-16.79251 9.5962,-21.36701 2.54449,-1.49116 4.03316,-1.83507 8.77736,-2.02772 5.67948,-0.23063 8.3656,0.4471 7.03716,1.77554 -0.44206,0.44207 -1.58856,0.43044 -3.42112,-0.0347 -1.98412,-0.50363 -3.80782,-0.4813 -6.51014,0.0797 -9.01059,1.87059 -16.21732,12.13035 -13.75706,19.58503 1.27314,3.85764 8.16082,9.09398 11.96188,9.09398 0.60574,0 3.6441,-2.4989 6.75191,-5.5531 16.70787,-16.41969 38.11519,-27.10229 54.31723,-27.10518 9.28168,-0.001 13,2.08173 13,7.28395 0,2.66071 -2.61547,8.51802 -4.60926,10.32238 -1.02502,0.92762 -1.12383,1.45224 -0.55657,2.95506 2.21182,5.85981 -8.96314,13.04296 -12.84096,8.25405 l -1.19779,-1.47921 -4.3278,1.62898 c -8.91141,3.35425 -21.7519,6.07423 -32.71406,6.92978 -3.90497,0.30477 -7.18396,0.67619 -7.28662,0.82537 -0.10267,0.14919 -3.21623,3.72125 -6.91903,7.93792 -11.60187,13.21194 -22.90692,23.44542 -33.28002,30.12551 -4.42817,2.85166 -14.29539,7.61419 -18.53289,8.94511 -3.3625,1.0561 -3.70028,1.29964 -2.33333,1.68233 0.87908,0.24611 3.26887,0.47738 5.31066,0.51393 4.99678,0.0894 10.22317,1.72978 12.77445,4.00936 1.59924,1.42892 2.18736,2.61068 2.47246,4.96817 l 0.37409,3.09329 11.66667,-8.76336 c 6.41666,-4.81985 17.36666,-12.78978 24.33333,-17.71095 10.68798,-7.54987 13.93203,-10.26882 20.76692,-17.40549 l 8.10025,-8.4579 6.89975,-0.23297 6.89975,-0.23297 -12.68058,12.89964 c -21.37576,21.74501 -26.43702,28.57856 -21.15276,28.55978 6.40318,-0.0227 25.0768,-13.49604 39.52807,-28.5201 5.1179,-5.32075 9.30527,-9.92893 9.30527,-10.2404 0,-0.31148 -1.79059,-0.56632 -3.97908,-0.56632 -3.26306,0 -3.91002,-0.17994 -3.59534,-1 0.29259,-0.76248 1.53931,-1 5.24899,-1 h 4.86525 l 7.56343,-8.03118 7.56342,-8.0312 6.5493,0.19786 6.5493,0.19786 -7.43206,7.82434 -7.43206,7.82434 10.21609,-0.0389 10.21609,-0.0389 7.66667,-7.97988 7.66667,-7.97988 6.5493,0.19443 6.5493,0.19443 -7.4406,7.83333 -7.4406,7.83334 h 7.37038 c 6.27754,0 7.31347,0.14827 6.98664,1 -0.31214,0.81339 -1.90384,1 -8.52964,1 h -8.1459 l -12.3832,13.16666 c -14.3183,15.22421 -18.10536,19.68846 -19.46763,22.94883 -1.68564,4.03431 0.41363,4.86556 6.36425,2.52005 7.95765,-3.13662 25.53634,-15.38136 31.3364,-21.82793 1.60488,-1.78377 15.18224,-16.17015 30.17191,-31.96974 l 27.25396,-28.72653 6.13244,-0.45976 c 3.37284,-0.25288 6.59868,-0.35293 7.16853,-0.22234 0.67458,0.15458 -9.66765,11.28638 -29.64118,31.90409 -16.8725,17.41667 -33.44278,34.71443 -36.82287,38.43948 -8.35423,9.20679 -10.71282,14.22713 -6.68403,14.22713 2.29223,0 11.28594,-4.79843 17.79138,-9.49227 6.85041,-4.94274 9.40656,-7.23873 12.54782,-11.27079 6.52638,-8.37709 19.35372,-17.149 31.22243,-21.3513 5.48502,-1.94204 14.42143,-2.33334 17.44424,-0.76383 1.8605,0.96601 2.37686,1.66661 2.54814,3.45725 0.69714,7.28852 -8.29322,13.74184 -25.59477,18.37206 -4.74102,1.26878 -10.3717,2.65063 -12.51263,3.07078 -3.66156,0.71857 -3.96735,0.92854 -5.15203,3.53767 -3.03199,6.67766 -0.93649,12.2682 4.84265,12.91959 9.88076,1.11371 24.67426,-7.0118 46.73622,-25.67044 6.6864,-5.65494 8.85576,-5.89665 2.79909,-0.31188 -10.26499,9.46521 -24.81627,20.0452 -33.66667,24.47845 -8.41952,4.21743 -19.33482,6.85942 -25.38097,6.14334 -7.21462,-0.85446 -9.69073,-3.92736 -9.07573,-11.26311 l 0.38115,-4.54634 -4.12889,3.01556 c -13.64062,9.96248 -23.1642,13.7538 -29.38864,11.69955 -4.06599,-1.3419 -4.09769,-6.04449 -0.081,-12.0133 1.25236,-1.861 1.92192,-3.16417 1.48791,-2.89594 -0.43401,0.26823 -3.49468,2.40385 -6.80148,4.74581 -7.18134,5.08601 -15.40277,9.19388 -20.41512,10.20051 -4.09722,0.82283 -8.39662,0.044 -10.30787,-1.86722 -1.49325,-1.49326 -0.83943,-6.13842 1.40247,-9.96393 l 1.68646,-2.87773 -6.18915,4.38324 c -11.45153,8.11012 -21.27183,11.85765 -27.01804,10.31035 -4.11742,-1.1087 -5.06918,-2.3468 -4.5751,-5.95154 0.22584,-1.64761 1.00911,-4.01005 1.74062,-5.24987 0.73152,-1.23982 1.33002,-2.38191 1.33002,-2.53799 0,-0.15607 -2.475,1.48064 -5.5,3.63715 -7.28452,5.19309 -13.26198,8.39185 -18.25794,9.77051 -12.21272,3.37016 -14.93751,-5.11474 -5.20696,-16.21434 1.68756,-1.925 2.87879,-3.5 2.64717,-3.5 -0.59418,0 -14.61835,10.01682 -28.1459,20.1033 -11.63459,8.67505 -14.83349,11.47723 -18.68168,16.36476 -1.19295,1.51514 -3.69266,3.49581 -5.63089,4.46167 -3.75012,1.86881 -7.89045,2.32413 -7.89045,0.86776 z M 235.04833,217.6405 c 9.93142,-5.0011 17.33789,-10.80984 29.91516,-23.46182 6.50833,-6.547 11.83333,-12.12376 11.83333,-12.39282 0,-0.26905 -4.59587,-0.56295 -10.21304,-0.6531 l -10.21304,-0.16391 -12.38739,13.17111 c -14.32247,15.22864 -18.10947,19.69272 -19.47181,22.95328 -2.0143,4.82088 1.67,5.01224 10.53679,0.54726 z M 344.6641,198.73763 c 11.50837,-4.85867 21.46606,-13.39103 21.46606,-18.39345 0,-1.94038 -3.79805,-1.82965 -7.8555,0.22904 -6.49323,3.29456 -17.94814,13.21448 -22.32492,19.33332 l -1.37966,1.9288 2.48064,-0.46538 c 1.36436,-0.25595 4.79037,-1.4405 7.61338,-2.63233 z M 204.46348,166.87285 c 6.89547,-1.06095 18.01929,-4.89522 23.33334,-8.04277 6.44598,-3.81801 11.89144,-9.425 14.43747,-14.86576 1.73822,-3.71446 1.94822,-4.67472 1.32261,-6.04779 -2.29775,-5.04301 -12.06182,-2.84605 -24.71189,5.56028 -8.38707,5.57344 -20.73761,16.40707 -25.55181,22.41351 l -2.06728,2.57924 4.28545,-0.43934 c 2.35699,-0.24164 6.38545,-0.76246 8.95211,-1.15737 z m 217.33334,56.81485 c -6.46392,-1.57364 -9.22022,-4.9832 -9.56614,-11.83338 -0.4957,-9.81629 5.21955,-21.63446 17.47606,-36.13748 14.41271,-17.05444 39.30456,-32.96819 56.42357,-36.07246 2.29208,-0.41563 5.27605,-1.45554 6.63103,-2.3109 3.75803,-2.37234 8.32286,-3.68907 12.78926,-3.68907 4.57235,0 7.36939,1.27687 8.57021,3.91239 4.8902,10.7328 -5.2814,30.89495 -26.82254,53.1677 -4.86034,5.02541 -5.12567,5.44286 -3.70186,5.82423 3.31127,0.88691 11.13602,0.40589 15.63019,-0.96087 4.38337,-1.33305 4.87184,-1.70526 11.94731,-9.10392 l 7.37707,-7.71406 7.28959,-0.26956 7.28959,-0.26956 -7.33333,7.06948 -7.33334,7.06948 6,-4.38624 c 8.8238,-6.45054 17.35439,-10.54688 22.66849,-10.88526 3.88766,-0.24754 4.3912,-0.1214 6.02092,1.50832 1.52438,1.52438 1.71322,2.13033 1.32188,4.2415 -0.9162,4.94249 -3.78821,8.69534 -15.14927,19.7955 -11.42918,11.16672 -14.69236,15.53041 -13.07292,17.48172 0.38912,0.46886 1.15189,0.85248 1.69504,0.85248 3.57636,0 23.81941,-14.10586 27.44705,-19.1258 9.3049,-12.87612 30.39298,-24.87659 43.70888,-24.87316 5.55864,0.001 8.62085,1.57516 8.90807,4.57802 0.69715,7.28852 -8.29321,13.74184 -25.59477,18.37206 -4.74102,1.26878 -10.3717,2.65063 -12.51263,3.07078 -3.66156,0.71857 -3.96735,0.92854 -5.15202,3.53767 -0.69269,1.52557 -1.26602,4.18204 -1.27407,5.90326 -0.0395,8.45774 8.44012,9.51155 22.48045,2.79374 5.65145,-2.70403 6.29525,-3.21163 7.77367,-6.12914 3.07481,-6.06785 9.44322,-10.38893 13.67879,-9.28131 1.83499,0.47986 9.38578,-5.75163 9.38578,-7.74586 0,-1.75223 3.09794,-6.80981 5.40607,-8.82574 8.38061,-7.3197 25.00138,-8.57716 28.32847,-2.14322 1.78526,3.45226 -0.38827,8.86663 -4.73774,11.80184 -2.48808,1.67908 -8.52051,2.71019 -9.22136,1.57619 -0.21879,-0.35401 0.37181,-1.66344 1.31246,-2.90983 2.13098,-2.82364 4.24544,-7.56582 4.24544,-9.52144 0,-2.21453 -1.2751,-3.07806 -4.5451,-3.07806 -2.51746,0 -3.31028,0.36519 -5.46013,2.51504 -2.27684,2.27682 -3.98113,6.0638 -3.99106,8.8682 -0.002,0.57744 0.74628,3.25498 1.66295,5.9501 3.09864,9.11037 1.90606,14.3915 -4.65011,20.59204 -1.98187,1.87438 -3.49114,3.40796 -3.35392,3.40796 0.96503,0 9.60389,-4.15304 14.01992,-6.73993 6.60453,-3.86889 13.06469,-8.80442 22.84038,-17.44993 4.1376,-3.65925 7.7376,-6.43097 8,-6.15938 1.1716,1.21267 -20.27833,19.19244 -29.53731,24.75881 -13.37243,8.0393 -28.06393,11.3761 -37.60824,8.54175 -4.09244,-1.21532 -6.39377,-3.38612 -6.99665,-6.5998 l -0.4262,-2.27178 -4.88596,2.63546 c -12.0504,6.4999 -25.99429,8.93164 -32.35478,5.6425 -3.59091,-1.85693 -5.04601,-7.21696 -3.46024,-12.74621 0.56045,-1.95417 0.2715,-1.81116 -6.41276,3.17391 -9.80948,7.31582 -15.81885,10.18914 -21.33999,10.20348 -3.90975,0.0101 -4.42509,-0.15742 -5.95724,-1.9371 -1.40312,-1.6298 -1.60872,-2.3767 -1.258,-4.56998 0.23058,-1.44197 0.89851,-3.56528 1.48428,-4.71845 0.58578,-1.15318 6.6902,-7.79669 13.56539,-14.76335 6.87518,-6.96667 12.70669,-13.33898 12.95891,-14.1607 0.63025,-2.05331 -0.0219,-2.8393 -2.35565,-2.8393 -5.91198,0 -21.45519,11.6963 -41.14015,30.95805 l -10.86831,10.63466 -6.0491,0.28921 c -4.17546,0.19963 -5.97143,0.0649 -5.79835,-0.43496 0.13791,-0.39828 4.75074,-5.46861 10.25074,-11.26738 5.5,-5.79878 10.5538,-11.19186 11.23066,-11.98462 l 1.23066,-1.44138 -3.56399,0.94863 c -4.27587,1.13811 -11.14255,1.24411 -14.54557,0.22455 -2.43869,-0.73066 -2.53725,-0.6853 -7.87626,3.62513 -11.18296,9.0285 -19.30466,14.14591 -28.81878,18.15847 -8.62766,3.63868 -18.39146,5.11038 -24.32339,3.66626 z m 190.53505,-3.90126 c 1.90573,-1.07089 4.31183,-3.14119 5.34691,-4.60067 2.78293,-3.92403 2.95506,-7.02823 0.76318,-13.7638 l -1.84748,-5.67723 -3.23183,2.78316 c -2.43199,2.09437 -3.23191,3.2451 -3.23216,4.64962 -6.7e-4,4.2484 -3.06469,7.13356 -7.5756,7.13356 -1.83753,0 -2.40751,0.4062 -3.6353,2.59076 -2.24171,3.98859 -1.6827,7.44221 1.42082,8.77795 2.55727,1.10063 8.26806,0.19895 11.99146,-1.89335 z m -174.00882,0.86654 c 8.78994,-2.28949 21.293,-10.09665 31.04562,-19.3855 l 6.41302,-6.10807 -2.12504,-1.78811 c -3.40563,-2.86564 -5.70495,-8.334 -6.0563,-14.40342 -0.66028,-11.40603 4.57046,-22.63723 15.60844,-33.51369 l 4.56287,-4.49609 -3.65409,1.06624 c -16.99039,4.9577 -38.80683,25.05561 -51.75966,47.68242 -5.23838,9.15074 -7.73667,16.43866 -7.82347,22.8224 -0.0692,5.08724 -0.0164,5.26692 2.10624,7.16666 2.55152,2.28362 5.62343,2.53531 11.68237,0.95716 z m 139.00772,-21.91535 c 11.50837,-4.85867 21.46606,-13.39103 21.46606,-18.39345 0,-1.94038 -3.79805,-1.82965 -7.85549,0.22904 -6.49324,3.29456 -17.94815,13.21448 -22.32493,19.33332 l -1.37965,1.9288 2.48064,-0.46538 c 1.36435,-0.25595 4.79036,-1.4405 7.61337,-2.63233 z m -94.68253,-11.14248 c 8.94739,-10.58517 17.48055,-25.16391 21.1113,-36.06829 3.17252,-9.52815 1.7991,-14.54912 -3.97973,-14.54912 -1.60614,0 -3.68962,0.35055 -4.62995,0.779 l -1.70971,0.77899 2.46578,1.38767 c 3.16528,1.78134 3.88369,4.20993 2.57978,8.72101 -1.03398,3.57717 -2.6457,6.2654 -3.3401,5.57101 -0.23479,-0.23479 -0.007,-1.43432 0.50755,-2.66562 0.51394,-1.2313 1.14511,-3.36376 1.40261,-4.7388 0.39856,-2.12836 0.22037,-2.74788 -1.19842,-4.16667 -3.40521,-3.40521 -6.59541,-1.91173 -12.19351,5.70834 -10.70575,14.57255 -14.50663,35.95505 -7.72358,43.45023 0.60091,0.664 1.41447,1.10282 1.80791,0.97514 0.39342,-0.12768 2.59846,-2.45998 4.90007,-5.18289 z M 156.09122,87.678922 c -5.28485,-1.603633 -6.94895,-4.307033 -6.45316,-10.483453 0.24318,-3.02954 0.12645,-4.07254 -0.4187,-3.74106 -0.41573,0.252787 -3.0646,2.16762 -5.88638,4.255187 -6.9973,5.17664 -11.4521,7.630466 -16.29411,8.975226 -7.04194,1.955754 -11.28338,0.06333 -11.15126,-4.97546 0.12538,-4.781593 2.04268,-7.354546 14.95192,-20.064953 12.03011,-11.844818 14.20291,-14.6512 12.93362,-16.704963 -1.39633,-2.25931 -9.48884,1.511442 -19.67209,9.166323 -6.50613,4.890747 -21.96123,18.93284 -28.218626,25.6387 l -5.75919,6.171953 -6.41315,0.280487 c -4.069523,0.177987 -6.321824,0.0394 -6.163217,-0.379307 0.137467,-0.362886 16.123067,-17.425306 35.523553,-37.916492 l 35.27362,-37.256701 -4.94028,-0.538241 C 126.38173,8.2516258 120.34519,12.1567 91.395594,43.750572 70.947264,66.066656 62.10775,73.601216 48.463483,80.344756 37.788755,85.620629 32.001788,87.109102 21.796815,87.203736 11.483864,87.299369 7.0512627,86.074296 2.9802197,82.003256 1.0652347,80.088269 0.09716374,78.522896 0.02961474,77.232129 -0.42752326,68.496869 4.4490317,62.311076 11.792596,62.311076 c 5.950681,0 5.706967,7.587286 -0.342852,10.673673 -2.4861783,1.268353 -2.6529293,1.537927 -2.6529293,4.288727 0,5.551426 4.3186523,8.370933 12.8218143,8.370933 7.292793,0 14.935796,-3.08268 24.51152,-9.88632 C 52.181436,71.458602 59.517337,64.271156 74.824537,47.644409 82.082224,39.761076 90.070044,31.48525 92.575244,29.253686 102.46056,20.448106 111.87794,14.784588 122.82657,11.06083 l 5.63691,-1.9171812 -2.52213,-0.494632 c -4.39208,-0.861362 -40.772036,0.09308 -48.477333,1.271827 -16.271414,2.4891722 -28.206888,6.3734922 -36.3789,11.8392662 -5.352955,3.580274 -7.456285,5.902532 -9.573457,10.569925 -2.19542,4.839891 -1.865227,7.079449 1.522325,10.325295 4.68477,4.488798 12.671501,5.570006 22.526458,3.049532 13.897881,-3.554477 23.927401,-11.782319 27.147074,-22.27043 1.207907,-3.93477 2.770617,-5.84154 2.741907,-3.345578 -0.029,2.521242 -3.264013,10.301636 -5.614893,13.504175 C 74.493197,40.869384 65.767997,46.965352 55.616343,50.513362 50.77937,52.20389 48.727517,52.55549 43.463483,52.59585 38.111537,52.63688 36.640176,52.403109 33.968136,51.08719 29.226153,48.751874 27.794935,46.326648 27.805456,40.644409 27.820546,32.49742 31.978402,25.625476 40.796816,19.172815 49.866943,12.53597 61.906357,7.6667068 78.130151,4.0735898 93.632184,0.64032183 100.27163,0.02576483 122.13015,8.8583117e-4 143.91245,-0.02390417 170.78508,0.47635183 170.79238,0.90677883 c 0.007,0.39996397 -8.66666,9.42747017 -34.29142,35.69132017 -12.85395,13.174529 -22.98017,23.722157 -22.50273,23.439177 0.47745,-0.28298 4.22745,-3.209034 8.33334,-6.502344 9.59398,-7.695282 18.05725,-12.049786 24.17688,-12.439454 5.60493,-0.356896 7.62819,0.812748 7.60706,4.397633 -0.0281,4.768843 -2.16979,7.758691 -14.81515,20.682278 -6.71032,6.85796 -12.69069,13.4926 -13.28971,14.743647 -2.36543,4.94016 0.59935,5.179253 8.44351,0.680933 7.57564,-4.344347 16.185,-11.13242 19.06664,-15.03314 10.21068,-13.821695 30.56433,-25.591572 44.24942,-25.588051 5.55863,0.0014 8.62084,1.575156 8.90806,4.578018 0.69715,7.288517 -8.29321,13.741846 -25.59476,18.37206 -4.74102,1.26878 -10.3717,2.650633 -12.51264,3.070786 -3.66156,0.718567 -3.96734,0.928534 -5.15202,3.537667 -3.03199,6.67766 -0.93649,12.2682 4.84264,12.919593 9.88077,1.113707 24.67426,-7.011806 46.73623,-25.670446 6.6864,-5.654938 8.85575,-5.896647 2.79909,-0.311874 -10.26499,9.465207 -24.81628,20.045194 -33.66667,24.478447 -9.88328,4.950633 -22.26265,7.478653 -28.03893,5.725893 z m 19.9062,-24.941293 c 11.50838,-4.858667 21.46606,-13.391028 21.46606,-18.393447 0,-1.940389 -3.79804,-1.829655 -7.85549,0.229032 -6.49323,3.294563 -17.94815,13.214488 -22.32493,19.333322 l -1.37965,1.9288 2.48064,-0.465374 c 1.36435,-0.255953 4.79037,-1.440506 7.61337,-2.632333 z"
     id="path7384"
     inkscape:connector-curvature="0"
     sodipodi:nodetypes="ssccsscssscccscsccscsscsccscsscssscccccssscccscssscscccccccccccccccscscsscsscccscsscccccscsssccsccscssccscscccscscssccscssscscccscscccscccssccscsscsscsccccccccscscscsccccscccccscccscssccscscsccscccsssccscccsscscsccsccccscscccsscsssccsccssccscscccccssscccccccssccscccscsscsscscscsssssssssssssscsssssssssssssssscscsscscccccsscsssscssscccs" />
</svg>
