<?xml version="1.0" encoding="UTF-8" standalone="no"?>
<!-- Created with Inkscape (http://www.inkscape.org/) -->

<svg
   xmlns:dc="http://purl.org/dc/elements/1.1/"
   xmlns:cc="http://creativecommons.org/ns#"
   xmlns:rdf="http://www.w3.org/1999/02/22-rdf-syntax-ns#"
   xmlns:svg="http://www.w3.org/2000/svg"
   xmlns="http://www.w3.org/2000/svg"
   xmlns:sodipodi="http://sodipodi.sourceforge.net/DTD/sodipodi-0.dtd"
   xmlns:inkscape="http://www.inkscape.org/namespaces/inkscape"
   version="1.1"
   id="svg7374"
   width="462.03256"
   height="244.3038"
   viewBox="0 0 462.03256 244.3038"
   sodipodi:docname="the_ladies.svg"
   inkscape:version="0.92.4 (5da689c313, 2019-01-14)">
  <metadata
     id="metadata7380">
    <rdf:RDF>
      <cc:Work
         rdf:about="">
        <dc:format>image/svg+xml</dc:format>
        <dc:type
           rdf:resource="http://purl.org/dc/dcmitype/StillImage" />
        <dc:title></dc:title>
      </cc:Work>
    </rdf:RDF>
  </metadata>
  <defs
     id="defs7378" />
  <sodipodi:namedview
     pagecolor="#ffffff"
     bordercolor="#666666"
     borderopacity="1"
     objecttolerance="10"
     gridtolerance="10"
     guidetolerance="10"
     inkscape:pageopacity="0"
     inkscape:pageshadow="2"
     inkscape:window-width="1920"
     inkscape:window-height="1017"
     id="namedview7376"
     showgrid="false"
     inkscape:zoom="0.82612475"
     inkscape:cx="-88.119671"
     inkscape:cy="221.49841"
     inkscape:window-x="-8"
     inkscape:window-y="-8"
     inkscape:window-maximized="1"
     inkscape:current-layer="svg7374" />
  <path
     style="fill:#fffaf3;fill-opacity:1;stroke-width:0.66666669"
     d="m 130.79681,243.44186 c 0,-0.47807 1.04629,-1.88332 2.32509,-3.12278 2.73476,-2.65064 4.52353,-6.91436 4.6118,-10.99269 0.11964,-5.52858 -4.28556,-8.95593 -12.24293,-9.52528 -3.55145,-0.25411 -6.31177,0.12775 -13.41603,1.85595 -9.04123,2.19939 -17.932386,2.96636 -19.174356,1.65402 -1.01659,-1.07418 0.34815,-3.61434 2.37854,-4.42712 1.01817,-0.40759 7.860226,-0.95102 15.204566,-1.20763 12.546,-0.43835 13.58902,-0.57445 17.25126,-2.25108 9.06383,-4.14955 20.20798,-14.14135 36.93323,-33.11417 5.33331,-6.05 10.56609,-11.93696 11.6284,-13.08214 l 1.93148,-2.08214 -3.44058,-1.23722 c -4.17383,-1.50089 -8.50603,-5.07402 -9.74388,-8.03662 -2.77188,-6.63404 1.79043,-16.79251 9.5962,-21.367 2.54449,-1.49117 4.03316,-1.83508 8.77736,-2.02773 5.67948,-0.23063 8.3656,0.44711 7.03716,1.77555 -0.44206,0.44206 -1.58856,0.43043 -3.42112,-0.0347 -1.98412,-0.50362 -3.80782,-0.4813 -6.51014,0.0797 -9.01059,1.8706 -16.21732,12.13035 -13.75706,19.58503 1.27314,3.85765 8.16082,9.09398 11.96188,9.09398 0.60574,0 3.6441,-2.49889 6.75191,-5.55309 16.70787,-16.4197 38.11519,-27.1023 54.31723,-27.10519 9.31835,-0.001 13,2.07669 13,7.33873 0,13.25252 -25.41982,26.17444 -56.1732,28.5551 -3.94526,0.3054 -7.2572,0.67735 -7.35986,0.82654 -0.10267,0.14918 -3.21623,3.72124 -6.91903,7.93791 -11.60187,13.21194 -22.90692,23.44542 -33.28002,30.12551 -4.42817,2.85166 -14.29539,7.61419 -18.53289,8.94511 -3.3625,1.05611 -3.70028,1.29964 -2.33333,1.68233 0.87908,0.24612 3.26887,0.47738 5.31066,0.51393 4.99678,0.0894 10.22317,1.72979 12.77445,4.00936 1.59924,1.42892 2.18736,2.61068 2.47246,4.96817 l 0.37409,3.09329 11.33333,-8.51055 c 6.23334,-4.68079 15.68334,-11.62642 21,-15.43472 5.31667,-3.8083 12.31173,-9.43394 15.54458,-12.50141 11.72871,-11.12871 25.3039,-18.22435 34.86636,-18.22435 4.97354,0 6.78404,0.87868 8.16474,3.96258 l 1.18158,2.63914 2.02515,-2.02515 c 1.93148,-1.93149 2.34562,-2.04218 8.9547,-2.3935 l 6.92956,-0.36835 -15.01379,15.2593 c -14.84668,15.08946 -20.90054,22.52944 -20.51665,25.2142 0.48628,3.40078 6.4517,1.24212 18.19711,-6.58484 7.68115,-5.1186 11.39944,-8.38356 16.24218,-14.26193 9.6604,-11.72629 26.94104,-21.39179 38.3091,-21.42725 4.1507,-0.0129 4.7228,0.15732 6.5,1.93452 1.0718,1.07179 1.94872,2.40408 1.94872,2.96065 0,0.55657 0.26839,1.17781 0.59643,1.38055 0.32803,0.20274 10.55711,-10.12956 22.73128,-22.96066 l 22.13485,-23.32926 5.43539,-0.009 c 2.98946,-0.005 6.15055,-0.2005 7.02464,-0.43443 0.96036,-0.25702 1.48798,-0.15776 1.33333,0.25084 -0.14075,0.37188 -14.68971,15.39198 -32.33102,33.37798 -37.77653,38.51465 -46.22625,48.16974 -44.54159,50.89557 0.67828,1.09747 4.33481,0.28087 9.25336,-2.06655 8.19048,-3.90895 17.30732,-11.38355 31.58989,-25.8995 l 13.55989,-13.78162 6.77345,-0.23297 6.77344,-0.23296 -12.68058,12.89963 c -17.62309,17.92751 -22.98609,24.35142 -22.98609,27.53319 0,3.08685 8.76343,-0.60417 19.30581,-8.13129 6.24454,-4.45853 7.93058,-5.97648 15.69419,-14.12962 11.0776,-11.63341 27.57036,-20.0413 39.30673,-20.03828 5.55864,10e-4 8.62085,1.57516 8.90807,4.57802 0.69715,7.28852 -8.29321,13.74185 -25.59477,18.37206 -4.74102,1.26878 -10.3717,2.65063 -12.51263,3.07079 -3.66156,0.71856 -3.96735,0.92853 -5.15202,3.53766 -1.78905,3.94022 -1.68913,8.56724 0.23329,10.80218 3.21335,3.73575 10.6416,2.89621 21.5726,-2.43814 5.61976,-2.74245 6.91065,-3.66172 7.64603,-5.44489 1.21688,-2.9507 5.80961,-7.81986 8.40462,-8.91046 1.17989,-0.49587 3.18931,-0.90159 4.46539,-0.90159 3.06056,0 10.00573,-5.58186 10.59191,-8.51276 0.52057,-2.60288 4.20683,-7.3443 7.48353,-9.62565 8.31129,-5.78659 23.1445,-6.01263 26.04848,-0.39696 1.78524,3.45227 -0.38832,8.86663 -4.73777,11.80185 -2.48807,1.67907 -8.5205,2.71018 -9.22135,1.57618 -0.2188,-0.35401 0.37181,-1.66344 1.31245,-2.90982 2.13099,-2.82364 4.24544,-7.56582 4.24544,-9.52144 0,-2.21454 -1.27509,-3.07806 -4.5451,-3.07806 -2.51746,0 -3.31028,0.36518 -5.46013,2.51503 -2.27683,2.27683 -3.98112,6.0638 -3.99105,8.8682 -0.002,0.57744 0.74628,3.25499 1.66295,5.9501 3.09864,9.11037 1.90605,14.3915 -4.65011,20.59204 -1.98187,1.87438 -3.49115,3.40796 -3.35393,3.40796 0.96504,0 9.6039,-4.15304 14.01992,-6.73993 6.60454,-3.86889 13.06469,-8.80442 22.84038,-17.44992 4.13761,-3.65926 7.73761,-6.43098 8,-6.15938 1.17159,1.21266 -20.27832,19.19243 -29.53731,24.7588 -13.37243,8.0393 -28.06393,11.3761 -37.60823,8.54175 -4.10756,-1.21981 -6.39398,-3.38726 -7.00414,-6.63967 -0.23852,-1.2714 -0.54704,-2.31165 -0.6856,-2.31165 -0.13857,0 -2.48388,1.2039 -5.21182,2.67533 -12.12524,6.54027 -26.05096,8.98043 -32.4287,5.68238 -3.63842,-1.8815 -5.04589,-7.21737 -3.40914,-12.92438 0.59989,-2.09171 0.56414,-2.17106 -0.59872,-1.32894 -13.51814,9.7896 -18.28528,12.5716 -24.46388,14.27662 -9.12818,2.51896 -13.61804,-1.85596 -9.80663,-9.55558 l 1.23363,-2.4921 -8.21675,5.48832 c -10.8398,7.24036 -18.70723,9.70426 -23.70922,7.4252 -2.12852,-0.96982 -3.33452,-3.88745 -2.73504,-6.61681 l 0.46666,-2.12469 -2.90402,1.99098 c -10.6193,7.28052 -22.11284,8.90123 -24.90014,3.51118 -1.2757,-2.46692 -1.27705,-5.7323 -0.004,-9.34084 0.55,-1.55887 1,-2.9317 1,-3.05075 0,-0.11905 -2.116,1.37539 -4.70223,3.32097 -14.79608,11.13086 -27.37007,15.55429 -32.08509,11.28726 -1.08605,-0.98286 -1.29312,-1.81921 -1.05751,-4.27122 l 0.29297,-3.04905 -3.39074,2.30679 c -6.68056,4.5449 -11.50913,6.37654 -16.91968,6.41818 -4.57841,0.0353 -5.02342,-0.0897 -6.52561,-1.83269 -2.22231,-2.57851 -2.19536,-7.97014 0.0673,-13.46283 0.90627,-2.2 1.64915,-4.0677 1.65085,-4.15044 0.006,-0.2885 -14.41392,10.10267 -25.79388,18.58747 -11.63444,8.67454 -14.83335,11.47665 -18.68168,16.36436 -1.19295,1.51515 -3.69266,3.49581 -5.63089,4.46167 -3.75004,1.86878 -7.89037,2.32409 -7.89037,0.86772 z M 407.6652,218.45312 c 1.90572,-1.0709 4.31183,-3.1412 5.3469,-4.60068 2.78079,-3.921 2.96422,-7.08588 0.79246,-13.67277 -1.00377,-3.04439 -1.9256,-5.64471 -2.04851,-5.77849 -0.12291,-0.13377 -1.57917,0.91623 -3.23615,2.33334 -2.42526,2.07418 -3.01695,3.00548 -3.03455,4.77634 -0.0458,4.60429 -2.95829,7.46689 -7.59713,7.46689 -1.83753,0 -2.40751,0.40621 -3.6353,2.59077 -2.24171,3.98858 -1.6827,7.4422 1.42082,8.77794 2.55727,1.10064 8.26806,0.19895 11.99146,-1.89334 z M 205.79682,216.7434 c 9.29512,-4.33521 25.16171,-20.81173 29.94776,-31.09898 2.81789,-6.05684 2.14508,-8 -2.76992,-8 -5.39964,0 -13.98171,5.66179 -22.54995,14.87672 -8.33051,8.95926 -12.96123,16.84566 -12.96123,22.07376 0,4.05107 2.73962,4.7574 8.33334,2.1485 z m 67.5344,-1.9672 c 10.27355,-6.37568 24.32021,-22.22116 27.17513,-30.65518 0.9942,-2.93706 0.99444,-3.32037 0.003,-4.83333 -1.49667,-2.2842 -5.70667,-2.24981 -10.09306,0.0825 -10.50446,5.58527 -25.21224,21.92003 -27.90691,30.99398 -2.24518,7.5603 2.57927,9.52724 10.82172,4.41206 z m 98.66621,-17.3719 c 11.50837,-4.85866 21.46606,-13.39102 21.46606,-18.39344 0,-1.94039 -3.79805,-1.82966 -7.85549,0.22903 -6.49324,3.29456 -17.94815,13.21449 -22.32493,19.33332 l -1.37965,1.9288 2.48064,-0.46537 c 1.36435,-0.25596 4.79036,-1.44051 7.61337,-2.63234 z M 204.46348,165.53952 c 6.89547,-1.06094 18.01929,-4.89522 23.33334,-8.04277 6.44598,-3.81801 11.89144,-9.425 14.43747,-14.86575 1.73822,-3.71447 1.94822,-4.67473 1.32261,-6.0478 -2.29775,-5.043 -12.06182,-2.84604 -24.71189,5.56028 -8.38707,5.57344 -20.73761,16.40708 -25.55181,22.41352 l -2.06728,2.57924 4.28545,-0.43935 c 2.35699,-0.24164 6.38545,-0.76245 8.95211,-1.15737 z m 159.21026,-3.23309 c -5.84609,-2.35544 -0.0268,-11.99535 7.24116,-11.99535 6.70956,0 5.27963,8.71294 -1.93,11.76 -2.43437,1.02886 -3.2518,1.06508 -5.31116,0.23535 z M 156.09122,87.678927 c -5.28485,-1.60363 -6.94895,-4.30703 -6.45316,-10.48345 0.24318,-3.02954 0.12645,-4.07254 -0.4187,-3.74106 -0.41573,0.25278 -3.0646,2.16762 -5.88638,4.25518 -6.9973,5.17664 -11.4521,7.63047 -16.29411,8.97523 -7.04194,1.95575 -11.28338,0.0633 -11.15126,-4.97546 0.12538,-4.78159 2.04268,-7.35455 14.95192,-20.06495 12.03011,-11.84482 14.20291,-14.6512 12.93362,-16.70496 -1.39633,-2.25932 -9.48884,1.51144 -19.67209,9.16632 -6.50613,4.89074 -21.96123,18.93284 -28.218626,25.6387 l -5.75919,6.17195 -6.41315,0.28049 c -4.069523,0.17798 -6.321824,0.0394 -6.163217,-0.37931 0.137467,-0.36289 16.123067,-17.42531 35.523553,-37.91649 l 35.27362,-37.2567 -4.94028,-0.53824 c -17.02204,-1.8545405 -23.05858,2.05053 -52.008176,33.6444 -20.44833,22.31608 -29.287844,29.85064 -42.932111,36.59418 -10.674728,5.27588 -16.461695,6.76435 -26.666668,6.85898 -10.312951,0.0956 -14.7455523,-1.12944 -18.8165953,-5.20048 -1.914985,-1.91498 -2.88305596,-3.48036 -2.95060496,-4.77112 -0.457138,-8.73526 4.41941696,-14.92106 11.76298126,-14.92106 5.950681,0 5.706967,7.58729 -0.342852,10.67368 -2.4861783,1.26835 -2.6529293,1.53792 -2.6529293,4.28872 0,5.55143 4.3186523,8.37094 12.8218143,8.37094 7.292793,0 14.935796,-3.08268 24.51152,-9.88632 6.051287,-4.29949 13.387188,-11.48694 28.694388,-28.11368 7.257687,-7.88334 15.245507,-16.15916 17.750707,-18.39072 9.885316,-8.80558 19.302696,-14.4691 30.251326,-18.19286 l 5.63691,-1.9171805 -2.52213,-0.49464 c -4.39208,-0.86136 -40.772036,0.0931 -48.477333,1.27183 -16.271414,2.4891705 -28.206888,6.3734905 -36.3789,11.8392705 -5.352955,3.58027 -7.456285,5.90253 -9.573457,10.56992 -2.19542,4.83989 -1.865227,7.07945 1.522325,10.3253 4.68477,4.4888 12.671501,5.57 22.526458,3.04953 13.897881,-3.55448 23.927401,-11.78232 27.147074,-22.27043 1.207907,-3.93477 2.770617,-5.84154 2.741907,-3.34558 -0.029,2.52124 -3.264013,10.30164 -5.614893,13.50418 -5.341334,7.27635 -14.066534,13.37232 -24.218188,16.92033 -4.836973,1.69053 -6.888826,2.04213 -12.15286,2.08249 -5.351946,0.0411 -6.823307,-0.19274 -9.495347,-1.50866 -4.741983,-2.33532 -6.173201,-4.76054 -6.16268,-10.44278 0.01509,-8.14699 4.172946,-15.01894 12.99136,-21.4716 C 49.866943,12.535977 61.906357,7.6667165 78.130151,4.0735965 93.632184,0.64032651 100.27163,0.02576651 122.13015,8.8650862e-4 143.91245,-0.02391349 170.78508,0.47635651 170.79238,0.90677651 c 0.007,0.39996999 -8.66666,9.42748049 -34.29142,35.69132049 -12.85395,13.17454 -22.98017,23.72216 -22.50273,23.43918 0.47745,-0.28298 4.22745,-3.20903 8.33334,-6.50234 9.59398,-7.69528 18.05725,-12.04978 24.17688,-12.43946 5.60493,-0.35689 7.62819,0.81276 7.60706,4.39764 -0.0281,4.76884 -2.16979,7.75869 -14.81515,20.68228 -6.71032,6.85796 -12.69069,13.4926 -13.28971,14.74364 -2.36543,4.94016 0.59935,5.17926 8.44351,0.68094 7.57564,-4.34435 16.185,-11.13242 19.06664,-15.03314 10.21068,-13.8217 30.56433,-25.59158 44.24942,-25.58806 5.55863,10e-4 8.62084,1.57516 8.90806,4.57802 0.69715,7.28852 -8.29321,13.74185 -25.59476,18.37206 -4.74102,1.26878 -10.3717,2.65064 -12.51264,3.07079 -3.66156,0.71857 -3.96734,0.92853 -5.15202,3.53767 -3.03199,6.67766 -0.93649,12.2682 4.84264,12.91959 9.88077,1.11371 24.67426,-7.01181 46.73623,-25.67045 6.6864,-5.65494 8.85575,-5.89664 2.79909,-0.31187 -10.26499,9.46521 -24.81628,20.04519 -33.66667,24.47845 -9.88328,4.95063 -22.26265,7.47865 -28.03893,5.72589 z m 19.9062,-24.94129 c 11.50838,-4.85867 21.46606,-13.39103 21.46606,-18.39345 0,-1.94039 -3.79804,-1.82965 -7.85549,0.22903 -6.49323,3.29456 -17.94815,13.21449 -22.32493,19.33332 l -1.37965,1.9288 2.48064,-0.46537 c 1.36435,-0.25595 4.79037,-1.44051 7.61337,-2.63233 z"
     id="path7384"
     inkscape:connector-curvature="0"
     sodipodi:nodetypes="scccsccscsccscssscsssccsccsscccscccssscccscscssccscsccccsccccccsscsccscscscssccsscsssscscscccsscssscccccssccsccssscccccscsscscsccccsscccssssccccccccssccccsccccsscsccscccccccssssscccscssscssscsssscsccccssssssscssssscscsccssccccscsssscccsscccc" />
</svg>
