<?xml version="1.0" encoding="UTF-8" standalone="no"?>
<svg
   xmlns:dc="http://purl.org/dc/elements/1.1/"
   xmlns:cc="http://creativecommons.org/ns#"
   xmlns:rdf="http://www.w3.org/1999/02/22-rdf-syntax-ns#"
   xmlns:svg="http://www.w3.org/2000/svg"
   xmlns="http://www.w3.org/2000/svg"
   xmlns:sodipodi="http://sodipodi.sourceforge.net/DTD/sodipodi-0.dtd"
   xmlns:inkscape="http://www.inkscape.org/namespaces/inkscape"
   version="1.0"
   width="14.670869pt"
   height="44.2019pt"
   viewBox="0 0 14.670869 44.2019"
   preserveAspectRatio="xMidYMid meet"
   id="svg266"
   sodipodi:docname="tie.svg"
   inkscape:version="0.92.4 (5da689c313, 2019-01-14)">
  <metadata
     id="metadata272">
    <rdf:RDF>
      <cc:Work
         rdf:about="">
        <dc:format>image/svg+xml</dc:format>
        <dc:type
           rdf:resource="http://purl.org/dc/dcmitype/StillImage" />
        <dc:title></dc:title>
      </cc:Work>
    </rdf:RDF>
  </metadata>
  <defs
     id="defs270" />
  <sodipodi:namedview
     pagecolor="#ffffff"
     bordercolor="#666666"
     borderopacity="1"
     objecttolerance="10"
     gridtolerance="10"
     guidetolerance="10"
     inkscape:pageopacity="0"
     inkscape:pageshadow="2"
     inkscape:window-width="1920"
     inkscape:window-height="1017"
     id="namedview268"
     showgrid="false"
     inkscape:zoom="12.51579"
     inkscape:cx="45.203407"
     inkscape:cy="25.208944"
     inkscape:window-x="-8"
     inkscape:window-y="-8"
     inkscape:window-maximized="1"
     inkscape:current-layer="g264" />
  <g
     transform="matrix(0.1,0,0,-0.1,-0.03050593,1274.9988)"
     id="g264"
     style="fill:#000000;stroke:none">
    <path
       d="m 61.684602,12749.812 c -17.717059,-0.369 -30.882344,-1.154 -37.464989,-2.24 -2.415935,-0.422 -3.536419,-0.806 -4.726866,-1.646 -2.205881,-1.506 -11.5196455,-8.72 -11.7297004,-9.034 -0.1052115,-0.164 3.1512304,-5.429 7.2478914,-11.659 5.04201,-7.706 10.959405,-17.51 18.312345,-30.324 5.987358,-10.399 11.134415,-19.011 11.449558,-19.119 0.315226,-0.08 0.770296,-0.732 0.980393,-1.4 0.350022,-1.084 0.210013,-1.609 -2.135878,-7.073 -4.306715,-10.083 -7.562994,-17.435 -12.2899,-27.728 -4.936962,-10.82 -5.812307,-13.448 -7.457947,-22.97 -3.25632,-18.627 -7.808173,-58.264 -11.729701,-102.068 -0.38523,-4.338 -1.015435,-11.414 -1.400583,-15.753 -0.38523,-4.343 -1.08544,-12.678 -1.575636,-18.558 -0.4551936,-5.882 -1.3305378,-16.424 -1.9257815,-23.46 -1.2254491,-15.303 -3.81652,-48.845 -5.0770121,-66.353 -0.5251983,-6.932 -1.1204421,-15.369 -1.40054242,-18.729 l -0.45519367,-6.13 0.77029629,-0.737 c 0.4551936,-0.368 8.8235274,-6.616 18.6274474,-13.828 9.768917,-7.214 26.925774,-19.818 38.130277,-28.047 11.169459,-8.23 20.483183,-14.987 20.728282,-14.987 0.38523,0 8.718478,7.179 52.941168,45.449 l 15.51122,13.481 -0.21002,1.609 c -0.10522,0.875 -1.22549,11.45 -2.45098,23.495 -1.26053,12.043 -3.53642,33.789 -5.07705,48.318 -1.5406,14.534 -3.39633,31.724 -4.06162,38.167 -2.31089,21.813 -6.4776,59.594 -9.31372,84.034 -4.93697,43.101 -7.8081,64.81 -9.24368,70.378 -1.54063,5.916 -7.66808,18.417 -17.577052,35.784 l -4.306715,7.561 2.310929,4.344 c 1.260492,2.345 9.068628,16.806 17.366958,32.071 14.21568,26.155 15.05602,27.801 14.81092,29.03 -0.52524,2.939 -2.34593,5.146 -4.79695,5.882 -6.40755,1.888 -32.703078,2.833 -62.780087,2.24 z"
       id="path262"
       inkscape:connector-curvature="0"
       style="stroke-width:0.03501401;fill:#13273f;fill-opacity:1" />
  </g>
</svg>
