<?xml version="1.0" encoding="UTF-8" standalone="no"?>
<!-- Created with Inkscape (http://www.inkscape.org/) -->

<svg
   xmlns:dc="http://purl.org/dc/elements/1.1/"
   xmlns:cc="http://creativecommons.org/ns#"
   xmlns:rdf="http://www.w3.org/1999/02/22-rdf-syntax-ns#"
   xmlns:svg="http://www.w3.org/2000/svg"
   xmlns="http://www.w3.org/2000/svg"
   xmlns:sodipodi="http://sodipodi.sourceforge.net/DTD/sodipodi-0.dtd"
   xmlns:inkscape="http://www.inkscape.org/namespaces/inkscape"
   version="1.1"
   id="svg6798"
   width="571.85266"
   height="275.89923"
   viewBox="0 0 571.85266 275.89923"
   sodipodi:docname="when_she_said_yes.svg"
   inkscape:version="0.92.4 (5da689c313, 2019-01-14)">
  <metadata
     id="metadata6804">
    <rdf:RDF>
      <cc:Work
         rdf:about="">
        <dc:format>image/svg+xml</dc:format>
        <dc:type
           rdf:resource="http://purl.org/dc/dcmitype/StillImage" />
        <dc:title></dc:title>
      </cc:Work>
    </rdf:RDF>
  </metadata>
  <defs
     id="defs6802" />
  <sodipodi:namedview
     pagecolor="#ffffff"
     bordercolor="#666666"
     borderopacity="1"
     objecttolerance="10"
     gridtolerance="10"
     guidetolerance="10"
     inkscape:pageopacity="0"
     inkscape:pageshadow="2"
     inkscape:window-width="1920"
     inkscape:window-height="1017"
     id="namedview6800"
     showgrid="false"
     inkscape:zoom="1.1953472"
     inkscape:cx="372.4863"
     inkscape:cy="217.77733"
     inkscape:window-x="-8"
     inkscape:window-y="-8"
     inkscape:window-maximized="1"
     inkscape:current-layer="svg6798" />
  <path
     style="fill:#fffaf3;fill-opacity:1;stroke-width:0.66666669"
     d="m 348.79508,275.21613 c -3.89564,-0.76881 -7.30152,-2.48647 -8.86068,-4.46861 -5.64548,-7.17708 -0.45466,-19.13642 10.56544,-24.34212 3.72599,-1.7601 4.73496,-1.95456 8.67741,-1.67248 4.65351,0.33295 10.77303,2.54441 10.77303,3.89313 0,0.49852 -0.54365,0.62033 -1.5,0.33607 -0.825,-0.2452 -2.62744,-0.62002 -4.00542,-0.83292 -7.1959,-1.11179 -15.61426,7.18342 -16.355,16.11575 -0.52924,6.38189 2.87154,9.68199 9.96117,9.66625 10.02689,-0.0223 23.27159,-7.09376 38.55731,-20.58625 7.13126,-6.29467 27.41978,-26.23784 32.24983,-31.70089 l 4.09211,-4.62839 -5.33334,4.02682 c -15.10008,11.40099 -28.6667,17.67047 -38.55766,17.81846 -4.8085,0.072 -5.33134,-0.0539 -6.56884,-1.58071 -1.08245,-1.33553 -1.2647,-2.24115 -0.93504,-4.64631 0.89153,-6.50441 7.97404,-15.09314 33.00834,-40.02815 19.50086,-19.42351 26.73783,-27.55414 29.49814,-33.14077 3.48268,-7.0486 1.34652,-9.54375 -7.02559,-8.2063 -17.26663,2.75835 -36.58373,17.53859 -41.37803,31.65988 -1.75536,5.17029 -0.0847,9.02053 3.91415,9.02053 2.35521,0 10.35861,-3.63753 13.37787,-6.08022 3.92456,-3.1751 4.20396,-3.33512 4.62726,-2.6502 0.52002,0.84141 -8.1555,7.04523 -12.74692,9.11526 -6.76616,3.05049 -14.36836,2.70043 -16.6398,-0.76624 -1.54515,-2.35818 -0.84852,-7.97288 1.54308,-12.43706 3.62866,-6.77324 15.38682,-17.03809 25.21758,-22.01488 10.38447,-5.2571 19.77823,-7.82224 28.66546,-7.82762 9.75418,-0.006 13.42483,2.90168 11.73741,9.2974 -1.78665,6.77182 -7.18281,13.13621 -35.07083,41.36356 -11.77341,11.91666 -22.47742,23.01666 -23.7867,24.66666 -4.7731,6.01524 -5.70271,9.5018 -2.87676,10.7894 4.73288,2.15644 20.92287,-6.07236 37.99688,-19.3125 5.32538,-4.12959 40.20005,-39.02926 53.64874,-53.6872 l 8.98207,-9.7897 5.35127,-0.009 c 2.94319,-0.005 6.06642,-0.2005 6.94051,-0.43444 1.02099,-0.27324 1.49775,-0.16339 1.33333,0.30722 -0.27509,0.78742 -74.3767,77.09648 -86.36544,88.93822 -16.46155,16.25972 -30.68628,25.89417 -45.89048,31.08176 -9.53613,3.25366 -19.22528,4.24588 -26.82186,2.74668 z M 110.61694,239.04337 c -7.42779,-1.73498 -12.256778,-5.5688 -13.892958,-11.02988 -3.10685,-10.36974 5.188368,-24.09437 14.562728,-24.09437 4.40193,0 5.62467,1.15718 5.40922,5.1192 -0.13003,2.39121 -4.1218,6.03784 -7.55584,6.90254 -2.86137,0.72051 -3.1793,1.02724 -4.79388,4.625 -2.43773,5.43198 -2.34335,9.27412 0.3018,12.28678 3.05279,3.47694 7.03913,4.73314 15.01983,4.73314 6.59616,0 6.82437,-0.0529 12.62795,-2.92902 12.05551,-5.97439 21.44895,-18.34699 30.06929,-39.60586 8.3067,-20.48541 16.24468,-32.13004 26.64408,-39.08558 7.08178,-4.73659 11.29348,-6.15594 19.44858,-6.55422 7.93754,-0.38765 11.69179,0.63443 14.47358,3.9404 4.18007,4.96774 0.216,14.45185 -7.36915,17.63084 -2.50002,1.04777 -8.94523,1.96812 -8.94523,1.27734 0,-0.27383 0.90056,-1.52356 2.00124,-2.77716 2.73762,-3.11798 5.27862,-8.32052 5.75252,-11.77792 0.33318,-2.43081 0.13751,-3.17088 -1.27141,-4.80884 -1.47782,-1.71807 -2.07838,-1.92992 -5.3374,-1.88281 -5.10341,0.0738 -8.89385,2.10449 -13.96797,7.48332 -5.66242,6.00247 -9.29412,12.49884 -18.27306,32.68676 -4.20982,9.46522 -9.08237,19.29941 -11.05038,22.30281 -7.94648,12.12724 -20.12017,21.28156 -32.87758,24.72314 -5.45822,1.47248 -16.38361,1.90707 -20.97596,0.83439 z m 60.8722,0.24532 c -4.37402,-1.88951 -4.75894,-9.2328 -0.89642,-17.10129 4.16794,-8.4907 17.72384,-20.42933 29.00463,-25.54428 6.31581,-2.86373 10.65912,-4.05734 14.76386,-4.05734 4.97354,0 6.78404,0.87869 8.16474,3.96258 l 1.18158,2.63914 2.02515,-2.02514 c 1.93148,-1.93149 2.34562,-2.04218 8.9547,-2.3935 l 6.92956,-0.36836 -15.01379,15.25931 c -14.84667,15.08946 -20.90054,22.52943 -20.51665,25.21419 0.48736,3.40832 6.32596,1.28523 18.53044,-6.73822 6.56254,-4.31432 9.66999,-7.06915 21.57692,-19.12843 l 13.91024,-14.08823 6.75642,-0.23297 6.75642,-0.23297 -12.68058,12.89964 c -21.48844,21.85964 -26.43648,28.5663 -21.07566,28.5663 5.48626,0 20.48988,-10.37086 32.42291,-22.41148 13.86439,-13.9894 26.49595,-20.92186 38.12151,-20.92186 3.87964,0 4.51075,0.19637 6.2631,1.94872 1.0718,1.0718 1.94872,2.40409 1.94872,2.96066 0,0.55656 0.2684,1.17781 0.59643,1.38054 0.32803,0.20274 10.55711,-10.12955 22.73128,-22.96065 l 22.13485,-23.32927 5.43539,-0.009 c 2.98946,-0.005 6.15055,-0.2005 7.02464,-0.43444 0.96036,-0.25701 1.48798,-0.15775 1.33333,0.25084 -0.14075,0.37189 -14.68971,15.39198 -32.33102,33.37798 -17.6413,17.986 -34.4913,35.59658 -37.44444,39.13461 -9.61546,11.51987 -9.64885,14.59309 -0.11649,10.71975 6.908,-2.80698 20.41897,-12.78608 34.17592,-25.24206 3.73819,-3.38468 6.10507,-5.08596 6.51101,-4.68002 0.71654,0.71654 -4.4707,5.55082 -17.0509,15.89064 -18.01783,14.8091 -30.45082,20.67304 -37.2569,17.57198 -2.12852,-0.96982 -3.33452,-3.88745 -2.73505,-6.61681 l 0.46666,-2.12469 -2.90402,1.99098 c -10.61929,7.28052 -22.11283,8.90123 -24.90014,3.51118 -1.27781,-2.47102 -1.27668,-5.73334 0.003,-9.36102 0.55392,-1.56996 0.9142,-2.9474 0.80062,-3.06097 -0.11357,-0.11357 -2.44177,1.46247 -5.17378,3.5023 -14.37267,10.73127 -25.86754,14.64157 -30.22667,10.28243 -1.70103,-1.70104 -1.65763,-5.13882 0.10998,-8.71148 0.7235,-1.46232 1.25335,-2.65877 1.17745,-2.65877 -0.0759,0 -3.11326,1.99413 -6.74969,4.43139 -10.77184,7.21966 -18.59435,10.28306 -23.77598,9.31098 -3.44469,-0.64623 -4.74863,-2.42938 -4.3517,-5.95096 l 0.32777,-2.90791 -3.4059,2.31697 c -5.78964,3.93861 -11.14471,6.13492 -15.80509,6.48225 -2.34711,0.17492 -4.92497,0.034 -5.72859,-0.31315 z m 16.79447,-5.60392 c 9.29513,-4.33521 25.16171,-20.81173 29.94776,-31.09899 2.81789,-6.05683 2.14508,-8 -2.76992,-8 -5.39963,0 -13.98171,5.6618 -22.54995,14.87673 -8.3305,8.95926 -12.96122,16.84566 -12.96122,22.07376 0,4.05107 2.73961,4.75739 8.33333,2.1485 z m 98.86773,-1.96721 c 10.27355,-6.37567 24.32022,-22.22115 27.17513,-30.65517 0.9942,-2.93707 0.99445,-3.32037 0.003,-4.83333 -1.49666,-2.2842 -5.70666,-2.24981 -10.09306,0.0825 -10.50446,5.58528 -25.21224,21.92004 -27.90691,30.99398 -2.24517,7.56031 2.57927,9.52725 10.82173,4.41206 z m 175.42667,7.5694 c -5.26248,-1.59684 -6.94841,-4.31368 -6.45916,-10.40876 0.43643,-5.43702 3.39985,-10.97585 8.74191,-16.3392 11.84374,-11.89096 27.7668,-19.95517 39.39625,-19.95218 5.55863,0.001 8.62085,1.57516 8.90807,4.57802 0.69714,7.28852 -8.29322,13.74184 -25.59477,18.37206 -4.74102,1.26878 -10.3717,2.65063 -12.51263,3.07078 -3.66156,0.71857 -3.96735,0.92854 -5.15202,3.53767 -0.69269,1.52557 -1.26602,4.18204 -1.27408,5.90326 -0.0395,8.45774 8.44013,9.51155 22.48046,2.79374 5.65145,-2.70403 6.29525,-3.21163 7.77366,-6.12914 3.07482,-6.06785 9.44323,-10.38893 13.6788,-9.28131 1.83499,0.47986 9.38578,-5.75163 9.38578,-7.74586 0,-1.75223 3.09794,-6.80981 5.40606,-8.82574 8.38062,-7.3197 25.00138,-8.57716 28.3285,-2.14322 1.78524,3.45226 -0.38832,8.86663 -4.73777,11.80184 -2.48807,1.67908 -8.52051,2.71019 -9.22135,1.57619 -0.2188,-0.35401 0.3718,-1.66344 1.31245,-2.90983 2.13099,-2.82364 4.24544,-7.56582 4.24544,-9.52144 0,-2.21453 -1.27509,-3.07806 -4.5451,-3.07806 -2.51746,0 -3.31028,0.36519 -5.46013,2.51504 -2.27683,2.27682 -3.98112,6.0638 -3.99105,8.8682 -0.002,0.57744 0.74628,3.25498 1.66295,5.9501 3.09864,9.11037 1.90605,14.3915 -4.65011,20.59204 -1.98187,1.87438 -3.49115,3.40796 -3.35393,3.40796 0.96504,0 9.6039,-4.15304 14.01992,-6.73993 6.60454,-3.86889 13.06469,-8.80442 22.84038,-17.44993 4.1376,-3.65925 7.7376,-6.43097 8,-6.15938 1.17158,1.21267 -20.27832,19.19244 -29.53731,24.75881 -13.37243,8.0393 -28.06393,11.3761 -37.60823,8.54175 -4.09244,-1.21532 -6.39377,-3.38612 -6.99666,-6.5998 l -0.42619,-2.27178 -4.86463,2.62395 c -10.36312,5.58979 -23.5881,8.54773 -29.79551,6.66415 z m 54.90731,-3.89248 c 1.90572,-1.07089 4.31183,-3.14119 5.3469,-4.60067 2.78294,-3.92403 2.95506,-7.02823 0.76318,-13.7638 l -1.84747,-5.67723 -3.23183,2.78316 c -2.43199,2.09437 -3.23192,3.2451 -3.23216,4.64962 -6.7e-4,4.2484 -3.06469,7.13356 -7.5756,7.13356 -1.83753,0 -2.40751,0.4062 -3.6353,2.59076 -2.24171,3.98859 -1.6827,7.44221 1.42082,8.77795 2.55727,1.10063 8.26806,0.19895 11.99146,-1.89335 z m -35.0011,-21.04881 c 11.50837,-4.85867 21.46606,-13.39103 21.46606,-18.39345 0,-1.94038 -3.79805,-1.82965 -7.8555,0.22904 -6.49323,3.29456 -17.94814,13.21448 -22.32492,19.33332 l -1.37966,1.9288 2.48064,-0.46538 c 1.36436,-0.25595 4.79037,-1.4405 7.61338,-2.63233 z M 282.16052,179.2478 c -5.84608,-2.35544 -0.0268,-11.99535 7.24117,-11.99535 6.70955,0 5.27963,8.71293 -1.93,11.76 -2.43437,1.02886 -3.25181,1.06508 -5.31117,0.23535 z M 39.032325,90.051872 c -0.199926,-0.32348 0.702474,-1.61069 2.005334,-2.86045 6.108406,-5.8595 15.38998,-18.25036 23.924386,-31.93897 2.857557,-4.583333 6.690077,-10.720733 8.516707,-13.63866 l 3.32113,-5.305333 -3.48168,2.972 c -12.813783,10.93796 -33.766363,26.698103 -54.03459,40.643833 -11.3220647,7.79024 -16.3831987,10.50208 -18.2576887,9.78277 -2.075484,-0.79644 -1.03509399,-2.41652 3.424356,-5.33238 2.475,-1.6183 5.308891,-3.80784 6.2975357,-4.86563 2.112488,-2.26025 13.200577,-19.012947 21.060905,-31.820367 10.399272,-16.94432 20.453805,-29.055668 30.248185,-36.435956 2.91982,-2.2001524 5.124054,-4.0002774 4.8983,-4.0002774 -0.962913,0 -13.314986,3.6026534 -21.004926,6.1263764 -11.271107,3.699007 -18.739959,7.234226 -24.329003,11.5156 -6.745927,5.167584 -10.337664,10.610191 -10.337664,15.664797 0,3.7321 1.740977,5.359894 5.732581,5.359894 5.98989,0 10.808842,-3.862807 14.738708,-11.814347 1.31898,-2.66878 2.795098,-4.85232 3.280258,-4.85232 1.02836,0 0.602993,1.3624 -2.075906,6.648953 -3.909449,7.714927 -11.145654,12.68438 -18.470202,12.68438 -7.2171857,0 -10.5387717,-2.541466 -10.5387717,-8.063593 0,-4.522393 2.287948,-9.018753 6.9382397,-13.635279 6.953597,-6.903107 15.734008,-10.490041 44.728426,-18.2722544 8.433334,-2.26354 17.673817,-4.84603 20.534417,-5.738867 6.21231,-1.93896196 7.67444,-2.07992396 6.46558,-0.62334 -0.45646,0.55 -1.13009,1 -1.49696,1 -1.39117,0 -9.06272,6.049059 -12.9734,10.2295854 -5.66535,6.056277 -10.46933,12.534885 -21.38431,28.838682 -10.475993,15.64808 -15.452503,22.525363 -21.21544,29.318663 l -3.886425,4.58128 6.644936,-4.59967 C 53.386292,54.259772 75.214822,36.427625 84.076182,26.060714 93.523192,15.008645 100.13574,9.5279616 110.3432,4.2898276 c 5.274,-2.706441 8.27374,-3.094708 8.27374,-1.070896 0,0.903589 -2.13396,2.752382 -7.00046,6.064957 C 100.89459,16.582177 96.419822,22.008904 83.644832,43.206179 73.778482,59.577225 66.883185,69.230822 58.945145,77.786442 c -4.46956,4.81729 -4.48932,4.85506 -1.922086,3.67462 14.167823,-6.51455 34.590873,-19.08354 48.927221,-30.111343 8.96008,-6.89228 22.56631,-20.891754 27.27624,-28.064581 4.37094,-6.656569 5.33128,-9.025159 4.14161,-10.21483 -1.15982,-1.159823 -0.88603,-4.5885404 0.55516,-6.9521574 1.63569,-2.68263 4.51699,-4.199032 7.97851,-4.199032 3.62786,0 5.06912,2.073042 4.47168,6.431859 -2.34521,17.1101414 -37.1394,46.1026674 -84.756535,70.6240244 -15.495086,7.97949 -25.835986,12.28818 -26.58462,11.07687 z m 126.879015,-0.0982 c -5.28484,-1.60363 -6.94894,-4.30703 -6.45316,-10.48345 0.24318,-3.02954 0.12646,-4.07254 -0.41869,-3.74106 -0.41573,0.25278 -3.06461,2.16762 -5.88638,4.25518 -6.9973,5.17664 -11.4521,7.63047 -16.29411,8.97523 -7.04194,1.95575 -11.28338,0.0633 -11.15126,-4.97546 0.12538,-4.78159 2.04268,-7.35455 14.95192,-20.06495 12.0301,-11.844823 14.20291,-14.651203 12.93362,-16.704963 -1.39634,-2.259314 -9.48884,1.51144 -19.67209,9.16632 -6.50613,4.890743 -21.96123,18.932843 -28.21863,25.638703 l -5.759188,6.17195 -6.41315,0.28049 c -4.09998,0.17932 -6.32301,0.0407 -6.16322,-0.38424 0.13747,-0.3656 18.164948,-19.5822 40.061058,-42.703563 l 39.81113,-42.0388314 6.52221,-0.212935 c 3.58722,-0.117114 6.6428,-0.14235 6.79018,-0.05608 0.35627,0.208546 -6.31684,7.1870124 -34.23049,35.7968324 -12.85395,13.174534 -22.98017,23.722157 -22.50273,23.439177 0.47745,-0.28298 4.22745,-3.20903 8.33334,-6.502343 9.59398,-7.69528 18.05724,-12.04978 24.17688,-12.439454 5.60492,-0.356893 7.62818,0.812754 7.60706,4.397634 -0.0281,4.768846 -2.1698,7.758693 -14.81516,20.682283 -6.71031,6.85796 -12.69068,13.4926 -13.2897,14.74364 -2.36543,4.94016 0.59935,5.17926 8.4435,0.68094 7.57565,-4.34435 16.18501,-11.13242 19.06664,-15.03314 10.21069,-13.821697 30.56434,-25.591577 44.24942,-25.588057 5.55864,0.0013 8.62085,1.57516 8.90807,4.57802 0.69715,7.28852 -8.29321,13.741847 -25.59477,18.372057 -4.74102,1.26878 -10.3717,2.65064 -12.51263,3.07079 -3.66156,0.71857 -3.96735,0.92853 -5.15202,3.53767 -0.69269,1.52557 -1.26602,4.18204 -1.27407,5.90326 -0.0501,10.71027 14.01413,9.31092 32.9204,-3.2755 6.50306,-4.32926 8.40481,-6.1356 27.13878,-25.777197 l 4.40714,-4.620666 7.25952,-0.268227 7.25952,-0.268227 -7.33334,7.06948 -7.33333,7.069447 6,-4.38624 c 8.82379,-6.450547 17.35439,-10.54688 22.66849,-10.88526 3.88766,-0.247547 4.39119,-0.121407 6.02091,1.508313 1.52438,1.52438 1.71323,2.130334 1.32188,4.2415 -0.91619,4.942494 -3.78821,8.695347 -15.14927,19.795507 -11.42917,11.16672 -14.69236,15.53041 -13.07292,17.48171 0.38913,0.46887 1.1519,0.85249 1.69505,0.85249 3.50369,0 18.87488,-10.71556 34.81904,-24.27305 8.02317,-6.822177 9.36349,-7.746443 9.36349,-6.456923 0,0.843006 -17.92109,15.933443 -26.80332,22.569713 -10.15561,7.58767 -16.11708,10.46798 -21.69587,10.48247 -3.90975,0.0101 -4.42509,-0.15741 -5.95724,-1.93709 -1.40312,-1.6298 -1.60873,-2.3767 -1.25801,-4.56998 0.23058,-1.44197 0.89852,-3.56528 1.48429,-4.71845 0.58578,-1.15318 6.6902,-7.79669 13.56539,-14.76336 6.87518,-6.966663 12.70668,-13.338977 12.9589,-14.160697 0.63025,-2.053306 -0.0219,-2.8393 -2.35565,-2.8393 -5.91197,0 -21.45519,11.696307 -41.14014,30.958057 l -10.86831,10.63466 -5.96502,0.28518 c -3.33171,0.1593 -5.96502,0.0184 -5.96502,-0.31912 0,-0.33238 1.67212,-2.24408 3.71582,-4.24822 5.27498,-5.17285 5.80087,-6.50352 1.47977,-3.74426 -12.13807,7.7508 -27.71377,12.08365 -35.23453,9.80155 z m 19.90621,-24.94129 c 11.50837,-4.85871 21.46606,-13.39107 21.46606,-18.39349 0,-1.940387 -3.79805,-1.829653 -7.85549,0.229033 -6.49324,3.29456 -17.94815,13.214487 -22.32493,19.333317 l -1.37965,1.9288 2.48064,-0.46537 c 1.36435,-0.25595 4.79036,-1.44051 7.61337,-2.63233 z m 124.79939,24.6977 c -7.42779,-1.73498 -12.25678,-5.5688 -13.89296,-11.02988 -3.10685,-10.36974 5.18837,-24.094377 14.56273,-24.094377 4.40193,0 5.62467,1.157187 5.40922,5.1192 -0.13003,2.391217 -4.1218,6.037847 -7.55584,6.902547 -2.86137,0.72051 -3.1793,1.02723 -4.79388,4.625 -2.43773,5.43197 -2.34335,9.27412 0.3018,12.28678 3.05279,3.47694 7.03913,4.73314 15.01983,4.73314 6.59616,0 6.82437,-0.0529 12.62795,-2.92903 12.05551,-5.97438 21.44895,-18.34698 30.06929,-39.605857 8.3067,-20.485406 16.24468,-32.130036 26.64408,-39.0855784 7.08178,-4.736586 11.29348,-6.15593596 19.44858,-6.55421596 7.93754,-0.387654 11.69179,0.634431 14.47358,3.94039596 4.18007,4.967735 0.216,14.4518504 -7.36915,17.6308394 -2.50002,1.047774 -8.94523,1.968125 -8.94523,1.277343 0,-0.273832 0.90056,-1.523556 2.00124,-2.777164 2.73762,-3.117979 5.27862,-8.320523 5.75252,-11.7779194 0.33318,-2.430807 0.13751,-3.170875 -1.27141,-4.808839 -1.47782,-1.718066 -2.07838,-1.929919 -5.3374,-1.88281 -5.10341,0.07377 -8.89385,2.104492 -13.96797,7.483324 -5.66242,6.0024624 -9.29412,12.4988384 -18.27306,32.6867584 -4.20982,9.46522 -9.08237,19.299406 -11.05038,22.302813 -7.94648,12.12724 -20.12017,21.28155 -32.87758,24.72314 -5.45822,1.47247 -16.38361,1.90707 -20.97596,0.83439 z m 123.96107,0.24359 c -5.28485,-1.60363 -6.94895,-4.30703 -6.45316,-10.48345 0.24318,-3.02954 0.12645,-4.07254 -0.41869,-3.74106 -0.41574,0.25278 -3.06461,2.16762 -5.88638,4.25518 -6.9973,5.17664 -11.4521,7.63047 -16.29411,8.97523 -7.04195,1.95575 -11.28339,0.0633 -11.15127,-4.97546 0.12538,-4.78159 2.04268,-7.35455 14.95192,-20.06495 12.03011,-11.844823 14.20292,-14.651203 12.93362,-16.704963 -1.39633,-2.259314 -9.48884,1.51144 -19.67208,9.16632 -6.50613,4.890743 -21.96123,18.932843 -28.21863,25.638703 l -5.75919,6.17195 -6.41316,0.28049 c -4.09998,0.17932 -6.323,0.0407 -6.16321,-0.38424 0.13747,-0.3656 18.16495,-19.5822 40.06106,-42.703563 l 39.81113,-42.0388314 6.5222,-0.212935 c 3.58722,-0.117114 6.6428,-0.14235 6.79018,-0.05608 0.35628,0.208546 -6.31684,7.1870124 -34.23048,35.7968324 -12.85395,13.174534 -22.98018,23.722157 -22.50273,23.439177 0.47745,-0.28298 4.22745,-3.20903 8.33333,-6.502343 9.59399,-7.69528 18.05725,-12.04978 24.17688,-12.439454 5.60493,-0.356893 7.62819,0.812754 7.60706,4.397634 -0.0281,4.768846 -2.16979,7.758693 -14.81515,20.682283 -6.71031,6.85796 -12.69068,13.4926 -13.28971,14.74364 -2.36542,4.94016 0.59936,5.17926 8.44351,0.68094 7.57565,-4.34435 16.18501,-11.13242 19.06664,-15.03314 10.21069,-13.821697 30.56433,-25.591577 44.24942,-25.588057 5.55863,0.0013 8.62085,1.57516 8.90807,4.57802 0.69714,7.28852 -8.29322,13.741847 -25.59477,18.372057 -4.74102,1.26878 -10.3717,2.65064 -12.51263,3.07079 -3.66156,0.71857 -3.96735,0.92853 -5.15202,3.53767 -3.032,6.67766 -0.9365,12.2682 4.84264,12.91959 9.88076,1.11371 24.67426,-7.01181 46.73622,-25.670447 6.6864,-5.65494 8.85576,-5.896646 2.79909,-0.311873 -10.26499,9.46521 -24.81627,20.04519 -33.66667,24.47845 -9.88328,4.95063 -22.26265,7.47865 -28.03893,5.72589 z m 19.90621,-24.94129 c 11.50837,-4.85867 21.46606,-13.39103 21.46606,-18.39345 0,-1.940387 -3.79805,-1.829653 -7.8555,0.229033 -6.49323,3.29456 -17.94814,13.214487 -22.32492,19.333317 l -1.37966,1.9288 2.48064,-0.46537 c 1.36436,-0.25595 4.79037,-1.44051 7.61338,-2.63233 z"
     id="path6808"
     inkscape:connector-curvature="0" />
</svg>
